<svg xmlns="http://www.w3.org/2000/svg" xmlns:xlink="http://www.w3.org/1999/xlink" viewBox="0 0 375 222"><defs><linearGradient id="0a59e799-93a2-4d19-97ea-b187f641d5bf" x1="248.77" y1="92.57" x2="303.96" y2="92.57" gradientUnits="userSpaceOnUse"><stop offset="0.08" stop-color="#bdbdbd"/><stop offset="0.13" stop-color="#c2c2c2"/><stop offset="0.37" stop-color="#d7d7d7"/><stop offset="0.53" stop-color="#dfdfdf"/><stop offset="1" stop-color="#cdcdcd"/></linearGradient><linearGradient id="bceb342a-7448-4b28-b526-afaef5df3d6a" x1="291.61" y1="111.21" x2="341.04" y2="111.21" xlink:href="#0a59e799-93a2-4d19-97ea-b187f641d5bf"/><linearGradient id="d248f9a8-65b4-4922-badf-9079757acbf3" x1="6805.53" y1="725.39" x2="6832.03" y2="725.39" gradientTransform="matrix(-0.98, -0.17, -0.17, 0.98, 7189.54, 595.4)" xlink:href="#0a59e799-93a2-4d19-97ea-b187f641d5bf"/></defs><title>Asset 15</title><g style="isolation:isolate"><g id="52c7560c-91dd-4d79-8286-51cc0667da6c" data-name="Layer 2"><g id="b83207ae-a068-4682-bf99-d699fb11fa15" data-name="Capa 1"><path d="M15,9H276a12,12,0,0,1,12,12v2.82A41.18,41.18,0,0,1,246.82,65H15A12,12,0,0,1,3,53V21A12,12,0,0,1,15,9Z" style="fill:#013144"/><image width="300" height="300" transform="scale(0.22)" xlink:href="../../../../../../../../../Users/satch/OneDrive/Desktop/calendario-icono.png"/><text transform="translate(72.51 42.41)" style="font-size:20px;fill:#fff;font-family:SegoeUI-BoldItalic, Segoe UI;font-weight:700;font-style:italic">Calenda<tspan x="76.97" y="0" style="letter-spacing:0.0009765625em">r</tspan><tspan x="84.99" y="0">io de e</tspan><tspan x="146.49" y="0" style="letter-spacing:-0.009765625em">v</tspan><tspan x="156.96" y="0">en</tspan><tspan x="179.33" y="0" style="letter-spacing:-0.001953125em">t</tspan><tspan x="186.79" y="0">os</tspan></text><g style="opacity:0.8;mix-blend-mode:multiply"><path d="M375,216.09c0,3.26-22.75,5.91-50.81,5.91s-50.81-2.65-50.81-5.91,22.75-5.92,50.81-5.92S375,212.82,375,216.09Z" style="fill:#fff"/><path d="M374.88,216.09c0,3.26-22.69,5.9-50.69,5.9s-50.7-2.64-50.7-5.9,22.7-5.9,50.7-5.9S374.88,212.83,374.88,216.09Z" style="fill:#fefefe;opacity:0.9989417989738281"/><path d="M374.77,216.09c0,3.25-22.65,5.88-50.58,5.88s-50.58-2.63-50.58-5.88,22.64-5.89,50.58-5.89S374.77,212.84,374.77,216.09Z" style="fill:#fdfdfd;opacity:0.9978835979152845"/><path d="M374.65,216.09c0,3.24-22.59,5.87-50.46,5.87s-50.47-2.63-50.47-5.87,22.6-5.88,50.47-5.88S374.65,212.84,374.65,216.09Z" style="fill:#fcfcfc;opacity:0.9968253968567409"/><path d="M374.54,216.09c0,3.23-22.54,5.86-50.35,5.86s-50.35-2.63-50.35-5.86,22.54-5.86,50.35-5.86S374.54,212.85,374.54,216.09Z" style="fill:#fbfbfb;opacity:0.9957671957981973"/><path d="M374.42,216.09c0,3.23-22.49,5.84-50.23,5.84S274,219.32,274,216.09s22.49-5.85,50.24-5.85S374.42,212.86,374.42,216.09Z" style="fill:#fafafa;opacity:0.9947089947396536"/><path d="M374.31,216.09c0,3.22-22.44,5.83-50.12,5.83s-50.12-2.61-50.12-5.83,22.44-5.83,50.12-5.83S374.31,212.87,374.31,216.09Z" style="fill:#f9f9f9;opacity:0.99365079368111"/><path d="M374.19,216.09c0,3.21-22.39,5.82-50,5.82s-50-2.61-50-5.82,22.38-5.82,50-5.82S374.19,212.87,374.19,216.09Z" style="fill:#f8f8f8;opacity:0.9925925926225664"/><path d="M374.08,216.09c0,3.2-22.34,5.8-49.89,5.8s-49.89-2.6-49.89-5.8,22.34-5.81,49.89-5.81S374.08,212.88,374.08,216.09Z" style="fill:#f7f7f7;opacity:0.9915343915640228"/><path d="M374,216.09c0,3.2-22.28,5.79-49.77,5.79s-49.77-2.59-49.77-5.79,22.28-5.79,49.77-5.79S374,212.89,374,216.09Z" style="fill:#f6f6f6;opacity:0.9904761905054792"/><path d="M373.84,216.09c0,3.19-22.23,5.78-49.65,5.78s-49.66-2.59-49.66-5.78,22.23-5.78,49.66-5.78S373.84,212.9,373.84,216.09Z" style="fill:#f5f5f5;opacity:0.9894179894469356"/><path d="M373.73,216.09c0,3.18-22.18,5.76-49.54,5.76s-49.54-2.58-49.54-5.76,22.18-5.77,49.54-5.77S373.73,212.9,373.73,216.09Z" style="fill:#f4f4f4;opacity:0.9883597883883919"/><path d="M373.61,216.09c0,3.17-22.12,5.75-49.42,5.75s-49.43-2.58-49.43-5.75,22.13-5.75,49.43-5.75S373.61,212.91,373.61,216.09Z" style="fill:#f3f3f3;opacity:0.9873015873298483"/><path d="M373.5,216.09c0,3.17-22.08,5.74-49.31,5.74s-49.31-2.57-49.31-5.74,22.07-5.74,49.31-5.74S373.5,212.92,373.5,216.09Z" style="fill:#f2f2f2;opacity:0.9862433862713046"/><path d="M373.38,216.09c0,3.16-22,5.72-49.19,5.72s-49.2-2.56-49.2-5.72,22-5.73,49.2-5.73S373.38,212.93,373.38,216.09Z" style="fill:#f1f1f1;opacity:0.985185185212761"/><path d="M373.27,216.09c0,3.15-22,5.71-49.08,5.71s-49.08-2.56-49.08-5.71,22-5.71,49.08-5.71S373.27,212.93,373.27,216.09Z" style="fill:#f0f0f0;opacity:0.9841269841542174"/><path d="M373.15,216.09c0,3.14-21.92,5.69-49,5.69s-49-2.55-49-5.69,21.92-5.7,49-5.7S373.15,212.94,373.15,216.09Z" style="fill:#efefef;opacity:0.9830687830956738"/><path d="M373,216.09c0,3.14-21.86,5.68-48.84,5.68s-48.85-2.54-48.85-5.68,21.87-5.69,48.85-5.69S373,213,373,216.09Z" style="fill:#eee;opacity:0.9820105820371302"/><path d="M372.92,216.09c0,3.13-21.82,5.67-48.73,5.67s-48.73-2.54-48.73-5.67,21.81-5.67,48.73-5.67S372.92,213,372.92,216.09Z" style="fill:#ededed;opacity:0.9809523809785866"/><path d="M372.8,216.09c0,3.12-21.76,5.65-48.61,5.65s-48.62-2.53-48.62-5.65,21.77-5.66,48.62-5.66S372.8,213,372.8,216.09Z" style="fill:#ececec;opacity:0.979894179920043"/><path d="M372.69,216.09c0,3.11-21.72,5.64-48.5,5.64s-48.5-2.53-48.5-5.64,21.71-5.65,48.5-5.65S372.69,213,372.69,216.09Z" style="fill:#ebebeb;opacity:0.9788359788614993"/><path d="M372.57,216.09c0,3.11-21.66,5.63-48.38,5.63s-48.39-2.52-48.39-5.63,21.67-5.63,48.39-5.63S372.57,213,372.57,216.09Z" style="fill:#eaeaea;opacity:0.9777777778029557"/><path d="M372.46,216.09c0,3.1-21.61,5.61-48.27,5.61s-48.27-2.51-48.27-5.61,21.61-5.62,48.27-5.62S372.46,213,372.46,216.09Z" style="fill:#e9e9e9;opacity:0.9767195767444121"/><path d="M372.34,216.09c0,3.09-21.56,5.6-48.15,5.6S276,219.18,276,216.09s21.56-5.61,48.16-5.61S372.34,213,372.34,216.09Z" style="fill:#e8e8e8;opacity:0.9756613756858684"/><path d="M372.23,216.09c0,3.09-21.51,5.59-48,5.59s-48-2.5-48-5.59,21.51-5.59,48-5.59S372.23,213,372.23,216.09Z" style="fill:#e7e7e7;opacity:0.9746031746273248"/><path d="M372.11,216.09c0,3.08-21.45,5.57-47.92,5.57s-47.92-2.49-47.92-5.57,21.45-5.58,47.92-5.58S372.11,213,372.11,216.09Z" style="fill:#e6e6e6;opacity:0.9735449735687812"/><path d="M372,216.09c0,3.07-21.4,5.56-47.8,5.56s-47.81-2.49-47.81-5.56,21.4-5.57,47.81-5.57S372,213,372,216.09Z" style="fill:#e5e5e5;opacity:0.9724867725102376"/><path d="M371.88,216.09c0,3.06-21.35,5.55-47.69,5.55s-47.69-2.49-47.69-5.55,21.35-5.55,47.69-5.55S371.88,213,371.88,216.09Z" style="fill:#e4e4e4;opacity:0.9714285714516939"/><path d="M371.76,216.09c0,3.06-21.3,5.53-47.57,5.53s-47.58-2.47-47.58-5.53,21.3-5.54,47.58-5.54S371.76,213,371.76,216.09Z" style="fill:#e3e3e3;opacity:0.9703703703931503"/><path d="M371.65,216.09c0,3-21.25,5.52-47.46,5.52s-47.46-2.47-47.46-5.52,21.25-5.53,47.46-5.53S371.65,213,371.65,216.09Z" style="fill:#e2e2e2;opacity:0.9693121693346067"/><path d="M371.53,216.09c0,3-21.19,5.51-47.34,5.51s-47.35-2.47-47.35-5.51,21.2-5.51,47.35-5.51S371.53,213,371.53,216.09Z" style="fill:#e1e1e1;opacity:0.968253968276063"/><path d="M371.42,216.09c0,3-21.15,5.49-47.23,5.49S277,219.12,277,216.09s21.14-5.5,47.23-5.5S371.42,213.05,371.42,216.09Z" style="fill:#e0e0e0;opacity:0.9671957672175194"/><path d="M371.3,216.09c0,3-21.09,5.48-47.11,5.48s-47.11-2.45-47.11-5.48,21.09-5.48,47.11-5.48S371.3,213.06,371.3,216.09Z" style="fill:#dfdfdf;opacity:0.9661375661589758"/><path d="M371.19,216.09c0,3-21.05,5.47-47,5.47s-47-2.45-47-5.47,21-5.47,47-5.47S371.19,213.07,371.19,216.09Z" style="fill:#dedede;opacity:0.9650793651004322"/><path d="M371.07,216.09c0,3-21,5.45-46.88,5.45s-46.88-2.44-46.88-5.45,21-5.46,46.88-5.46S371.07,213.07,371.07,216.09Z" style="fill:#ddd;opacity:0.9640211640418886"/><path d="M371,216.09c0,3-20.93,5.44-46.76,5.44s-46.77-2.44-46.77-5.44,20.94-5.44,46.77-5.44S371,213.08,371,216.09Z" style="fill:#dcdcdc;opacity:0.9629629629833449"/><path d="M370.84,216.09c0,3-20.89,5.43-46.65,5.43s-46.65-2.43-46.65-5.43,20.88-5.43,46.65-5.43S370.84,213.09,370.84,216.09Z" style="fill:#dbdbdb;opacity:0.9619047619248013"/><path d="M370.72,216.09c0,3-20.83,5.41-46.53,5.41s-46.54-2.42-46.54-5.41,20.84-5.42,46.54-5.42S370.72,213.1,370.72,216.09Z" style="fill:#dadada;opacity:0.9608465608662577"/><path d="M370.61,216.09c0,3-20.78,5.4-46.42,5.4s-46.42-2.42-46.42-5.4,20.78-5.4,46.42-5.4S370.61,213.1,370.61,216.09Z" style="fill:#d9d9d9;opacity:0.959788359807714"/><path d="M370.49,216.09c0,3-20.73,5.39-46.3,5.39s-46.31-2.42-46.31-5.39,20.73-5.39,46.31-5.39S370.49,213.11,370.49,216.09Z" style="fill:#d8d8d8;opacity:0.9587301587491704"/><path d="M370.38,216.09c0,3-20.68,5.37-46.19,5.37S278,219.06,278,216.09s20.68-5.38,46.19-5.38S370.38,213.12,370.38,216.09Z" style="fill:#d7d7d7;opacity:0.9576719576906269"/><path d="M370.26,216.09c0,3-20.63,5.36-46.07,5.36s-46.07-2.4-46.07-5.36,20.62-5.36,46.07-5.36S370.26,213.13,370.26,216.09Z" style="fill:#d6d6d6;opacity:0.9566137566320833"/><path d="M370.15,216.09c0,2.95-20.58,5.35-46,5.35s-46-2.4-46-5.35,20.58-5.35,46-5.35S370.15,213.13,370.15,216.09Z" style="fill:#d5d5d5;opacity:0.9555555555735397"/><path d="M370,216.09c0,2.94-20.52,5.33-45.84,5.33s-45.84-2.39-45.84-5.33,20.52-5.34,45.84-5.34S370,213.14,370,216.09Z" style="fill:#d4d4d4;opacity:0.954497354514996"/><path d="M369.91,216.09c0,2.94-20.47,5.32-45.72,5.32s-45.73-2.38-45.73-5.32,20.47-5.32,45.73-5.32S369.91,213.15,369.91,216.09Z" style="fill:#d3d3d3;opacity:0.9534391534564524"/><path d="M369.8,216.09c0,2.93-20.42,5.3-45.61,5.3s-45.61-2.37-45.61-5.3,20.42-5.31,45.61-5.31S369.8,213.16,369.8,216.09Z" style="fill:#d2d2d2;opacity:0.9523809523979088"/><path d="M369.68,216.09c0,2.92-20.37,5.29-45.49,5.29s-45.5-2.37-45.5-5.29,20.37-5.3,45.5-5.3S369.68,213.16,369.68,216.09Z" style="fill:#d1d1d1;opacity:0.9513227513393651"/><path d="M369.57,216.09c0,2.91-20.32,5.28-45.38,5.28s-45.38-2.37-45.38-5.28,20.32-5.28,45.38-5.28S369.57,213.17,369.57,216.09Z" style="fill:#d0d0d0;opacity:0.9502645502808215"/><path d="M369.45,216.09c0,2.91-20.26,5.26-45.26,5.26s-45.27-2.35-45.27-5.26,20.27-5.27,45.27-5.27S369.45,213.18,369.45,216.09Z" style="fill:#cfcfcf;opacity:0.9492063492222779"/><path d="M369.34,216.09c0,2.9-20.22,5.25-45.15,5.25S279,219,279,216.09s20.21-5.26,45.15-5.26S369.34,213.19,369.34,216.09Z" style="fill:#cecece;opacity:0.9481481481637343"/><path d="M369.22,216.09c0,2.89-20.16,5.24-45,5.24s-45-2.35-45-5.24,20.16-5.24,45-5.24S369.22,213.19,369.22,216.09Z" style="fill:#cdcdcd;opacity:0.9470899471051907"/><path d="M369.1,216.09c0,2.88-20.1,5.22-44.91,5.22s-44.92-2.34-44.92-5.22,20.11-5.23,44.92-5.23S369.1,213.2,369.1,216.09Z" style="fill:#ccc;opacity:0.9460317460466471"/><path d="M369,216.09c0,2.88-20.06,5.21-44.8,5.21s-44.8-2.33-44.8-5.21,20.05-5.22,44.8-5.22S369,213.21,369,216.09Z" style="fill:#cbcbcb;opacity:0.9449735449881034"/><path d="M368.87,216.09c0,2.87-20,5.2-44.68,5.2s-44.69-2.33-44.69-5.2,20-5.2,44.69-5.2S368.87,213.22,368.87,216.09Z" style="fill:#cacaca;opacity:0.9439153439295598"/><path d="M368.76,216.09c0,2.86-20,5.18-44.57,5.18s-44.57-2.32-44.57-5.18,19.95-5.19,44.57-5.19S368.76,213.22,368.76,216.09Z" style="fill:#c9c9c9;opacity:0.9428571428710162"/><path d="M368.64,216.09c0,2.86-19.9,5.17-44.45,5.17s-44.46-2.31-44.46-5.17,19.91-5.18,44.46-5.18S368.64,213.23,368.64,216.09Z" style="fill:#c8c8c8;opacity:0.9417989418124726"/><path d="M368.53,216.09c0,2.85-19.85,5.16-44.34,5.16s-44.34-2.31-44.34-5.16,19.85-5.16,44.34-5.16S368.53,213.24,368.53,216.09Z" style="fill:#c7c7c7;opacity:0.940740740753929"/><path d="M368.41,216.09c0,2.84-19.8,5.14-44.22,5.14S280,218.93,280,216.09s19.79-5.15,44.22-5.15S368.41,213.24,368.41,216.09Z" style="fill:#c6c6c6;opacity:0.9396825396953854"/><path d="M368.3,216.09c0,2.83-19.75,5.13-44.11,5.13s-44.11-2.3-44.11-5.13S299.83,211,324.19,211,368.3,213.25,368.3,216.09Z" style="fill:#c5c5c5;opacity:0.9386243386368417"/><path d="M368.18,216.09c0,2.83-19.7,5.12-44,5.12s-44-2.29-44-5.12,19.69-5.12,44-5.12S368.18,213.26,368.18,216.09Z" style="fill:#c4c4c4;opacity:0.9375661375782981"/><path d="M368.06,216.09c0,2.82-19.64,5.1-43.87,5.1s-43.88-2.28-43.88-5.1S300,211,324.19,211,368.06,213.27,368.06,216.09Z" style="fill:#c3c3c3;opacity:0.9365079365197545"/><path d="M368,216.09c0,2.81-19.59,5.09-43.76,5.09s-43.76-2.28-43.76-5.09S300,211,324.19,211,368,213.27,368,216.09Z" style="fill:#c2c2c2;opacity:0.9354497354612108"/><path d="M367.83,216.09c0,2.8-19.54,5.08-43.64,5.08s-43.65-2.28-43.65-5.08S300.08,211,324.19,211,367.83,213.28,367.83,216.09Z" style="fill:#c1c1c1;opacity:0.9343915344026672"/><path d="M367.72,216.09c0,2.8-19.49,5.06-43.53,5.06s-43.53-2.26-43.53-5.06S300.15,211,324.19,211,367.72,213.29,367.72,216.09Z" style="fill:silver;opacity:0.9333333333441236"/><path d="M367.6,216.09c0,2.79-19.43,5-43.41,5s-43.42-2.26-43.42-5S300.21,211,324.19,211,367.6,213.3,367.6,216.09Z" style="fill:#bfbfbf;opacity:0.93227513228558"/><path d="M367.49,216.09c0,2.78-19.39,5-43.3,5s-43.3-2.26-43.3-5,19.38-5,43.3-5S367.49,213.3,367.49,216.09Z" style="fill:#bebebe;opacity:0.9312169312270364"/><path d="M367.37,216.09c0,2.77-19.33,5-43.18,5s-43.18-2.25-43.18-5,19.33-5,43.18-5S367.37,213.31,367.37,216.09Z" style="fill:#bdbdbd;opacity:0.9301587301684928"/><path d="M367.26,216.09c0,2.77-19.29,5-43.07,5s-43.07-2.24-43.07-5,19.28-5,43.07-5S367.26,213.32,367.26,216.09Z" style="fill:#bcbcbc;opacity:0.9291005291099492"/><path d="M367.14,216.09c0,2.76-19.23,5-42.95,5s-42.95-2.24-42.95-5,19.23-5,42.95-5S367.14,213.33,367.14,216.09Z" style="fill:#bbb;opacity:0.9280423280514056"/><path d="M367,216.09c0,2.75-19.17,5-42.83,5s-42.84-2.23-42.84-5,19.18-5,42.84-5S367,213.33,367,216.09Z" style="fill:#bababa;opacity:0.9269841269928619"/><path d="M366.91,216.09c0,2.74-19.13,5-42.72,5s-42.72-2.23-42.72-5,19.12-5,42.72-5S366.91,213.34,366.91,216.09Z" style="fill:#b9b9b9;opacity:0.9259259259343183"/><path d="M366.79,216.09c0,2.74-19.07,5-42.6,5s-42.61-2.22-42.61-5,19.08-5,42.61-5S366.79,213.35,366.79,216.09Z" style="fill:#b8b8b8;opacity:0.9248677248757747"/><path d="M366.68,216.09c0,2.73-19,4.94-42.49,4.94s-42.49-2.21-42.49-4.94,19-5,42.49-5S366.68,213.36,366.68,216.09Z" style="fill:#b7b7b7;opacity:0.923809523817231"/><path d="M366.56,216.09c0,2.72-19,4.93-42.37,4.93s-42.37-2.21-42.37-4.93,19-4.93,42.37-4.93S366.56,213.36,366.56,216.09Z" style="fill:#b6b6b6;opacity:0.9227513227586874"/><path d="M366.45,216.09c0,2.71-18.92,4.91-42.26,4.91s-42.26-2.2-42.26-4.91,18.92-4.92,42.26-4.92S366.45,213.37,366.45,216.09Z" style="fill:#b5b5b5;opacity:0.9216931217001438"/><path d="M366.33,216.09c0,2.71-18.87,4.9-42.14,4.9s-42.14-2.19-42.14-4.9,18.86-4.91,42.14-4.91S366.33,213.38,366.33,216.09Z" style="fill:#b4b4b4;opacity:0.9206349206416002"/><path d="M366.21,216.09c0,2.7-18.81,4.89-42,4.89s-42-2.19-42-4.89,18.82-4.89,42-4.89S366.21,213.39,366.21,216.09Z" style="fill:#b3b3b3;opacity:0.9195767195830566"/><path d="M366.1,216.09c0,2.69-18.76,4.87-41.91,4.87s-41.91-2.18-41.91-4.87,18.76-4.88,41.91-4.88S366.1,213.39,366.1,216.09Z" style="fill:#b2b2b2;opacity:0.918518518524513"/><path d="M366,216.09c0,2.68-18.71,4.86-41.79,4.86s-41.8-2.18-41.8-4.86,18.71-4.87,41.8-4.87S366,213.4,366,216.09Z" style="fill:#b1b1b1;opacity:0.9174603174659695"/><path d="M365.87,216.09c0,2.68-18.66,4.85-41.68,4.85s-41.68-2.17-41.68-4.85,18.66-4.85,41.68-4.85S365.87,213.41,365.87,216.09Z" style="fill:#b0b0b0;opacity:0.9164021164074257"/><path d="M365.75,216.09c0,2.67-18.61,4.83-41.56,4.83s-41.57-2.16-41.57-4.83,18.61-4.84,41.57-4.84S365.75,213.42,365.75,216.09Z" style="fill:#afafaf;opacity:0.9153439153488822"/><path d="M365.64,216.09c0,2.66-18.56,4.82-41.45,4.82s-41.45-2.16-41.45-4.82,18.56-4.83,41.45-4.83S365.64,213.42,365.64,216.09Z" style="fill:#aeaeae;opacity:0.9142857142903386"/><path d="M365.52,216.09c0,2.65-18.5,4.81-41.33,4.81s-41.33-2.16-41.33-4.81,18.5-4.81,41.33-4.81S365.52,213.43,365.52,216.09Z" style="fill:#adadad;opacity:0.9132275132317949"/><path d="M365.41,216.09c0,2.65-18.46,4.79-41.22,4.79S283,218.74,283,216.09s18.45-4.8,41.22-4.8S365.41,213.44,365.41,216.09Z" style="fill:#acacac;opacity:0.9121693121732513"/><path d="M365.29,216.09c0,2.64-18.4,4.78-41.1,4.78s-41.1-2.14-41.1-4.78,18.4-4.79,41.1-4.79S365.29,213.45,365.29,216.09Z" style="fill:#ababab;opacity:0.9111111111147077"/><path d="M365.17,216.09c0,2.63-18.35,4.77-41,4.77s-41-2.14-41-4.77,18.35-4.77,41-4.77S365.17,213.45,365.17,216.09Z" style="fill:#aaa;opacity:0.9100529100561641"/><path d="M365.06,216.09c0,2.63-18.3,4.75-40.87,4.75s-40.87-2.12-40.87-4.75,18.3-4.76,40.87-4.76S365.06,213.46,365.06,216.09Z" style="fill:#a9a9a9;opacity:0.9089947089976205"/><path d="M364.94,216.09c0,2.62-18.24,4.74-40.75,4.74s-40.76-2.12-40.76-4.74,18.25-4.74,40.76-4.74S364.94,213.47,364.94,216.09Z" style="fill:#a8a8a8;opacity:0.9079365079390769"/><path d="M364.83,216.09c0,2.61-18.2,4.73-40.64,4.73s-40.64-2.12-40.64-4.73,18.19-4.73,40.64-4.73S364.83,213.48,364.83,216.09Z" style="fill:#a7a7a7;opacity:0.9068783068805333"/><path d="M364.71,216.09c0,2.6-18.14,4.71-40.52,4.71s-40.53-2.11-40.53-4.71,18.15-4.72,40.53-4.72S364.71,213.48,364.71,216.09Z" style="fill:#a6a6a6;opacity:0.9058201058219896"/><path d="M364.6,216.09c0,2.6-18.09,4.7-40.41,4.7s-40.41-2.1-40.41-4.7,18.09-4.7,40.41-4.7S364.6,213.49,364.6,216.09Z" style="fill:#a5a5a5;opacity:0.904761904763446"/><path d="M364.48,216.09c0,2.59-18,4.69-40.29,4.69s-40.29-2.1-40.29-4.69,18-4.69,40.29-4.69S364.48,213.5,364.48,216.09Z" style="fill:#a4a4a4;opacity:0.9037037037049024"/><path d="M364.37,216.09c0,2.58-18,4.67-40.18,4.67S284,218.67,284,216.09s18-4.68,40.18-4.68S364.37,213.5,364.37,216.09Z" style="fill:#a3a3a3;opacity:0.9026455026463587"/><path d="M364.25,216.09c0,2.57-17.94,4.66-40.06,4.66s-40.06-2.09-40.06-4.66,17.93-4.66,40.06-4.66S364.25,213.51,364.25,216.09Z" style="fill:#a2a2a2;opacity:0.9015873015878151"/><path d="M364.13,216.09c0,2.57-17.88,4.65-39.94,4.65s-39.95-2.08-39.95-4.65,17.89-4.65,39.95-4.65S364.13,213.52,364.13,216.09Z" style="fill:#a1a1a1;opacity:0.9005291005292715"/><path d="M364,216.09c0,2.56-17.83,4.63-39.83,4.63s-39.83-2.07-39.83-4.63,17.83-4.64,39.83-4.64S364,213.53,364,216.09Z" style="fill:#a0a0a0;opacity:0.8994708994707279"/><path d="M363.9,216.09c0,2.55-17.78,4.62-39.71,4.62s-39.72-2.07-39.72-4.62,17.78-4.62,39.72-4.62S363.9,213.53,363.9,216.09Z" style="fill:#9f9f9f;opacity:0.8984126984121843"/><path d="M363.79,216.09c0,2.54-17.73,4.61-39.6,4.61s-39.6-2.07-39.6-4.61,17.73-4.61,39.6-4.61S363.79,213.54,363.79,216.09Z" style="fill:#9e9e9e;opacity:0.8973544973536407"/><path d="M363.67,216.09c0,2.54-17.68,4.59-39.48,4.59s-39.48-2.05-39.48-4.59,17.67-4.6,39.48-4.6S363.67,213.55,363.67,216.09Z" style="fill:#9d9d9d;opacity:0.8962962962950971"/><path d="M363.56,216.09c0,2.53-17.63,4.58-39.37,4.58s-39.37-2-39.37-4.58,17.62-4.58,39.37-4.58S363.56,213.56,363.56,216.09Z" style="fill:#9c9c9c;opacity:0.8952380952365534"/><path d="M363.44,216.09c0,2.52-17.57,4.57-39.25,4.57s-39.25-2-39.25-4.57,17.57-4.57,39.25-4.57S363.44,213.56,363.44,216.09Z" style="fill:#9b9b9b;opacity:0.8941798941780098"/><path d="M363.32,216.09c0,2.51-17.52,4.55-39.13,4.55s-39.14-2-39.14-4.55,17.52-4.56,39.14-4.56S363.32,213.57,363.32,216.09Z" style="fill:#9a9a9a;opacity:0.8931216931194662"/><path d="M363.21,216.09c0,2.51-17.47,4.54-39,4.54s-39-2-39-4.54,17.47-4.54,39-4.54S363.21,213.58,363.21,216.09Z" style="fill:#999;opacity:0.8920634920609225"/><path d="M363.09,216.09c0,2.5-17.41,4.52-38.9,4.52s-38.91-2-38.91-4.52,17.42-4.53,38.91-4.53S363.09,213.59,363.09,216.09Z" style="fill:#989898;opacity:0.8910052910023789"/><path d="M363,216.09c0,2.49-17.37,4.51-38.79,4.51s-38.79-2-38.79-4.51,17.36-4.52,38.79-4.52S363,213.59,363,216.09Z" style="fill:#979797;opacity:0.8899470899438353"/><path d="M362.86,216.09c0,2.48-17.31,4.5-38.67,4.5s-38.68-2-38.68-4.5,17.32-4.5,38.68-4.5S362.86,213.6,362.86,216.09Z" style="fill:#969696;opacity:0.8888888888852917"/><path d="M362.75,216.09c0,2.48-17.27,4.48-38.56,4.48s-38.56-2-38.56-4.48,17.26-4.49,38.56-4.49S362.75,213.61,362.75,216.09Z" style="fill:#959595;opacity:0.8878306878267481"/><path d="M362.63,216.09c0,2.47-17.21,4.47-38.44,4.47s-38.44-2-38.44-4.47,17.21-4.48,38.44-4.48S362.63,213.62,362.63,216.09Z" style="fill:#949494;opacity:0.8867724867682045"/><path d="M362.52,216.09c0,2.46-17.16,4.46-38.33,4.46s-38.33-2-38.33-4.46,17.16-4.46,38.33-4.46S362.52,213.62,362.52,216.09Z" style="fill:#939393;opacity:0.8857142857096609"/><path d="M362.4,216.09c0,2.45-17.11,4.44-38.21,4.44s-38.21-2-38.21-4.44,17.1-4.45,38.21-4.45S362.4,213.63,362.4,216.09Z" style="fill:#929292;opacity:0.8846560846511172"/><path d="M362.28,216.09c0,2.45-17,4.43-38.09,4.43s-38.1-2-38.1-4.43,17.06-4.44,38.1-4.44S362.28,213.64,362.28,216.09Z" style="fill:#919191;opacity:0.8835978835925736"/><path d="M362.17,216.09c0,2.44-17,4.42-38,4.42s-38-2-38-4.42,17-4.42,38-4.42S362.17,213.65,362.17,216.09Z" style="fill:#909090;opacity:0.88253968253403"/><path d="M362.05,216.09c0,2.43-16.95,4.4-37.86,4.4s-37.87-2-37.87-4.4,16.95-4.41,37.87-4.41S362.05,213.65,362.05,216.09Z" style="fill:#8f8f8f;opacity:0.8814814814754863"/><path d="M361.94,216.09c0,2.42-16.9,4.39-37.75,4.39s-37.75-2-37.75-4.39,16.9-4.4,37.75-4.4S361.94,213.66,361.94,216.09Z" style="fill:#8e8e8e;opacity:0.8804232804169427"/><path d="M361.82,216.09c0,2.42-16.85,4.38-37.63,4.38s-37.64-2-37.64-4.38,16.85-4.38,37.64-4.38S361.82,213.67,361.82,216.09Z" style="fill:#8d8d8d;opacity:0.8793650793583991"/><path d="M361.71,216.09c0,2.41-16.8,4.36-37.52,4.36s-37.52-1.95-37.52-4.36,16.8-4.37,37.52-4.37S361.71,213.68,361.71,216.09Z" style="fill:#8c8c8c;opacity:0.8783068782998555"/><path d="M361.59,216.09c0,2.4-16.74,4.35-37.4,4.35s-37.4-1.95-37.4-4.35,16.74-4.35,37.4-4.35S361.59,213.68,361.59,216.09Z" style="fill:#8b8b8b;opacity:0.877248677241312"/><path d="M361.48,216.09c0,2.39-16.7,4.34-37.29,4.34s-37.29-2-37.29-4.34,16.69-4.34,37.29-4.34S361.48,213.69,361.48,216.09Z" style="fill:#8a8a8a;opacity:0.8761904761827684"/><path d="M361.36,216.09c0,2.39-16.64,4.32-37.17,4.32S287,218.48,287,216.09s16.64-4.33,37.17-4.33S361.36,213.7,361.36,216.09Z" style="fill:#898989;opacity:0.8751322751242248"/><path d="M361.24,216.09c0,2.38-16.59,4.31-37.05,4.31s-37.06-1.93-37.06-4.31,16.59-4.31,37.06-4.31S361.24,213.71,361.24,216.09Z" style="fill:#888;opacity:0.874074074065681"/><path d="M361.13,216.09c0,2.37-16.54,4.3-36.94,4.3s-36.94-1.93-36.94-4.3,16.54-4.3,36.94-4.3S361.13,213.71,361.13,216.09Z" style="fill:#878787;opacity:0.8730158730071375"/><path d="M361,216.09c0,2.37-16.48,4.28-36.82,4.28s-36.83-1.91-36.83-4.28,16.49-4.29,36.83-4.29S361,213.72,361,216.09Z" style="fill:#868686;opacity:0.8719576719485939"/><path d="M360.9,216.09c0,2.36-16.44,4.27-36.71,4.27s-36.71-1.91-36.71-4.27,16.43-4.27,36.71-4.27S360.9,213.73,360.9,216.09Z" style="fill:#858585;opacity:0.8708994708900503"/><path d="M360.78,216.09c0,2.35-16.38,4.26-36.59,4.26s-36.59-1.91-36.59-4.26,16.38-4.26,36.59-4.26S360.78,213.73,360.78,216.09Z" style="fill:#848484;opacity:0.8698412698315066"/><path d="M360.67,216.09c0,2.34-16.34,4.24-36.48,4.24s-36.48-1.9-36.48-4.24,16.33-4.25,36.48-4.25S360.67,213.74,360.67,216.09Z" style="fill:#838383;opacity:0.868783068772963"/><path d="M360.55,216.09c0,2.34-16.28,4.23-36.36,4.23s-36.36-1.89-36.36-4.23,16.27-4.23,36.36-4.23S360.55,213.75,360.55,216.09Z" style="fill:#828282;opacity:0.8677248677144194"/><path d="M360.44,216.09c0,2.33-16.23,4.22-36.25,4.22s-36.25-1.89-36.25-4.22,16.23-4.22,36.25-4.22S360.44,213.76,360.44,216.09Z" style="fill:#818181;opacity:0.8666666666558758"/><path d="M360.32,216.09c0,2.32-16.18,4.2-36.13,4.2s-36.13-1.88-36.13-4.2,16.17-4.21,36.13-4.21S360.32,213.76,360.32,216.09Z" style="fill:gray;opacity:0.8656084655973322"/><path d="M360.2,216.09c0,2.31-16.12,4.19-36,4.19s-36-1.88-36-4.19,16.13-4.19,36-4.19S360.2,213.77,360.2,216.09Z" style="fill:#7f7f7f;opacity:0.8645502645387885"/><path d="M360.09,216.09c0,2.31-16.07,4.18-35.9,4.18s-35.9-1.87-35.9-4.18,16.07-4.18,35.9-4.18S360.09,213.78,360.09,216.09Z" style="fill:#7e7e7e;opacity:0.8634920634802449"/><path d="M360,216.09c0,2.3-16,4.16-35.78,4.16s-35.79-1.86-35.79-4.16,16-4.17,35.79-4.17S360,213.79,360,216.09Z" style="fill:#7d7d7d;opacity:0.8624338624217013"/><path d="M359.86,216.09c0,2.29-16,4.15-35.67,4.15s-35.67-1.86-35.67-4.15,16-4.15,35.67-4.15S359.86,213.79,359.86,216.09Z" style="fill:#7c7c7c;opacity:0.8613756613631577"/><path d="M359.74,216.09c0,2.28-15.92,4.13-35.55,4.13s-35.55-1.85-35.55-4.13S304.55,212,324.19,212,359.74,213.8,359.74,216.09Z" style="fill:#7b7b7b;opacity:0.8603174603046141"/><path d="M359.63,216.09c0,2.28-15.87,4.12-35.44,4.12s-35.44-1.84-35.44-4.12S304.62,212,324.19,212,359.63,213.81,359.63,216.09Z" style="fill:#7a7a7a;opacity:0.8592592592460704"/><path d="M359.51,216.09c0,2.27-15.81,4.11-35.32,4.11s-35.32-1.84-35.32-4.11S304.68,212,324.19,212,359.51,213.82,359.51,216.09Z" style="fill:#797979;opacity:0.8582010581875268"/><path d="M359.39,216.09c0,2.26-15.76,4.09-35.2,4.09S289,218.35,289,216.09s15.76-4.1,35.21-4.1S359.39,213.82,359.39,216.09Z" style="fill:#787878;opacity:0.8571428571289832"/><path d="M359.28,216.09c0,2.25-15.71,4.08-35.09,4.08s-35.09-1.83-35.09-4.08S304.81,212,324.19,212,359.28,213.83,359.28,216.09Z" style="fill:#777;opacity:0.8560846560704396"/><path d="M359.16,216.09c0,2.25-15.66,4.07-35,4.07s-35-1.82-35-4.07,15.66-4.07,35-4.07S359.16,213.84,359.16,216.09Z" style="fill:#767676;opacity:0.855026455011896"/><path d="M359.05,216.09c0,2.24-15.61,4-34.86,4s-34.86-1.81-34.86-4,15.6-4.06,34.86-4.06S359.05,213.85,359.05,216.09Z" style="fill:#757575;opacity:0.8539682539533523"/><path d="M358.93,216.09c0,2.23-15.55,4-34.74,4s-34.75-1.81-34.75-4S305,212,324.19,212,358.93,213.85,358.93,216.09Z" style="fill:#747474;opacity:0.8529100528948087"/><path d="M358.82,216.09c0,2.22-15.51,4-34.63,4s-34.63-1.81-34.63-4,15.5-4,34.63-4S358.82,213.86,358.82,216.09Z" style="fill:#737373;opacity:0.8518518518362651"/><path d="M358.7,216.09c0,2.22-15.45,4-34.51,4s-34.51-1.79-34.51-4,15.45-4,34.51-4S358.7,213.87,358.7,216.09Z" style="fill:#727272;opacity:0.8507936507777215"/><path d="M358.59,216.09c0,2.21-15.4,4-34.4,4s-34.4-1.79-34.4-4,15.4-4,34.4-4S358.59,213.88,358.59,216.09Z" style="fill:#717171;opacity:0.8497354497191779"/><path d="M358.47,216.09c0,2.2-15.35,4-34.28,4s-34.28-1.79-34.28-4,15.34-4,34.28-4S358.47,213.88,358.47,216.09Z" style="fill:#707070;opacity:0.8486772486606343"/><path d="M358.35,216.09c0,2.19-15.29,4-34.16,4s-34.17-1.78-34.17-4,15.3-4,34.17-4S358.35,213.89,358.35,216.09Z" style="fill:#6f6f6f;opacity:0.8476190476020906"/><path d="M358.24,216.09c0,2.19-15.25,4-34.05,4s-34.05-1.77-34.05-4,15.24-4,34.05-4S358.24,213.9,358.24,216.09Z" style="fill:#6e6e6e;opacity:0.846560846543547"/><path d="M358.12,216.09c0,2.18-15.19,3.95-33.93,3.95s-33.94-1.77-33.94-3.95,15.2-4,33.94-4S358.12,213.91,358.12,216.09Z" style="fill:#6d6d6d;opacity:0.8455026454850034"/><path d="M358,216.09c0,2.17-15.14,3.93-33.82,3.93s-33.82-1.76-33.82-3.93,15.14-3.94,33.82-3.94S358,213.91,358,216.09Z" style="fill:#6c6c6c;opacity:0.8444444444264598"/><path d="M357.89,216.09c0,2.16-15.09,3.92-33.7,3.92s-33.7-1.76-33.7-3.92,15.08-3.92,33.7-3.92S357.89,213.92,357.89,216.09Z" style="fill:#6b6b6b;opacity:0.8433862433679162"/><path d="M357.78,216.09c0,2.16-15,3.91-33.59,3.91s-33.59-1.75-33.59-3.91,15-3.91,33.59-3.91S357.78,213.93,357.78,216.09Z" style="fill:#6a6a6a;opacity:0.8423280423093725"/><path d="M357.66,216.09c0,2.15-15,3.89-33.47,3.89s-33.47-1.74-33.47-3.89,15-3.9,33.47-3.9S357.66,213.94,357.66,216.09Z" style="fill:#696969;opacity:0.8412698412508289"/><path d="M357.55,216.09c0,2.14-14.94,3.88-33.36,3.88s-33.36-1.74-33.36-3.88,14.93-3.88,33.36-3.88S357.55,213.94,357.55,216.09Z" style="fill:#686868;opacity:0.8402116401922853"/><path d="M357.43,216.09c0,2.14-14.88,3.87-33.24,3.87S291,218.23,291,216.09s14.88-3.87,33.24-3.87S357.43,214,357.43,216.09Z" style="fill:#676767;opacity:0.8391534391337417"/><path d="M357.31,216.09c0,2.13-14.83,3.85-33.12,3.85s-33.13-1.72-33.13-3.85,14.83-3.86,33.13-3.86S357.31,214,357.31,216.09Z" style="fill:#666;opacity:0.8380952380751981"/><path d="M357.2,216.09c0,2.12-14.78,3.84-33,3.84s-33-1.72-33-3.84,14.78-3.84,33-3.84S357.2,214,357.2,216.09Z" style="fill:#656565;opacity:0.8370370370166544"/><path d="M357.08,216.09c0,2.11-14.72,3.83-32.89,3.83s-32.9-1.72-32.9-3.83,14.73-3.83,32.9-3.83S357.08,214,357.08,216.09Z" style="fill:#646464;opacity:0.8359788359581108"/><path d="M357,216.09c0,2.11-14.68,3.81-32.78,3.81s-32.78-1.7-32.78-3.81,14.67-3.82,32.78-3.82S357,214,357,216.09Z" style="fill:#636363;opacity:0.8349206348995672"/><path d="M356.85,216.09c0,2.1-14.62,3.8-32.66,3.8s-32.66-1.7-32.66-3.8,14.62-3.8,32.66-3.8S356.85,214,356.85,216.09Z" style="fill:#626262;opacity:0.8338624338410237"/><path d="M356.74,216.09c0,2.09-14.58,3.78-32.55,3.78s-32.55-1.69-32.55-3.78,14.57-3.79,32.55-3.79S356.74,214,356.74,216.09Z" style="fill:#616161;opacity:0.8328042327824801"/><path d="M356.62,216.09c0,2.08-14.52,3.77-32.43,3.77s-32.43-1.69-32.43-3.77,14.52-3.78,32.43-3.78S356.62,214,356.62,216.09Z" style="fill:#606060;opacity:0.8317460317239364"/><path d="M356.5,216.09c0,2.08-14.46,3.76-32.31,3.76s-32.32-1.68-32.32-3.76,14.47-3.76,32.32-3.76S356.5,214,356.5,216.09Z" style="fill:#5f5f5f;opacity:0.8306878306653928"/><path d="M356.39,216.09c0,2.07-14.42,3.74-32.2,3.74s-32.2-1.67-32.2-3.74,14.41-3.75,32.2-3.75S356.39,214,356.39,216.09Z" style="fill:#5e5e5e;opacity:0.8296296296068492"/><path d="M356.27,216.09c0,2.06-14.36,3.73-32.08,3.73s-32.09-1.67-32.09-3.73,14.37-3.74,32.09-3.74S356.27,214,356.27,216.09Z" style="fill:#5d5d5d;opacity:0.8285714285483056"/><path d="M356.16,216.09c0,2-14.32,3.72-32,3.72s-32-1.67-32-3.72,14.31-3.72,32-3.72S356.16,214,356.16,216.09Z" style="fill:#5c5c5c;opacity:0.827513227489762"/><path d="M356,216.09c0,2-14.26,3.7-31.85,3.7s-31.86-1.65-31.86-3.7,14.26-3.71,31.86-3.71S356,214,356,216.09Z" style="fill:#5b5b5b;opacity:0.8264550264312183"/><path d="M355.93,216.09c0,2-14.21,3.69-31.74,3.69s-31.74-1.65-31.74-3.69,14.21-3.7,31.74-3.7S355.93,214.05,355.93,216.09Z" style="fill:#5a5a5a;opacity:0.8253968253726747"/><path d="M355.81,216.09c0,2-14.16,3.68-31.62,3.68s-31.62-1.65-31.62-3.68,14.15-3.68,31.62-3.68S355.81,214.05,355.81,216.09Z" style="fill:#595959;opacity:0.8243386243141311"/><path d="M355.7,216.09c0,2-14.11,3.66-31.51,3.66s-31.51-1.64-31.51-3.66,14.11-3.67,31.51-3.67S355.7,214.06,355.7,216.09Z" style="fill:#585858;opacity:0.8232804232555875"/><path d="M355.58,216.09c0,2-14.05,3.65-31.39,3.65s-31.39-1.63-31.39-3.65,14.05-3.66,31.39-3.66S355.58,214.07,355.58,216.09Z" style="fill:#575757;opacity:0.8222222221970439"/><path d="M355.46,216.09c0,2-14,3.64-31.27,3.64s-31.28-1.63-31.28-3.64,14-3.64,31.28-3.64S355.46,214.08,355.46,216.09Z" style="fill:#565656;opacity:0.8211640211385002"/><path d="M355.35,216.09c0,2-14,3.62-31.16,3.62S293,218.09,293,216.09s14-3.63,31.16-3.63S355.35,214.08,355.35,216.09Z" style="fill:#555;opacity:0.8201058200799566"/><path d="M355.23,216.09c0,2-13.9,3.61-31,3.61s-31.05-1.62-31.05-3.61,13.9-3.61,31.05-3.61S355.23,214.09,355.23,216.09Z" style="fill:#545454;opacity:0.819047619021413"/><path d="M355.12,216.09c0,2-13.85,3.6-30.93,3.6s-30.93-1.61-30.93-3.6,13.84-3.6,30.93-3.6S355.12,214.1,355.12,216.09Z" style="fill:#535353;opacity:0.8179894179628694"/><path d="M355,216.09c0,2-13.79,3.58-30.81,3.58s-30.81-1.6-30.81-3.58,13.79-3.59,30.81-3.59S355,214.11,355,216.09Z" style="fill:#525252;opacity:0.8169312169043258"/><path d="M354.89,216.09c0,2-13.75,3.57-30.7,3.57s-30.7-1.6-30.7-3.57,13.74-3.57,30.7-3.57S354.89,214.11,354.89,216.09Z" style="fill:#515151;opacity:0.8158730158457821"/><path d="M354.77,216.09c0,2-13.69,3.56-30.58,3.56s-30.58-1.6-30.58-3.56,13.69-3.56,30.58-3.56S354.77,214.12,354.77,216.09Z" style="fill:#505050;opacity:0.8148148147872385"/><path d="M354.66,216.09c0,2-13.65,3.54-30.47,3.54s-30.47-1.58-30.47-3.54,13.64-3.55,30.47-3.55S354.66,214.13,354.66,216.09Z" style="fill:#4f4f4f;opacity:0.8137566137286949"/><path d="M354.54,216.09c0,1.95-13.59,3.53-30.35,3.53s-30.35-1.58-30.35-3.53,13.58-3.53,30.35-3.53S354.54,214.14,354.54,216.09Z" style="fill:#4e4e4e;opacity:0.8126984126701513"/><path d="M354.42,216.09c0,1.94-13.53,3.52-30.23,3.52S294,218,294,216.09s13.54-3.52,30.24-3.52S354.42,214.14,354.42,216.09Z" style="fill:#4d4d4d;opacity:0.8116402116116077"/><path d="M354.31,216.09c0,1.93-13.49,3.5-30.12,3.5s-30.12-1.57-30.12-3.5,13.48-3.51,30.12-3.51S354.31,214.15,354.31,216.09Z" style="fill:#4c4c4c;opacity:0.810582010553064"/><path d="M354.19,216.09c0,1.93-13.43,3.49-30,3.49s-30-1.56-30-3.49,13.44-3.49,30-3.49S354.19,214.16,354.19,216.09Z" style="fill:#4b4b4b;opacity:0.8095238094945204"/><path d="M354.08,216.09c0,1.92-13.38,3.48-29.89,3.48S294.3,218,294.3,216.09s13.38-3.48,29.89-3.48S354.08,214.17,354.08,216.09Z" style="fill:#4a4a4a;opacity:0.8084656084359768"/><path d="M354,216.09c0,1.91-13.33,3.46-29.77,3.46s-29.77-1.55-29.77-3.46,13.32-3.47,29.77-3.47S354,214.17,354,216.09Z" style="fill:#494949;opacity:0.8074074073774332"/><path d="M353.85,216.09c0,1.91-13.28,3.45-29.66,3.45s-29.66-1.54-29.66-3.45,13.28-3.45,29.66-3.45S353.85,214.18,353.85,216.09Z" style="fill:#484848;opacity:0.8063492063188896"/><path d="M353.73,216.09c0,1.9-13.23,3.44-29.54,3.44s-29.54-1.54-29.54-3.44,13.22-3.44,29.54-3.44S353.73,214.19,353.73,216.09Z" style="fill:#474747;opacity:0.8052910052603459"/><path d="M353.61,216.09c0,1.89-13.17,3.42-29.42,3.42s-29.43-1.53-29.43-3.42,13.17-3.43,29.43-3.43S353.61,214.2,353.61,216.09Z" style="fill:#464646;opacity:0.8042328042018023"/><path d="M353.5,216.09c0,1.88-13.12,3.41-29.31,3.41s-29.31-1.53-29.31-3.41,13.12-3.41,29.31-3.41S353.5,214.2,353.5,216.09Z" style="fill:#454545;opacity:0.8031746031432587"/><path d="M353.38,216.09c0,1.88-13.07,3.39-29.19,3.39S295,218,295,216.09s13.07-3.4,29.2-3.4S353.38,214.21,353.38,216.09Z" style="fill:#444;opacity:0.8021164020847151"/><path d="M353.27,216.09c0,1.87-13,3.38-29.08,3.38s-29.08-1.51-29.08-3.38,13-3.39,29.08-3.39S353.27,214.22,353.27,216.09Z" style="fill:#434343;opacity:0.8010582010261715"/><path d="M353.15,216.09c0,1.86-13,3.37-29,3.37s-29-1.51-29-3.37,13-3.37,29-3.37S353.15,214.22,353.15,216.09Z" style="fill:#424242;opacity:0.8"/></g><polygon points="259.11 60.62 260.8 49.91 264.57 50.52 263.08 63.9 264.73 73.95 262.71 82.12 251.72 83.12 250.07 77.57 247.94 66.39 249.31 61.94 259.11 60.62" style="fill:#e88e47"/><polygon points="264.73 73.95 263.84 68.55 263.4 69.26 256.08 70.99 255.42 76.62 262.24 82.07 263.05 80.75 264.73 73.95" style="fill:#ba7239"/><polygon points="262.24 83.15 268.44 73.06 268.89 65.37 268.53 61.33 265.96 61.51 265.8 66.55 263.4 70.34 257.04 72.08 255.42 77.7 262.24 83.15" style="fill:#e88e47"/><path d="M304,82.81s-40.41,50.35-55.19-1.4c3.8-.75,16.42-1,16.42-1,3.18,17.48,21.16,18.92,34.88.61Z" style="fill:url(#0a59e799-93a2-4d19-97ea-b187f641d5bf)"/><polygon points="259.11 60.62 249.31 61.94 247.94 66.39 248.19 67.69 251.91 74 261.04 70.47 259.11 60.62" style="fill:#ba7239"/><polygon points="259.91 69.09 259.16 60.3 259.11 60.62 249.31 61.94 247.94 66.39 252.37 72.69 259.91 69.09" style="fill:#e88e47"/><path d="M308.45,155.23l8.84,51.2-6.16-.36-3.81-26c-2-10.73-10.36-29.21-10.36-29.21Z" style="fill:#424242"/><path d="M323,155.86l6.62,52.63,5.81-2.35L332.42,180c-.88-10.91,0-27,0-27Z" style="fill:#424242"/><image width="51" height="129" transform="translate(293 29)" xlink:href="Asset 151.png"/><path d="M293.55,80c-.75,9.46-2.15,54.94-1.91,55.38l43.54,7.05c-.05-1.85,6.55-56.17,5.8-59.25l-22.71,7.1Z" style="fill:url(#bceb342a-7448-4b28-b526-afaef5df3d6a)"/><polygon points="303.28 49.12 316.39 49.66 316.44 45.66 302.5 46.24 303.28 49.12" style="opacity:0.12"/><polygon points="303.73 48.02 316.84 48.56 316.89 44.57 302.95 45.14 303.73 48.02" style="fill:#5f2900"/><polygon points="334.2 53.81 322.43 49.63 323.45 46.07 335.66 51.53 334.2 53.81" style="opacity:0.12"/><polygon points="333.62 52.71 321.85 48.53 322.88 44.98 335.08 50.44 333.62 52.71" style="fill:#5f2900"/><path d="M291.64,135.38s-.14,12.21,3.53,15.66,24.59,12.53,36.71,3c2.58-2.49,3.69-8.72,3.39-12.51Z" style="fill:#424242"/><path d="M313.21,56c-.2,2.08-1.3,3.65-2.46,3.5s-1.92-1.94-1.72-4,1.31-3.65,2.46-3.5S313.41,53.88,313.21,56Z" style="opacity:0.2"/><path d="M327,57.35c-.2,2.08-1.25,3.65-2.35,3.52s-1.81-1.93-1.61-4,1.26-3.66,2.35-3.52S327.24,55.27,327,57.35Z" style="opacity:0.2"/><path d="M312.5,55.25c-.17,1.73-.9,3.07-1.63,3s-1.18-1.57-1-3.31.9-3.07,1.63-3S312.67,53.51,312.5,55.25Z"/><path d="M326.49,56.72c-.17,1.74-.9,3.07-1.63,3s-1.18-1.57-1-3.31.9-3.07,1.63-3S326.66,55,326.49,56.72Z"/><path d="M311.59,205l-9.27,3.24s-7.34-1.3-8.86,3.32c-1,3-1.29,4.13-1.29,4.13,7.27,0,26.07-.14,26.07-.14.12-2.67-.68-9.84-.68-9.84Z" style="fill:#5f2900"/><path d="M335.3,205l9.28,3.24s7.34-1.3,8.86,3.32c1,3,1.29,4.13,1.29,4.13-7.27,0-26.07-.14-26.07-.14-.12-2.67.68-9.84.68-9.84Z" style="fill:#5f2900"/><polygon points="327.65 137.97 330.39 146.71 331.98 150.08 347.86 143.66 351.63 139.83 347.05 130.25 347.07 130.24 347.03 130.22 346.53 129.17 344.76 129.45 336.64 126.06 336.29 131.03 327.65 137.97" style="fill:#e88e47"/><path d="M347,130.25h0l0,0-.5-1.05-1.77.28-3.28-1.11c.56,1.72,3.81,11.52,5.61,15.63l.77-.31,2.05-2.08c.53-.74,1-1.46,1.52-2.18Z" style="opacity:0.35000000000000003"/><path d="M340.52,88.37c0,1.1-.13,2.71-.3,4.7,15.7,13,10.89,23.57,2.37,34.35,0,0,4.26,13,6.09,16.71C378.15,119.52,347.35,93.57,340.52,88.37Z" style="fill:url(#d248f9a8-65b4-4922-badf-9079757acbf3)"/><path d="M343.25,43.78a53.25,53.25,0,0,0-.82-10.72l-7.74-.35-1.31-.06-25.82-1.18-2.47-.11-9.27-.43a86.85,86.85,0,0,0-1.09,9.71c-.28,4.06-.51,8.92-.7,14.29,1.34-1.77,2-6.72,2.17-7.72.65-3.79,1.21-7.66,3.52-10.69,4.72-6.21,8-.62,12.27,2.86a21.63,21.63,0,0,0,14.55,5.22,22.42,22.42,0,0,0,7.62-1.7c1.41-.58,3.84-2.7,5.43-2.16,2.16.74,2.13,5.21,2.27,7.18.09,1.33-.37,6.36.8,7.21a1.39,1.39,0,0,0,.31.18C343.17,51.06,343.27,47.16,343.25,43.78Z" style="opacity:0.1"/><path d="M347,39.45a33,33,0,0,1-1,8.17c-.44,1.75-1.25,5.73-2.85,6.56-.87-1.73-.21-4-.34-5.91a17.44,17.44,0,0,0-1.12-6c-1.7-3.68-5-6.34-3.6-10.81,1-3.27,4.2-2.61,6.18-.61S346.94,36.47,347,39.45Z" style="fill:#5f2900"/><path d="M346.24,34.36a8.42,8.42,0,0,0-2-3.46,6.33,6.33,0,0,0-1.83-1.3,11.46,11.46,0,0,0-4.17,6.62c.82,2.07,2.4,3.9,3.42,6.1a17.44,17.44,0,0,1,1.12,6c.13,1.85-.49,4.09.29,5.8,1.75-2.91,1.39-8.83.79-11.45-.42-1.85-1.16-3.28-.42-5.18A6.41,6.41,0,0,1,346.24,34.36Z" style="fill:#361700"/><path d="M302.65,20a10,10,0,0,0-.75,8c1,2.69,3.51,3.32,5.68,4.44A29.25,29.25,0,0,1,314,36.76c2.11,1.9,4.23,4,6.88,4.84a23.54,23.54,0,0,0,12.38.35c10.2-2.25,17-19.36,10.58-29.51C344.6,18,341.48,19,338,21.52c3.55-4.5.82-13.22-4.16-15.79,6.25,15.62-9.88,12.56-17.74,11.44C311.68,16.54,305.44,15,302.65,20Z" style="fill:#5f2900"/><path d="M297.13,23.2a6.61,6.61,0,0,1,3.93.87,20.12,20.12,0,0,1,4.2,2.75c.81.77,2.66,3.24,2.35,4.58-.25,1-1.09.53-1.89.49a8.74,8.74,0,0,0-4.45.7c-4.46,2.43-5.67,9.11-6.41,14-.17,1.11-.13,2.61-.84,3.45-1.92-1.54-1.87-6.55-2.27-9-.83-5-1-12,2.14-16.09A4.64,4.64,0,0,1,297.13,23.2Z" style="fill:#5f2900"/><path d="M343.86,12.44a12.06,12.06,0,0,1,.1,1.93,17.12,17.12,0,0,1,.63,6.12,26.25,26.25,0,0,1-2.27,8.07c-1.55,3.27-3.71,6.75-6.89,8.23-3.64,1.7-6.76,2.52-10.68,1.49-3.67-1-6.68-3.1-10.13-4.83S308,28.66,304.12,29a7.21,7.21,0,0,0-1.52.31c1.21,1.63,3.21,2.22,5,3.13A29.25,29.25,0,0,1,314,36.76c2.11,1.9,4.23,4,6.88,4.84a23.54,23.54,0,0,0,12.38.35C343.48,39.7,352.22,21.27,343.86,12.44Z" style="fill:#361700"/><path d="M304.12,29A11.19,11.19,0,0,0,295.75,35c-2,4.49-1.24,9.39-1.29,14.17a18.41,18.41,0,0,0,.4-2.6c.74-4.91,1.95-11.59,6.41-14a8.74,8.74,0,0,1,4.45-.7c.8,0,1.64.54,1.89-.49a3.27,3.27,0,0,0-.49-2A7.6,7.6,0,0,0,304.12,29Z" style="fill:#361700"/><path d="M299.24,27.4c1.88-.14,2.63-1.88.7-2.83-2.11-1-4.42.39-5.53,2.42s-.69,3.5-.94,5.54C293.9,29.09,296.49,27.62,299.24,27.4Z" style="fill:#fff;opacity:0.2"/><path d="M328.62,29.45c-4,2-6.89.74-10.68-1.09-1.63-.79-3.24-1.38-4.89-2.21-3.16-1.58-6.27-3.31-9.75-1.53a7.11,7.11,0,0,1,2.56-5.57,6.64,6.64,0,0,1,4.46-1.51c2.53.13,5.36,2.46,7.75,1.07a5.24,5.24,0,0,1-4.44,1.78c-1.38-.15-3.61-1-4.49.71,3.12-1.8,8.27,3.18,11,4.44,4.06,1.9,8.62,3.59,12.39-.08C331.16,27.17,330.51,28.48,328.62,29.45Z" style="fill:#fff;opacity:0.2"/><path d="M300.37,61.08s19.34,12.2,34.89,2.2c.47,10.71-6.67,22.86-19.18,21.42C305.39,83.47,299.84,75.5,300.37,61.08Z" style="fill:#450800"/><path d="M306,80.22a16.61,16.61,0,0,0,10.08,4.48A15.25,15.25,0,0,0,327,82c-2.88-3.74-3.81-5-9.85-5.06C309.19,76.87,308.09,79,306,80.22Z" style="fill:#b20a00"/><path d="M300.37,61.08c0,1.05,0,2.05,0,3,3.48,2.54,18.55,12.28,34.67,3.58a24.25,24.25,0,0,0,.23-4.41C319.71,73.28,300.37,61.08,300.37,61.08Z" style="fill:#fff"/><path d="M300.37,61.08c0,1,0,2,0,2.9,1.82-2.31,7.42,3,17.7,4,10,1,15.87-3.91,17-.34a24.27,24.27,0,0,0,.22-4.33C319.71,73.28,300.37,61.08,300.37,61.08Z" style="fill:#c4c4c4"/><path d="M305.66,79.89a16.56,16.56,0,0,0,10.42,4.81,15.25,15.25,0,0,0,12.44-4C319,84.68,308,79.43,305.66,79.89Z" style="fill:#fff"/><polygon points="315.04 126.27 317.98 131.82 326.29 121.73 322 97.44 321.51 90.77 315.04 126.27" style="opacity:0.35000000000000003"/><polygon points="312.96 93.68 307.76 119.1 315.97 130.21 324.66 120.35 320.81 93.9 312.96 93.68" style="fill:#5f2900"/><polygon points="312.39 88.07 312.04 93.76 321.57 95.11 321.89 88.34 312.39 88.07" style="fill:#5f2900"/><polygon points="321.15 96.2 320.81 93.9 312.96 93.68 312.66 95.15 321.15 96.2" style="opacity:0.36"/><polygon points="311.61 89.08 311.27 94.26 322.5 95.65 322.79 89.47 311.61 89.08" style="fill:#5f2900"/><path d="M322.8,107.57,312.18,97.49,310.86,104l13,10.85Zm-13,1.75-.74,3.61,11.7,11.89,2.95-3.35Z" style="fill:#873a00"/><path d="M320.91,104.51a1.4,1.4,0,0,1-1.28,1.48l-9.28-.55a1.44,1.44,0,0,1-1.13-1.62h0a1.39,1.39,0,0,1,1.28-1.48l9.28.55a1.44,1.44,0,0,1,1.13,1.62Z" style="fill:#ffa81f"/><path d="M314.38,104.17c0,.53-.21,1-.41.94l-2.85-.16c-.2,0-.35-.46-.32-1h0c0-.54.21-1,.41-.95l2.85.17c.2,0,.35.45.32,1Z" style="fill:#fff"/></g></g></g></svg>