<?xml version="1.0" encoding="utf-8"?>
<!-- Generator: Adobe Illustrator 22.1.0, SVG Export Plug-In . SVG Version: 6.00 Build 0)  -->
<svg version="1.1" id="Layer_1" xmlns="http://www.w3.org/2000/svg" xmlns:xlink="http://www.w3.org/1999/xlink" x="0px" y="0px"
	 viewBox="0 0 375 222" style="enable-background:new 0 0 375 222;" xml:space="preserve">
<style type="text/css">
	.st0{fill:#013144;}
	.st1{fill:#FFFFFF;}
	.st2{font-family:'SegoeUI-BoldItalic';}
	.st3{font-size:20px;}
	.st4{opacity:0.8;}
	.st5{opacity:0.9989;fill:#FEFEFE;enable-background:new    ;}
	.st6{opacity:0.9979;fill:#FDFDFD;enable-background:new    ;}
	.st7{opacity:0.9968;fill:#FCFCFC;enable-background:new    ;}
	.st8{opacity:0.9958;fill:#FBFBFB;enable-background:new    ;}
	.st9{opacity:0.9947;fill:#FAFAFA;enable-background:new    ;}
	.st10{opacity:0.9937;fill:#F9F9F9;enable-background:new    ;}
	.st11{opacity:0.9926;fill:#F8F8F8;enable-background:new    ;}
	.st12{opacity:0.9915;fill:#F7F7F7;enable-background:new    ;}
	.st13{opacity:0.9905;fill:#F6F6F6;enable-background:new    ;}
	.st14{opacity:0.9894;fill:#F5F5F5;enable-background:new    ;}
	.st15{opacity:0.9884;fill:#F4F4F4;enable-background:new    ;}
	.st16{opacity:0.9873;fill:#F3F3F3;enable-background:new    ;}
	.st17{opacity:0.9862;fill:#F2F2F2;enable-background:new    ;}
	.st18{opacity:0.9852;fill:#F1F1F1;enable-background:new    ;}
	.st19{opacity:0.9841;fill:#F0F0F0;enable-background:new    ;}
	.st20{opacity:0.9831;fill:#EFEFEF;enable-background:new    ;}
	.st21{opacity:0.982;fill:#EEEEEE;enable-background:new    ;}
	.st22{opacity:0.981;fill:#EDEDED;enable-background:new    ;}
	.st23{opacity:0.9799;fill:#ECECEC;enable-background:new    ;}
	.st24{opacity:0.9788;fill:#EBEBEB;enable-background:new    ;}
	.st25{opacity:0.9778;fill:#EAEAEA;enable-background:new    ;}
	.st26{opacity:0.9767;fill:#E9E9E9;enable-background:new    ;}
	.st27{opacity:0.9757;fill:#E8E8E8;enable-background:new    ;}
	.st28{opacity:0.9746;fill:#E7E7E7;enable-background:new    ;}
	.st29{opacity:0.9735;fill:#E6E6E6;enable-background:new    ;}
	.st30{opacity:0.9725;fill:#E5E5E5;enable-background:new    ;}
	.st31{opacity:0.9714;fill:#E4E4E4;enable-background:new    ;}
	.st32{opacity:0.9704;fill:#E3E3E3;enable-background:new    ;}
	.st33{opacity:0.9693;fill:#E2E2E2;enable-background:new    ;}
	.st34{opacity:0.9683;fill:#E1E1E1;enable-background:new    ;}
	.st35{opacity:0.9672;fill:#E0E0E0;enable-background:new    ;}
	.st36{opacity:0.9661;fill:#DFDFDF;enable-background:new    ;}
	.st37{opacity:0.9651;fill:#DEDEDE;enable-background:new    ;}
	.st38{opacity:0.964;fill:#DDDDDD;enable-background:new    ;}
	.st39{opacity:0.963;fill:#DCDCDC;enable-background:new    ;}
	.st40{opacity:0.9619;fill:#DBDBDB;enable-background:new    ;}
	.st41{opacity:0.9608;fill:#DADADA;enable-background:new    ;}
	.st42{opacity:0.9598;fill:#D9D9D9;enable-background:new    ;}
	.st43{opacity:0.9587;fill:#D8D8D8;enable-background:new    ;}
	.st44{opacity:0.9577;fill:#D7D7D7;enable-background:new    ;}
	.st45{opacity:0.9566;fill:#D6D6D6;enable-background:new    ;}
	.st46{opacity:0.9556;fill:#D5D5D5;enable-background:new    ;}
	.st47{opacity:0.9545;fill:#D4D4D4;enable-background:new    ;}
	.st48{opacity:0.9534;fill:#D3D3D3;enable-background:new    ;}
	.st49{opacity:0.9524;fill:#D2D2D2;enable-background:new    ;}
	.st50{opacity:0.9513;fill:#D1D1D1;enable-background:new    ;}
	.st51{opacity:0.9503;fill:#D0D0D0;enable-background:new    ;}
	.st52{opacity:0.9492;fill:#CFCFCF;enable-background:new    ;}
	.st53{opacity:0.9481;fill:#CECECE;enable-background:new    ;}
	.st54{opacity:0.9471;fill:#CDCDCD;enable-background:new    ;}
	.st55{opacity:0.946;fill:#CCCCCC;enable-background:new    ;}
	.st56{opacity:0.945;fill:#CBCBCB;enable-background:new    ;}
	.st57{opacity:0.9439;fill:#CACACA;enable-background:new    ;}
	.st58{opacity:0.9429;fill:#C9C9C9;enable-background:new    ;}
	.st59{opacity:0.9418;fill:#C8C8C8;enable-background:new    ;}
	.st60{opacity:0.9407;fill:#C7C7C7;enable-background:new    ;}
	.st61{opacity:0.9397;fill:#C6C6C6;enable-background:new    ;}
	.st62{opacity:0.9386;fill:#C5C5C5;enable-background:new    ;}
	.st63{opacity:0.9376;fill:#C4C4C4;enable-background:new    ;}
	.st64{opacity:0.9365;fill:#C3C3C3;enable-background:new    ;}
	.st65{opacity:0.9354;fill:#C2C2C2;enable-background:new    ;}
	.st66{opacity:0.9344;fill:#C1C1C1;enable-background:new    ;}
	.st67{opacity:0.9333;fill:#C0C0C0;enable-background:new    ;}
	.st68{opacity:0.9323;fill:#BFBFBF;enable-background:new    ;}
	.st69{opacity:0.9312;fill:#BEBEBE;enable-background:new    ;}
	.st70{opacity:0.9302;fill:#BDBDBD;enable-background:new    ;}
	.st71{opacity:0.9291;fill:#BCBCBC;enable-background:new    ;}
	.st72{opacity:0.928;fill:#BBBBBB;enable-background:new    ;}
	.st73{opacity:0.927;fill:#BABABA;enable-background:new    ;}
	.st74{opacity:0.9259;fill:#B9B9B9;enable-background:new    ;}
	.st75{opacity:0.9249;fill:#B8B8B8;enable-background:new    ;}
	.st76{opacity:0.9238;fill:#B7B7B7;enable-background:new    ;}
	.st77{opacity:0.9228;fill:#B6B6B6;enable-background:new    ;}
	.st78{opacity:0.9217;fill:#B5B5B5;enable-background:new    ;}
	.st79{opacity:0.9206;fill:#B4B4B4;enable-background:new    ;}
	.st80{opacity:0.9196;fill:#B3B3B3;enable-background:new    ;}
	.st81{opacity:0.9185;fill:#B2B2B2;enable-background:new    ;}
	.st82{opacity:0.9175;fill:#B1B1B1;enable-background:new    ;}
	.st83{opacity:0.9164;fill:#B0B0B0;enable-background:new    ;}
	.st84{opacity:0.9153;fill:#AFAFAF;enable-background:new    ;}
	.st85{opacity:0.9143;fill:#AEAEAE;enable-background:new    ;}
	.st86{opacity:0.9132;fill:#ADADAD;enable-background:new    ;}
	.st87{opacity:0.9122;fill:#ACACAC;enable-background:new    ;}
	.st88{opacity:0.9111;fill:#ABABAB;enable-background:new    ;}
	.st89{opacity:0.9101;fill:#AAAAAA;enable-background:new    ;}
	.st90{opacity:0.909;fill:#A9A9A9;enable-background:new    ;}
	.st91{opacity:0.9079;fill:#A8A8A8;enable-background:new    ;}
	.st92{opacity:0.9069;fill:#A7A7A7;enable-background:new    ;}
	.st93{opacity:0.9058;fill:#A6A6A6;enable-background:new    ;}
	.st94{opacity:0.9048;fill:#A5A5A5;enable-background:new    ;}
	.st95{opacity:0.9037;fill:#A4A4A4;enable-background:new    ;}
	.st96{opacity:0.9026;fill:#A3A3A3;enable-background:new    ;}
	.st97{opacity:0.9016;fill:#A2A2A2;enable-background:new    ;}
	.st98{opacity:0.9005;fill:#A1A1A1;enable-background:new    ;}
	.st99{opacity:0.8995;fill:#A0A0A0;enable-background:new    ;}
	.st100{opacity:0.8984;fill:#9F9F9F;enable-background:new    ;}
	.st101{opacity:0.8974;fill:#9E9E9E;enable-background:new    ;}
	.st102{opacity:0.8963;fill:#9D9D9D;enable-background:new    ;}
	.st103{opacity:0.8952;fill:#9C9C9C;enable-background:new    ;}
	.st104{opacity:0.8942;fill:#9B9B9B;enable-background:new    ;}
	.st105{opacity:0.8931;fill:#9A9A9A;enable-background:new    ;}
	.st106{opacity:0.8921;fill:#999999;enable-background:new    ;}
	.st107{opacity:0.891;fill:#989898;enable-background:new    ;}
	.st108{opacity:0.8899;fill:#979797;enable-background:new    ;}
	.st109{opacity:0.8889;fill:#969696;enable-background:new    ;}
	.st110{opacity:0.8878;fill:#959595;enable-background:new    ;}
	.st111{opacity:0.8868;fill:#949494;enable-background:new    ;}
	.st112{opacity:0.8857;fill:#939393;enable-background:new    ;}
	.st113{opacity:0.8847;fill:#929292;enable-background:new    ;}
	.st114{opacity:0.8836;fill:#919191;enable-background:new    ;}
	.st115{opacity:0.8825;fill:#909090;enable-background:new    ;}
	.st116{opacity:0.8815;fill:#8F8F8F;enable-background:new    ;}
	.st117{opacity:0.8804;fill:#8E8E8E;enable-background:new    ;}
	.st118{opacity:0.8794;fill:#8D8D8D;enable-background:new    ;}
	.st119{opacity:0.8783;fill:#8C8C8C;enable-background:new    ;}
	.st120{opacity:0.8772;fill:#8B8B8B;enable-background:new    ;}
	.st121{opacity:0.8762;fill:#8A8A8A;enable-background:new    ;}
	.st122{opacity:0.8751;fill:#898989;enable-background:new    ;}
	.st123{opacity:0.8741;fill:#888888;enable-background:new    ;}
	.st124{opacity:0.873;fill:#878787;enable-background:new    ;}
	.st125{opacity:0.872;fill:#868686;enable-background:new    ;}
	.st126{opacity:0.8709;fill:#858585;enable-background:new    ;}
	.st127{opacity:0.8698;fill:#848484;enable-background:new    ;}
	.st128{opacity:0.8688;fill:#838383;enable-background:new    ;}
	.st129{opacity:0.8677;fill:#828282;enable-background:new    ;}
	.st130{opacity:0.8667;fill:#818181;enable-background:new    ;}
	.st131{opacity:0.8656;fill:#808080;enable-background:new    ;}
	.st132{opacity:0.8646;fill:#7F7F7F;enable-background:new    ;}
	.st133{opacity:0.8635;fill:#7E7E7E;enable-background:new    ;}
	.st134{opacity:0.8624;fill:#7D7D7D;enable-background:new    ;}
	.st135{opacity:0.8614;fill:#7C7C7C;enable-background:new    ;}
	.st136{opacity:0.8603;fill:#7B7B7B;enable-background:new    ;}
	.st137{opacity:0.8593;fill:#7A7A7A;enable-background:new    ;}
	.st138{opacity:0.8582;fill:#797979;enable-background:new    ;}
	.st139{opacity:0.8571;fill:#787878;enable-background:new    ;}
	.st140{opacity:0.8561;fill:#777777;enable-background:new    ;}
	.st141{opacity:0.855;fill:#767676;enable-background:new    ;}
	.st142{opacity:0.854;fill:#757575;enable-background:new    ;}
	.st143{opacity:0.8529;fill:#747474;enable-background:new    ;}
	.st144{opacity:0.8519;fill:#737373;enable-background:new    ;}
	.st145{opacity:0.8508;fill:#727272;enable-background:new    ;}
	.st146{opacity:0.8497;fill:#717171;enable-background:new    ;}
	.st147{opacity:0.8487;fill:#707070;enable-background:new    ;}
	.st148{opacity:0.8476;fill:#6F6F6F;enable-background:new    ;}
	.st149{opacity:0.8466;fill:#6E6E6E;enable-background:new    ;}
	.st150{opacity:0.8455;fill:#6D6D6D;enable-background:new    ;}
	.st151{opacity:0.8444;fill:#6C6C6C;enable-background:new    ;}
	.st152{opacity:0.8434;fill:#6B6B6B;enable-background:new    ;}
	.st153{opacity:0.8423;fill:#6A6A6A;enable-background:new    ;}
	.st154{opacity:0.8413;fill:#696969;enable-background:new    ;}
	.st155{opacity:0.8402;fill:#686868;enable-background:new    ;}
	.st156{opacity:0.8392;fill:#676767;enable-background:new    ;}
	.st157{opacity:0.8381;fill:#666666;enable-background:new    ;}
	.st158{opacity:0.837;fill:#656565;enable-background:new    ;}
	.st159{opacity:0.836;fill:#646464;enable-background:new    ;}
	.st160{opacity:0.8349;fill:#636363;enable-background:new    ;}
	.st161{opacity:0.8339;fill:#626262;enable-background:new    ;}
	.st162{opacity:0.8328;fill:#616161;enable-background:new    ;}
	.st163{opacity:0.8317;fill:#606060;enable-background:new    ;}
	.st164{opacity:0.8307;fill:#5F5F5F;enable-background:new    ;}
	.st165{opacity:0.8296;fill:#5E5E5E;enable-background:new    ;}
	.st166{opacity:0.8286;fill:#5D5D5D;enable-background:new    ;}
	.st167{opacity:0.8275;fill:#5C5C5C;enable-background:new    ;}
	.st168{opacity:0.8265;fill:#5B5B5B;enable-background:new    ;}
	.st169{opacity:0.8254;fill:#5A5A5A;enable-background:new    ;}
	.st170{opacity:0.8243;fill:#595959;enable-background:new    ;}
	.st171{opacity:0.8233;fill:#585858;enable-background:new    ;}
	.st172{opacity:0.8222;fill:#575757;enable-background:new    ;}
	.st173{opacity:0.8212;fill:#565656;enable-background:new    ;}
	.st174{opacity:0.8201;fill:#555555;enable-background:new    ;}
	.st175{opacity:0.819;fill:#545454;enable-background:new    ;}
	.st176{opacity:0.818;fill:#535353;enable-background:new    ;}
	.st177{opacity:0.8169;fill:#525252;enable-background:new    ;}
	.st178{opacity:0.8159;fill:#515151;enable-background:new    ;}
	.st179{opacity:0.8148;fill:#505050;enable-background:new    ;}
	.st180{opacity:0.8138;fill:#4F4F4F;enable-background:new    ;}
	.st181{opacity:0.8127;fill:#4E4E4E;enable-background:new    ;}
	.st182{opacity:0.8116;fill:#4D4D4D;enable-background:new    ;}
	.st183{opacity:0.8106;fill:#4C4C4C;enable-background:new    ;}
	.st184{opacity:0.8095;fill:#4B4B4B;enable-background:new    ;}
	.st185{opacity:0.8085;fill:#4A4A4A;enable-background:new    ;}
	.st186{opacity:0.8074;fill:#494949;enable-background:new    ;}
	.st187{opacity:0.8063;fill:#484848;enable-background:new    ;}
	.st188{opacity:0.8053;fill:#474747;enable-background:new    ;}
	.st189{opacity:0.8042;fill:#464646;enable-background:new    ;}
	.st190{opacity:0.8032;fill:#454545;enable-background:new    ;}
	.st191{opacity:0.8021;fill:#444444;enable-background:new    ;}
	.st192{opacity:0.8011;fill:#434343;enable-background:new    ;}
	.st193{opacity:0.8;fill:#424242;enable-background:new    ;}
	.st194{fill:#E88E47;}
	.st195{fill:#BA7239;}
	.st196{fill:url(#SVGID_1_);}
	.st197{fill:#424242;}
	.st198{fill:url(#SVGID_2_);}
	.st199{opacity:0.12;enable-background:new    ;}
	.st200{fill:#5F2900;}
	.st201{opacity:0.2;enable-background:new    ;}
	.st202{opacity:0.35;enable-background:new    ;}
	.st203{fill:url(#SVGID_3_);}
	.st204{opacity:0.1;enable-background:new    ;}
	.st205{fill:#361700;}
	.st206{opacity:0.2;fill:#FFFFFF;enable-background:new    ;}
	.st207{fill:#450800;}
	.st208{fill:#B20A00;}
	.st209{fill:#C4C4C4;}
	.st210{opacity:0.36;enable-background:new    ;}
	.st211{fill:#873A00;}
	.st212{fill:#FFA81F;}
</style>
<title>calendario12</title>
<g id="_x35_2c7560c-91dd-4d79-8286-51cc0667da6c">
	<g id="b83207ae-a068-4682-bf99-d699fb11fa15">
		<path class="st0" d="M13,8h261c6.6,0,12,5.4,12,12v2.8c0,22.7-18.4,41.2-41.2,41.2H13C6.4,64,1,58.6,1,52V20C1,13.4,6.4,8,13,8z"
			/>
		
			<image style="overflow:visible;enable-background:new    ;" width="300" height="300" xlink:href="../../../../../../../../Users/satch/OneDrive/Desktop/calendario-icono.png"  transform="matrix(0.22 0 0 0.22 -2 -1)">
		</image>
		<text transform="matrix(1 0 0 1 70.51 41.41)" class="st1 st2 st3">Calenda</text>
		<text transform="matrix(1 0 0 1 147.48 41.41)" class="st1 st2 st3">r</text>
		<text transform="matrix(1 0 0 1 155.5 41.41)" class="st1 st2 st3">io de e</text>
		<text transform="matrix(1 0 0 1 217 41.41)" class="st1 st2 st3">v</text>
		<text transform="matrix(1 0 0 1 227.47 41.41)" class="st1 st2 st3">en</text>
		<text transform="matrix(1 0 0 1 249.84 41.41)" class="st1 st2 st3">t</text>
		<text transform="matrix(1 0 0 1 257.3 41.41)" class="st1 st2 st3">os</text>
		<g class="st4">
			<path class="st1" d="M373,215.1c0,3.3-22.8,5.9-50.8,5.9s-50.8-2.6-50.8-5.9s22.8-5.9,50.8-5.9S373,211.8,373,215.1z"/>
			<path class="st5" d="M372.9,215.1c0,3.3-22.7,5.9-50.7,5.9s-50.7-2.6-50.7-5.9s22.7-5.9,50.7-5.9S372.9,211.8,372.9,215.1z"/>
			<path class="st6" d="M372.8,215.1c0,3.3-22.6,5.9-50.6,5.9s-50.6-2.6-50.6-5.9s22.6-5.9,50.6-5.9S372.8,211.8,372.8,215.1z"/>
			<path class="st7" d="M372.6,215.1c0,3.2-22.6,5.9-50.5,5.9s-50.5-2.6-50.5-5.9s22.6-5.9,50.5-5.9S372.6,211.8,372.6,215.1z"/>
			<path class="st8" d="M372.5,215.1c0,3.2-22.5,5.9-50.4,5.9s-50.4-2.6-50.4-5.9s22.5-5.9,50.4-5.9S372.5,211.9,372.5,215.1z"/>
			<path class="st9" d="M372.4,215.1c0,3.2-22.5,5.8-50.2,5.8s-50.2-2.6-50.2-5.8s22.5-5.9,50.2-5.9S372.4,211.9,372.4,215.1z"/>
			<path class="st10" d="M372.3,215.1c0,3.2-22.4,5.8-50.1,5.8s-50.1-2.6-50.1-5.8s22.4-5.8,50.1-5.8S372.3,211.9,372.3,215.1z"/>
			<path class="st11" d="M372.2,215.1c0,3.2-22.4,5.8-50,5.8s-50-2.6-50-5.8s22.4-5.8,50-5.8S372.2,211.9,372.2,215.1z"/>
			<path class="st12" d="M372.1,215.1c0,3.2-22.3,5.8-49.9,5.8s-49.9-2.6-49.9-5.8s22.3-5.8,49.9-5.8S372.1,211.9,372.1,215.1z"/>
			<path class="st13" d="M372,215.1c0,3.2-22.3,5.8-49.8,5.8s-49.8-2.6-49.8-5.8s22.3-5.8,49.8-5.8S372,211.9,372,215.1z"/>
			<path class="st14" d="M371.8,215.1c0,3.2-22.2,5.8-49.6,5.8s-49.7-2.6-49.7-5.8s22.2-5.8,49.7-5.8S371.8,211.9,371.8,215.1z"/>
			<path class="st15" d="M371.7,215.1c0,3.2-22.2,5.8-49.5,5.8s-49.5-2.6-49.5-5.8s22.2-5.8,49.5-5.8S371.7,211.9,371.7,215.1z"/>
			<path class="st16" d="M371.6,215.1c0,3.2-22.1,5.8-49.4,5.8s-49.4-2.6-49.4-5.8s22.1-5.8,49.4-5.8S371.6,211.9,371.6,215.1z"/>
			<path class="st17" d="M371.5,215.1c0,3.2-22.1,5.7-49.3,5.7s-49.3-2.6-49.3-5.7s22.1-5.7,49.3-5.7S371.5,211.9,371.5,215.1z"/>
			<path class="st18" d="M371.4,215.1c0,3.2-22,5.7-49.2,5.7s-49.2-2.6-49.2-5.7s22-5.7,49.2-5.7S371.4,211.9,371.4,215.1z"/>
			<path class="st19" d="M371.3,215.1c0,3.1-22,5.7-49.1,5.7s-49.1-2.6-49.1-5.7s22-5.7,49.1-5.7S371.3,211.9,371.3,215.1z"/>
			<path class="st20" d="M371.1,215.1c0,3.1-21.9,5.7-49,5.7s-49-2.6-49-5.7s21.9-5.7,49-5.7S371.1,211.9,371.1,215.1z"/>
			<path class="st21" d="M371,215.1c0,3.1-21.9,5.7-48.8,5.7s-48.9-2.5-48.9-5.7s21.9-5.7,48.9-5.7S371,212,371,215.1z"/>
			<path class="st22" d="M370.9,215.1c0,3.1-21.8,5.7-48.7,5.7s-48.7-2.5-48.7-5.7s21.8-5.7,48.7-5.7S370.9,212,370.9,215.1z"/>
			<path class="st23" d="M370.8,215.1c0,3.1-21.8,5.6-48.6,5.6s-48.6-2.5-48.6-5.6s21.8-5.7,48.6-5.7S370.8,212,370.8,215.1z"/>
			<path class="st24" d="M370.7,215.1c0,3.1-21.7,5.6-48.5,5.6s-48.5-2.5-48.5-5.6s21.7-5.6,48.5-5.6S370.7,212,370.7,215.1z"/>
			<path class="st25" d="M370.6,215.1c0,3.1-21.7,5.6-48.4,5.6s-48.4-2.5-48.4-5.6s21.7-5.6,48.4-5.6S370.6,212,370.6,215.1z"/>
			<path class="st26" d="M370.5,215.1c0,3.1-21.6,5.6-48.3,5.6s-48.3-2.5-48.3-5.6s21.6-5.6,48.3-5.6S370.5,212,370.5,215.1z"/>
			<path class="st27" d="M370.3,215.1c0,3.1-21.6,5.6-48.1,5.6s-48.2-2.5-48.2-5.6s21.6-5.6,48.2-5.6S370.3,212,370.3,215.1z"/>
			<path class="st28" d="M370.2,215.1c0,3.1-21.5,5.6-48,5.6s-48-2.5-48-5.6s21.5-5.6,48-5.6S370.2,212,370.2,215.1z"/>
			<path class="st29" d="M370.1,215.1c0,3.1-21.5,5.6-47.9,5.6s-47.9-2.5-47.9-5.6s21.5-5.6,47.9-5.6S370.1,212,370.1,215.1z"/>
			<path class="st30" d="M370,215.1c0,3.1-21.4,5.6-47.8,5.6s-47.8-2.5-47.8-5.6s21.4-5.6,47.8-5.6S370,212,370,215.1z"/>
			<path class="st31" d="M369.9,215.1c0,3.1-21.4,5.6-47.7,5.6s-47.7-2.5-47.7-5.6s21.4-5.6,47.7-5.6S369.9,212,369.9,215.1z"/>
			<path class="st32" d="M369.8,215.1c0,3.1-21.3,5.5-47.6,5.5s-47.6-2.5-47.6-5.5s21.3-5.5,47.6-5.5S369.8,212,369.8,215.1z"/>
			<path class="st33" d="M369.6,215.1c0,3-21.3,5.5-47.5,5.5s-47.5-2.5-47.5-5.5s21.3-5.5,47.5-5.5S369.6,212,369.6,215.1z"/>
			<path class="st34" d="M369.5,215.1c0,3-21.2,5.5-47.3,5.5s-47.4-2.5-47.4-5.5s21.2-5.5,47.4-5.5S369.5,212,369.5,215.1z"/>
			<path class="st35" d="M369.4,215.1c0,3-21.1,5.5-47.2,5.5s-47.2-2.5-47.2-5.5s21.1-5.5,47.2-5.5S369.4,212.1,369.4,215.1z"/>
			<path class="st36" d="M369.3,215.1c0,3-21.1,5.5-47.1,5.5s-47.1-2.4-47.1-5.5s21.1-5.5,47.1-5.5S369.3,212.1,369.3,215.1z"/>
			<path class="st37" d="M369.2,215.1c0,3-21,5.5-47,5.5s-47-2.4-47-5.5s21-5.5,47-5.5S369.2,212.1,369.2,215.1z"/>
			<path class="st38" d="M369.1,215.1c0,3-21,5.4-46.9,5.4s-46.9-2.4-46.9-5.4s21-5.5,46.9-5.5S369.1,212.1,369.1,215.1z"/>
			<path class="st39" d="M369,215.1c0,3-20.9,5.4-46.8,5.4s-46.8-2.4-46.8-5.4s20.9-5.4,46.8-5.4S369,212.1,369,215.1z"/>
			<path class="st40" d="M368.8,215.1c0,3-20.9,5.4-46.6,5.4s-46.6-2.4-46.6-5.4s20.9-5.4,46.6-5.4S368.8,212.1,368.8,215.1z"/>
			<path class="st41" d="M368.7,215.1c0,3-20.8,5.4-46.5,5.4s-46.5-2.4-46.5-5.4s20.8-5.4,46.5-5.4S368.7,212.1,368.7,215.1z"/>
			<path class="st42" d="M368.6,215.1c0,3-20.8,5.4-46.4,5.4s-46.4-2.4-46.4-5.4s20.8-5.4,46.4-5.4S368.6,212.1,368.6,215.1z"/>
			<path class="st43" d="M368.5,215.1c0,3-20.7,5.4-46.3,5.4s-46.3-2.4-46.3-5.4s20.7-5.4,46.3-5.4S368.5,212.1,368.5,215.1z"/>
			<path class="st44" d="M368.4,215.1c0,3-20.7,5.4-46.2,5.4s-46.2-2.4-46.2-5.4s20.7-5.4,46.2-5.4S368.4,212.1,368.4,215.1z"/>
			<path class="st45" d="M368.3,215.1c0,3-20.6,5.4-46.1,5.4s-46.1-2.4-46.1-5.4s20.6-5.4,46.1-5.4S368.3,212.1,368.3,215.1z"/>
			<path class="st46" d="M368.1,215.1c0,2.9-20.6,5.4-46,5.4s-46-2.4-46-5.4s20.6-5.4,46-5.4S368.1,212.1,368.1,215.1z"/>
			<path class="st47" d="M368,215.1c0,2.9-20.5,5.3-45.8,5.3s-45.8-2.4-45.8-5.3s20.5-5.3,45.8-5.3S368,212.1,368,215.1z"/>
			<path class="st48" d="M367.9,215.1c0,2.9-20.5,5.3-45.7,5.3s-45.7-2.4-45.7-5.3s20.5-5.3,45.7-5.3S367.9,212.1,367.9,215.1z"/>
			<path class="st49" d="M367.8,215.1c0,2.9-20.4,5.3-45.6,5.3s-45.6-2.4-45.6-5.3s20.4-5.3,45.6-5.3S367.8,212.2,367.8,215.1z"/>
			<path class="st50" d="M367.7,215.1c0,2.9-20.4,5.3-45.5,5.3s-45.5-2.4-45.5-5.3s20.4-5.3,45.5-5.3S367.7,212.2,367.7,215.1z"/>
			<path class="st51" d="M367.6,215.1c0,2.9-20.3,5.3-45.4,5.3s-45.4-2.4-45.4-5.3s20.3-5.3,45.4-5.3S367.6,212.2,367.6,215.1z"/>
			<path class="st52" d="M367.5,215.1c0,2.9-20.3,5.3-45.3,5.3s-45.3-2.4-45.3-5.3s20.3-5.3,45.3-5.3S367.5,212.2,367.5,215.1z"/>
			<path class="st53" d="M367.3,215.1c0,2.9-20.2,5.3-45.1,5.3S277,218,277,215.1s20.2-5.3,45.1-5.3S367.3,212.2,367.3,215.1z"/>
			<path class="st54" d="M367.2,215.1c0,2.9-20.2,5.2-45,5.2s-45-2.4-45-5.2s20.2-5.2,45-5.2S367.2,212.2,367.2,215.1z"/>
			<path class="st55" d="M367.1,215.1c0,2.9-20.1,5.2-44.9,5.2s-44.9-2.3-44.9-5.2s20.1-5.2,44.9-5.2S367.1,212.2,367.1,215.1z"/>
			<path class="st56" d="M367,215.1c0,2.9-20.1,5.2-44.8,5.2s-44.8-2.3-44.8-5.2s20-5.2,44.8-5.2S367,212.2,367,215.1z"/>
			<path class="st57" d="M366.9,215.1c0,2.9-20,5.2-44.7,5.2s-44.7-2.3-44.7-5.2s20-5.2,44.7-5.2S366.9,212.2,366.9,215.1z"/>
			<path class="st58" d="M366.8,215.1c0,2.9-20,5.2-44.6,5.2s-44.6-2.3-44.6-5.2s20-5.2,44.6-5.2S366.8,212.2,366.8,215.1z"/>
			<path class="st59" d="M366.6,215.1c0,2.9-19.9,5.2-44.5,5.2s-44.5-2.3-44.5-5.2s19.9-5.2,44.5-5.2S366.6,212.2,366.6,215.1z"/>
			<path class="st60" d="M366.5,215.1c0,2.9-19.9,5.2-44.3,5.2s-44.3-2.3-44.3-5.2s19.9-5.2,44.3-5.2S366.5,212.2,366.5,215.1z"/>
			<path class="st61" d="M366.4,215.1c0,2.8-19.8,5.1-44.2,5.1s-44.2-2.3-44.2-5.1s19.8-5.1,44.2-5.1S366.4,212.2,366.4,215.1z"/>
			<path class="st62" d="M366.3,215.1c0,2.8-19.8,5.1-44.1,5.1s-44.1-2.3-44.1-5.1s19.7-5.1,44.1-5.1S366.3,212.3,366.3,215.1z"/>
			<path class="st63" d="M366.2,215.1c0,2.8-19.7,5.1-44,5.1s-44-2.3-44-5.1s19.7-5.1,44-5.1S366.2,212.3,366.2,215.1z"/>
			<path class="st64" d="M366.1,215.1c0,2.8-19.6,5.1-43.9,5.1s-43.9-2.3-43.9-5.1s19.7-5.1,43.9-5.1S366.1,212.3,366.1,215.1z"/>
			<path class="st65" d="M366,215.1c0,2.8-19.6,5.1-43.8,5.1s-43.8-2.3-43.8-5.1s19.5-5.1,43.7-5.1S366,212.3,366,215.1z"/>
			<path class="st66" d="M365.8,215.1c0,2.8-19.5,5.1-43.6,5.1s-43.6-2.3-43.6-5.1s19.5-5.1,43.6-5.1S365.8,212.3,365.8,215.1z"/>
			<path class="st67" d="M365.7,215.1c0,2.8-19.5,5.1-43.5,5.1s-43.5-2.3-43.5-5.1s19.5-5.1,43.5-5.1S365.7,212.3,365.7,215.1z"/>
			<path class="st68" d="M365.6,215.1c0,2.8-19.4,5-43.4,5s-43.4-2.3-43.4-5s19.4-5.1,43.4-5.1S365.6,212.3,365.6,215.1z"/>
			<path class="st69" d="M365.5,215.1c0,2.8-19.4,5-43.3,5s-43.3-2.3-43.3-5s19.4-5,43.3-5S365.5,212.3,365.5,215.1z"/>
			<path class="st70" d="M365.4,215.1c0,2.8-19.3,5-43.2,5s-43.2-2.3-43.2-5s19.3-5,43.2-5S365.4,212.3,365.4,215.1z"/>
			<path class="st71" d="M365.3,215.1c0,2.8-19.3,5-43.1,5s-43.1-2.2-43.1-5s19.3-5,43.1-5S365.3,212.3,365.3,215.1z"/>
			<path class="st72" d="M365.1,215.1c0,2.8-19.2,5-43,5s-43-2.2-43-5s19.2-5,43-5S365.1,212.3,365.1,215.1z"/>
			<path class="st73" d="M365,215.1c0,2.8-19.2,5-42.8,5s-42.8-2.2-42.8-5s19.2-5,42.8-5S365,212.3,365,215.1z"/>
			<path class="st74" d="M364.9,215.1c0,2.7-19.1,5-42.7,5s-42.7-2.2-42.7-5s19.1-5,42.7-5S364.9,212.3,364.9,215.1z"/>
			<path class="st75" d="M364.8,215.1c0,2.7-19.1,5-42.6,5s-42.6-2.2-42.6-5s19.1-5,42.6-5S364.8,212.4,364.8,215.1z"/>
			<path class="st76" d="M364.7,215.1c0,2.7-19,4.9-42.5,4.9s-42.5-2.2-42.5-4.9s19-5,42.5-5S364.7,212.4,364.7,215.1z"/>
			<path class="st77" d="M364.6,215.1c0,2.7-19,4.9-42.4,4.9s-42.4-2.2-42.4-4.9s19-4.9,42.4-4.9S364.6,212.4,364.6,215.1z"/>
			<path class="st78" d="M364.5,215.1c0,2.7-18.9,4.9-42.3,4.9s-42.3-2.2-42.3-4.9s18.9-4.9,42.3-4.9S364.5,212.4,364.5,215.1z"/>
			<path class="st79" d="M364.3,215.1c0,2.7-18.9,4.9-42.1,4.9s-42.1-2.2-42.1-4.9s18.9-4.9,42.1-4.9S364.3,212.4,364.3,215.1z"/>
			<path class="st80" d="M364.2,215.1c0,2.7-18.8,4.9-42,4.9s-42-2.2-42-4.9s18.8-4.9,42-4.9S364.2,212.4,364.2,215.1z"/>
			<path class="st81" d="M364.1,215.1c0,2.7-18.8,4.9-41.9,4.9s-41.9-2.2-41.9-4.9s18.8-4.9,41.9-4.9S364.1,212.4,364.1,215.1z"/>
			<path class="st82" d="M364,215.1c0,2.7-18.7,4.9-41.8,4.9s-41.8-2.2-41.8-4.9s18.7-4.9,41.8-4.9S364,212.4,364,215.1z"/>
			<path class="st83" d="M363.9,215.1c0,2.7-18.7,4.9-41.7,4.9s-41.7-2.2-41.7-4.9s18.7-4.9,41.7-4.9S363.9,212.4,363.9,215.1z"/>
			<path class="st84" d="M363.8,215.1c0,2.7-18.6,4.8-41.6,4.8s-41.6-2.2-41.6-4.8s18.6-4.8,41.6-4.8S363.8,212.4,363.8,215.1z"/>
			<path class="st85" d="M363.6,215.1c0,2.7-18.6,4.8-41.5,4.8s-41.5-2.2-41.5-4.8s18.6-4.8,41.5-4.8S363.6,212.4,363.6,215.1z"/>
			<path class="st86" d="M363.5,215.1c0,2.6-18.5,4.8-41.3,4.8s-41.3-2.2-41.3-4.8s18.5-4.8,41.3-4.8S363.5,212.4,363.5,215.1z"/>
			<path class="st87" d="M363.4,215.1c0,2.6-18.5,4.8-41.2,4.8s-41.2-2.1-41.2-4.8s18.5-4.8,41.2-4.8S363.4,212.4,363.4,215.1z"/>
			<path class="st88" d="M363.3,215.1c0,2.6-18.4,4.8-41.1,4.8s-41.1-2.1-41.1-4.8s18.4-4.8,41.1-4.8S363.3,212.4,363.3,215.1z"/>
			<path class="st89" d="M363.2,215.1c0,2.6-18.4,4.8-41,4.8s-41-2.1-41-4.8s18.4-4.8,41-4.8S363.2,212.4,363.2,215.1z"/>
			<path class="st90" d="M363.1,215.1c0,2.6-18.3,4.8-40.9,4.8s-40.9-2.1-40.9-4.8s18.3-4.8,40.9-4.8S363.1,212.5,363.1,215.1z"/>
			<path class="st91" d="M362.9,215.1c0,2.6-18.2,4.7-40.8,4.7s-40.8-2.1-40.8-4.7s18.3-4.7,40.8-4.7S362.9,212.5,362.9,215.1z"/>
			<path class="st92" d="M362.8,215.1c0,2.6-18.2,4.7-40.6,4.7s-40.6-2.1-40.6-4.7s18.2-4.7,40.6-4.7S362.8,212.5,362.8,215.1z"/>
			<path class="st93" d="M362.7,215.1c0,2.6-18.1,4.7-40.5,4.7s-40.5-2.1-40.5-4.7s18.1-4.7,40.5-4.7S362.7,212.5,362.7,215.1z"/>
			<path class="st94" d="M362.6,215.1c0,2.6-18.1,4.7-40.4,4.7s-40.4-2.1-40.4-4.7s18.1-4.7,40.4-4.7S362.6,212.5,362.6,215.1z"/>
			<path class="st95" d="M362.5,215.1c0,2.6-18,4.7-40.3,4.7s-40.3-2.1-40.3-4.7s18-4.7,40.3-4.7S362.5,212.5,362.5,215.1z"/>
			<path class="st96" d="M362.4,215.1c0,2.6-18,4.7-40.2,4.7s-40.2-2.1-40.2-4.7s18-4.7,40.2-4.7S362.4,212.5,362.4,215.1z"/>
			<path class="st97" d="M362.3,215.1c0,2.6-17.9,4.7-40.1,4.7s-40.1-2.1-40.1-4.7s17.9-4.7,40.1-4.7S362.3,212.5,362.3,215.1z"/>
			<path class="st98" d="M362.1,215.1c0,2.6-17.9,4.6-39.9,4.6s-40-2.1-40-4.6s17.9-4.6,40-4.6S362.1,212.5,362.1,215.1z"/>
			<path class="st99" d="M362,215.1c0,2.6-17.8,4.6-39.8,4.6s-39.8-2.1-39.8-4.6s17.8-4.6,39.8-4.6S362,212.5,362,215.1z"/>
			<path class="st100" d="M361.9,215.1c0,2.6-17.8,4.6-39.7,4.6s-39.7-2.1-39.7-4.6s17.8-4.6,39.7-4.6S361.9,212.5,361.9,215.1z"/>
			<path class="st101" d="M361.8,215.1c0,2.5-17.7,4.6-39.6,4.6s-39.6-2.1-39.6-4.6s17.7-4.6,39.6-4.6S361.8,212.5,361.8,215.1z"/>
			<path class="st102" d="M361.7,215.1c0,2.5-17.7,4.6-39.5,4.6s-39.5-2.1-39.5-4.6s17.7-4.6,39.5-4.6S361.7,212.6,361.7,215.1z"/>
			<path class="st103" d="M361.6,215.1c0,2.5-17.6,4.6-39.4,4.6s-39.4-2-39.4-4.6s17.6-4.6,39.4-4.6S361.6,212.6,361.6,215.1z"/>
			<path class="st104" d="M361.4,215.1c0,2.5-17.6,4.6-39.3,4.6s-39.3-2-39.3-4.6s17.6-4.6,39.3-4.6S361.4,212.6,361.4,215.1z"/>
			<path class="st105" d="M361.3,215.1c0,2.5-17.5,4.6-39.1,4.6s-39.1-2-39.1-4.6s17.5-4.6,39.1-4.6S361.3,212.6,361.3,215.1z"/>
			<path class="st106" d="M361.2,215.1c0,2.5-17.5,4.5-39,4.5s-39-2-39-4.5s17.5-4.5,39-4.5S361.2,212.6,361.2,215.1z"/>
			<path class="st107" d="M361.1,215.1c0,2.5-17.4,4.5-38.9,4.5s-38.9-2-38.9-4.5s17.4-4.5,38.9-4.5S361.1,212.6,361.1,215.1z"/>
			<path class="st108" d="M361,215.1c0,2.5-17.4,4.5-38.8,4.5s-38.8-2-38.8-4.5s17.4-4.5,38.8-4.5S361,212.6,361,215.1z"/>
			<path class="st109" d="M360.9,215.1c0,2.5-17.3,4.5-38.7,4.5s-38.7-2-38.7-4.5s17.3-4.5,38.7-4.5S360.9,212.6,360.9,215.1z"/>
			<path class="st110" d="M360.8,215.1c0,2.5-17.3,4.5-38.6,4.5s-38.6-2-38.6-4.5s17.3-4.5,38.6-4.5S360.8,212.6,360.8,215.1z"/>
			<path class="st111" d="M360.6,215.1c0,2.5-17.2,4.5-38.4,4.5s-38.4-2-38.4-4.5s17.2-4.5,38.4-4.5S360.6,212.6,360.6,215.1z"/>
			<path class="st112" d="M360.5,215.1c0,2.5-17.2,4.5-38.3,4.5s-38.3-2-38.3-4.5s17.2-4.5,38.3-4.5S360.5,212.6,360.5,215.1z"/>
			<path class="st113" d="M360.4,215.1c0,2.4-17.1,4.4-38.2,4.4s-38.2-2-38.2-4.4s17.1-4.4,38.2-4.4S360.4,212.6,360.4,215.1z"/>
			<path class="st114" d="M360.3,215.1c0,2.4-17,4.4-38.1,4.4s-38.1-2-38.1-4.4s17.1-4.4,38.1-4.4S360.3,212.6,360.3,215.1z"/>
			<path class="st115" d="M360.2,215.1c0,2.4-17,4.4-38,4.4s-38-2-38-4.4s17-4.4,38-4.4S360.2,212.6,360.2,215.1z"/>
			<path class="st116" d="M360,215.1c0,2.4-17,4.4-37.9,4.4s-37.9-2-37.9-4.4s17-4.4,37.9-4.4S360,212.6,360,215.1z"/>
			<path class="st117" d="M359.9,215.1c0,2.4-16.9,4.4-37.8,4.4s-37.8-2-37.8-4.4s16.9-4.4,37.8-4.4S359.9,212.7,359.9,215.1z"/>
			<path class="st118" d="M359.8,215.1c0,2.4-16.9,4.4-37.6,4.4s-37.6-2-37.6-4.4s16.9-4.4,37.6-4.4S359.8,212.7,359.8,215.1z"/>
			<path class="st119" d="M359.7,215.1c0,2.4-16.8,4.4-37.5,4.4s-37.5-1.9-37.5-4.4s16.8-4.4,37.5-4.4S359.7,212.7,359.7,215.1z"/>
			<path class="st120" d="M359.6,215.1c0,2.4-16.7,4.4-37.4,4.4s-37.4-1.9-37.4-4.4s16.7-4.4,37.4-4.4S359.6,212.7,359.6,215.1z"/>
			<path class="st121" d="M359.5,215.1c0,2.4-16.7,4.3-37.3,4.3s-37.3-2-37.3-4.3s16.7-4.3,37.3-4.3S359.5,212.7,359.5,215.1z"/>
			<path class="st122" d="M359.4,215.1c0,2.4-16.6,4.3-37.2,4.3s-37.2-1.9-37.2-4.3s16.6-4.3,37.2-4.3S359.4,212.7,359.4,215.1z"/>
			<path class="st123" d="M359.2,215.1c0,2.4-16.6,4.3-37,4.3s-37.1-1.9-37.1-4.3s16.6-4.3,37.1-4.3S359.2,212.7,359.2,215.1z"/>
			<path class="st124" d="M359.1,215.1c0,2.4-16.5,4.3-36.9,4.3s-36.9-1.9-36.9-4.3s16.5-4.3,36.9-4.3S359.1,212.7,359.1,215.1z"/>
			<path class="st125" d="M359,215.1c0,2.4-16.5,4.3-36.8,4.3s-36.8-1.9-36.8-4.3s16.5-4.3,36.8-4.3S359,212.7,359,215.1z"/>
			<path class="st126" d="M358.9,215.1c0,2.4-16.4,4.3-36.7,4.3s-36.7-1.9-36.7-4.3s16.4-4.3,36.7-4.3S358.9,212.7,358.9,215.1z"/>
			<path class="st127" d="M358.8,215.1c0,2.4-16.4,4.3-36.6,4.3s-36.6-1.9-36.6-4.3s16.4-4.3,36.6-4.3S358.8,212.7,358.8,215.1z"/>
			<path class="st128" d="M358.7,215.1c0,2.3-16.3,4.2-36.5,4.2s-36.5-1.9-36.5-4.2s16.3-4.3,36.5-4.3S358.7,212.7,358.7,215.1z"/>
			<path class="st129" d="M358.5,215.1c0,2.3-16.3,4.2-36.4,4.2s-36.4-1.9-36.4-4.2s16.3-4.2,36.4-4.2S358.5,212.8,358.5,215.1z"/>
			<path class="st130" d="M358.4,215.1c0,2.3-16.2,4.2-36.3,4.2s-36.3-1.9-36.3-4.2s16.2-4.2,36.3-4.2S358.4,212.8,358.4,215.1z"/>
			<path class="st131" d="M358.3,215.1c0,2.3-16.2,4.2-36.1,4.2s-36.1-1.9-36.1-4.2s16.2-4.2,36.1-4.2S358.3,212.8,358.3,215.1z"/>
			<path class="st132" d="M358.2,215.1c0,2.3-16.1,4.2-36,4.2s-36-1.9-36-4.2s16.1-4.2,36-4.2S358.2,212.8,358.2,215.1z"/>
			<path class="st133" d="M358.1,215.1c0,2.3-16.1,4.2-35.9,4.2s-35.9-1.9-35.9-4.2s16.1-4.2,35.9-4.2S358.1,212.8,358.1,215.1z"/>
			<path class="st134" d="M358,215.1c0,2.3-16,4.2-35.8,4.2s-35.8-1.9-35.8-4.2s16-4.2,35.8-4.2S358,212.8,358,215.1z"/>
			<path class="st135" d="M357.9,215.1c0,2.3-16,4.1-35.7,4.1s-35.7-1.9-35.7-4.1s16-4.1,35.7-4.1S357.9,212.8,357.9,215.1z"/>
			<path class="st136" d="M357.7,215.1c0,2.3-15.9,4.1-35.5,4.1s-35.5-1.9-35.5-4.1s15.9-4.1,35.5-4.1S357.7,212.8,357.7,215.1z"/>
			<path class="st137" d="M357.6,215.1c0,2.3-15.9,4.1-35.4,4.1s-35.4-1.8-35.4-4.1s15.9-4.1,35.4-4.1S357.6,212.8,357.6,215.1z"/>
			<path class="st138" d="M357.5,215.1c0,2.3-15.8,4.1-35.3,4.1s-35.3-1.8-35.3-4.1s15.8-4.1,35.3-4.1S357.5,212.8,357.5,215.1z"/>
			<path class="st139" d="M357.4,215.1c0,2.3-15.8,4.1-35.2,4.1s-35.2-1.8-35.2-4.1s15.8-4.1,35.2-4.1S357.4,212.8,357.4,215.1z"/>
			<path class="st140" d="M357.3,215.1c0,2.3-15.7,4.1-35.1,4.1s-35.1-1.8-35.1-4.1s15.7-4.1,35.1-4.1S357.3,212.8,357.3,215.1z"/>
			<path class="st141" d="M357.2,215.1c0,2.3-15.7,4.1-35,4.1s-35-1.8-35-4.1s15.7-4.1,35-4.1S357.2,212.8,357.2,215.1z"/>
			<path class="st142" d="M357,215.1c0,2.2-15.6,4-34.9,4s-34.9-1.8-34.9-4s15.6-4.1,34.9-4.1S357,212.9,357,215.1z"/>
			<path class="st143" d="M356.9,215.1c0,2.2-15.5,4-34.7,4s-34.8-1.8-34.8-4s15.6-4.1,34.8-4.1S356.9,212.9,356.9,215.1z"/>
			<path class="st144" d="M356.8,215.1c0,2.2-15.5,4-34.6,4s-34.6-1.8-34.6-4s15.5-4,34.6-4S356.8,212.9,356.8,215.1z"/>
			<path class="st145" d="M356.7,215.1c0,2.2-15.5,4-34.5,4s-34.5-1.8-34.5-4s15.5-4,34.5-4S356.7,212.9,356.7,215.1z"/>
			<path class="st146" d="M356.6,215.1c0,2.2-15.4,4-34.4,4s-34.4-1.8-34.4-4s15.4-4,34.4-4S356.6,212.9,356.6,215.1z"/>
			<path class="st147" d="M356.5,215.1c0,2.2-15.4,4-34.3,4s-34.3-1.8-34.3-4s15.3-4,34.3-4S356.5,212.9,356.5,215.1z"/>
			<path class="st148" d="M356.4,215.1c0,2.2-15.3,4-34.2,4s-34.2-1.8-34.2-4s15.3-4,34.2-4S356.4,212.9,356.4,215.1z"/>
			<path class="st149" d="M356.2,215.1c0,2.2-15.3,4-34,4s-34-1.8-34-4s15.2-4,34-4S356.2,212.9,356.2,215.1z"/>
			<path class="st150" d="M356.1,215.1c0,2.2-15.2,3.9-33.9,3.9s-33.9-1.8-33.9-3.9s15.2-4,33.9-4S356.1,212.9,356.1,215.1z"/>
			<path class="st151" d="M356,215.1c0,2.2-15.1,3.9-33.8,3.9s-33.8-1.8-33.8-3.9s15.1-3.9,33.8-3.9S356,212.9,356,215.1z"/>
			<path class="st152" d="M355.9,215.1c0,2.2-15.1,3.9-33.7,3.9s-33.7-1.8-33.7-3.9s15.1-3.9,33.7-3.9S355.9,212.9,355.9,215.1z"/>
			<path class="st153" d="M355.8,215.1c0,2.2-15,3.9-33.6,3.9s-33.6-1.8-33.6-3.9s15-3.9,33.6-3.9S355.8,212.9,355.8,215.1z"/>
			<path class="st154" d="M355.7,215.1c0,2.1-15,3.9-33.5,3.9s-33.5-1.7-33.5-3.9s15-3.9,33.5-3.9S355.7,212.9,355.7,215.1z"/>
			<path class="st155" d="M355.5,215.1c0,2.1-14.9,3.9-33.4,3.9s-33.4-1.7-33.4-3.9s14.9-3.9,33.4-3.9S355.5,212.9,355.5,215.1z"/>
			<path class="st156" d="M355.4,215.1c0,2.1-14.9,3.9-33.2,3.9s-33.2-1.7-33.2-3.9s14.9-3.9,33.2-3.9S355.4,213,355.4,215.1z"/>
			<path class="st157" d="M355.3,215.1c0,2.1-14.8,3.9-33.1,3.9s-33.1-1.7-33.1-3.9s14.8-3.9,33.1-3.9S355.3,213,355.3,215.1z"/>
			<path class="st158" d="M355.2,215.1c0,2.1-14.8,3.8-33,3.8s-33-1.7-33-3.8s14.8-3.8,33-3.8S355.2,213,355.2,215.1z"/>
			<path class="st159" d="M355.1,215.1c0,2.1-14.7,3.8-32.9,3.8s-32.9-1.7-32.9-3.8s14.7-3.8,32.9-3.8S355.1,213,355.1,215.1z"/>
			<path class="st160" d="M355,215.1c0,2.1-14.7,3.8-32.8,3.8s-32.8-1.7-32.8-3.8s14.7-3.8,32.8-3.8S355,213,355,215.1z"/>
			<path class="st161" d="M354.9,215.1c0,2.1-14.6,3.8-32.7,3.8s-32.7-1.7-32.7-3.8s14.6-3.8,32.7-3.8S354.9,213,354.9,215.1z"/>
			<path class="st162" d="M354.7,215.1c0,2.1-14.6,3.8-32.5,3.8s-32.5-1.7-32.5-3.8s14.6-3.8,32.5-3.8S354.7,213,354.7,215.1z"/>
			<path class="st163" d="M354.6,215.1c0,2.1-14.5,3.8-32.4,3.8s-32.4-1.7-32.4-3.8s14.5-3.8,32.4-3.8S354.6,213,354.6,215.1z"/>
			<path class="st164" d="M354.5,215.1c0,2.1-14.5,3.8-32.3,3.8s-32.3-1.7-32.3-3.8s14.5-3.8,32.3-3.8S354.5,213,354.5,215.1z"/>
			<path class="st165" d="M354.4,215.1c0,2.1-14.4,3.7-32.2,3.7s-32.2-1.7-32.2-3.7s14.4-3.8,32.2-3.8S354.4,213,354.4,215.1z"/>
			<path class="st166" d="M354.3,215.1c0,2.1-14.4,3.7-32.1,3.7s-32.1-1.7-32.1-3.7s14.4-3.7,32.1-3.7S354.3,213,354.3,215.1z"/>
			<path class="st167" d="M354.2,215.1c0,2-14.3,3.7-32,3.7s-32-1.7-32-3.7s14.3-3.7,32-3.7S354.2,213,354.2,215.1z"/>
			<path class="st168" d="M354,215.1c0,2-14.3,3.7-31.9,3.7s-31.9-1.6-31.9-3.7s14.3-3.7,31.9-3.7S354,213,354,215.1z"/>
			<path class="st169" d="M353.9,215.1c0,2-14.2,3.7-31.7,3.7s-31.7-1.6-31.7-3.7s14.2-3.7,31.7-3.7S353.9,213.1,353.9,215.1z"/>
			<path class="st170" d="M353.8,215.1c0,2-14.2,3.7-31.6,3.7s-31.6-1.6-31.6-3.7s14.1-3.7,31.6-3.7S353.8,213.1,353.8,215.1z"/>
			<path class="st171" d="M353.7,215.1c0,2-14.1,3.7-31.5,3.7s-31.5-1.6-31.5-3.7s14.1-3.7,31.5-3.7S353.7,213.1,353.7,215.1z"/>
			<path class="st172" d="M353.6,215.1c0,2-14,3.6-31.4,3.6s-31.4-1.6-31.4-3.6s14-3.7,31.4-3.7S353.6,213.1,353.6,215.1z"/>
			<path class="st173" d="M353.5,215.1c0,2-14,3.6-31.3,3.6s-31.3-1.6-31.3-3.6s14-3.6,31.3-3.6S353.5,213.1,353.5,215.1z"/>
			<path class="st174" d="M353.4,215.1c0,2-14,3.6-31.2,3.6s-31.2-1.6-31.2-3.6s14-3.6,31.2-3.6S353.4,213.1,353.4,215.1z"/>
			<path class="st175" d="M353.2,215.1c0,2-13.9,3.6-31,3.6s-31-1.6-31-3.6s13.9-3.6,31-3.6S353.2,213.1,353.2,215.1z"/>
			<path class="st176" d="M353.1,215.1c0,2-13.9,3.6-30.9,3.6s-30.9-1.6-30.9-3.6s13.8-3.6,30.9-3.6S353.1,213.1,353.1,215.1z"/>
			<path class="st177" d="M353,215.1c0,2-13.8,3.6-30.8,3.6s-30.8-1.6-30.8-3.6s13.8-3.6,30.8-3.6S353,213.1,353,215.1z"/>
			<path class="st178" d="M352.9,215.1c0,2-13.8,3.6-30.7,3.6s-30.7-1.6-30.7-3.6s13.7-3.6,30.7-3.6S352.9,213.1,352.9,215.1z"/>
			<path class="st179" d="M352.8,215.1c0,2-13.7,3.6-30.6,3.6s-30.6-1.6-30.6-3.6s13.7-3.6,30.6-3.6S352.8,213.1,352.8,215.1z"/>
			<path class="st180" d="M352.7,215.1c0,2-13.6,3.5-30.5,3.5s-30.5-1.6-30.5-3.5s13.6-3.6,30.5-3.6S352.7,213.1,352.7,215.1z"/>
			<path class="st181" d="M352.5,215.1c0,1.9-13.6,3.5-30.4,3.5s-30.4-1.6-30.4-3.5s13.6-3.5,30.4-3.5S352.5,213.1,352.5,215.1z"/>
			<path class="st182" d="M352.4,215.1c0,1.9-13.5,3.5-30.2,3.5S292,217,292,215.1s13.5-3.5,30.2-3.5S352.4,213.1,352.4,215.1z"/>
			<path class="st183" d="M352.3,215.1c0,1.9-13.5,3.5-30.1,3.5s-30.1-1.6-30.1-3.5s13.5-3.5,30.1-3.5S352.3,213.1,352.3,215.1z"/>
			<path class="st184" d="M352.2,215.1c0,1.9-13.4,3.5-30,3.5s-30-1.6-30-3.5s13.4-3.5,30-3.5S352.2,213.2,352.2,215.1z"/>
			<path class="st185" d="M352.1,215.1c0,1.9-13.4,3.5-29.9,3.5s-29.9-1.6-29.9-3.5s13.4-3.5,29.9-3.5S352.1,213.2,352.1,215.1z"/>
			<path class="st186" d="M352,215.1c0,1.9-13.3,3.5-29.8,3.5s-29.8-1.6-29.8-3.5s13.3-3.5,29.8-3.5S352,213.2,352,215.1z"/>
			<path class="st187" d="M351.9,215.1c0,1.9-13.3,3.4-29.7,3.4s-29.7-1.5-29.7-3.4s13.3-3.4,29.7-3.4S351.9,213.2,351.9,215.1z"/>
			<path class="st188" d="M351.7,215.1c0,1.9-13.2,3.4-29.5,3.4s-29.5-1.5-29.5-3.4s13.2-3.4,29.5-3.4S351.7,213.2,351.7,215.1z"/>
			<path class="st189" d="M351.6,215.1c0,1.9-13.2,3.4-29.4,3.4s-29.4-1.5-29.4-3.4s13.2-3.4,29.4-3.4S351.6,213.2,351.6,215.1z"/>
			<path class="st190" d="M351.5,215.1c0,1.9-13.1,3.4-29.3,3.4s-29.3-1.5-29.3-3.4s13.1-3.4,29.3-3.4S351.5,213.2,351.5,215.1z"/>
			<path class="st191" d="M351.4,215.1c0,1.9-13.1,3.4-29.2,3.4S293,217,293,215.1s13.1-3.4,29.2-3.4S351.4,213.2,351.4,215.1z"/>
			<path class="st192" d="M351.3,215.1c0,1.9-13,3.4-29.1,3.4s-29.1-1.5-29.1-3.4s13-3.4,29.1-3.4S351.3,213.2,351.3,215.1z"/>
			<path class="st193" d="M351.1,215.1c0,1.9-13,3.4-29,3.4s-29-1.5-29-3.4s13-3.4,29-3.4S351.1,213.2,351.1,215.1z"/>
		</g>
		<polygon class="st194" points="257.1,59.6 258.8,48.9 262.6,49.5 261.1,62.9 262.7,72.9 260.7,81.1 249.7,82.1 248.1,76.6 
			245.9,65.4 247.3,60.9 		"/>
		<polygon class="st195" points="262.7,72.9 261.8,67.6 261.4,68.3 254.1,70 253.4,75.6 260.2,81.1 261,79.8 		"/>
		<polygon class="st194" points="260.2,82.2 266.4,72.1 266.9,64.4 266.5,60.3 264,60.5 263.8,65.6 261.4,69.3 255,71.1 253.4,76.7 
					"/>
		
			<linearGradient id="SVGID_1_" gradientUnits="userSpaceOnUse" x1="246.81" y1="129.4057" x2="302" y2="129.4057" gradientTransform="matrix(1 0 0 -1 0 221)">
			<stop  offset="8.000000e-02" style="stop-color:#BDBDBD"/>
			<stop  offset="0.13" style="stop-color:#C2C2C2"/>
			<stop  offset="0.37" style="stop-color:#D7D7D7"/>
			<stop  offset="0.53" style="stop-color:#DFDFDF"/>
			<stop  offset="1" style="stop-color:#CDCDCD"/>
		</linearGradient>
		<path class="st196" d="M302,81.8c0,0-40.4,50.4-55.2-1.4c3.8-0.8,16.4-1,16.4-1c3.2,17.5,21.2,18.9,34.9,0.6L302,81.8z"/>
		<polygon class="st195" points="257.1,59.6 247.3,60.9 245.9,65.4 246.2,66.7 249.9,73 259,69.5 		"/>
		<polygon class="st194" points="257.9,68.1 257.2,59.3 257.1,59.6 247.3,60.9 245.9,65.4 250.4,71.7 		"/>
		<path class="st197" d="M306.5,154.2l8.8,51.2l-6.2-0.4l-3.8-26c-2-10.7-10.4-29.2-10.4-29.2L306.5,154.2z"/>
		<path class="st197" d="M321,154.9l6.6,52.6l5.8-2.4l-3-26.1c-0.9-10.9,0-27,0-27L321,154.9z"/>
		
			<image style="overflow:visible;enable-background:new    ;" width="51" height="129" xlink:href="SVG/Asset 151.png"  transform="matrix(1 0 0 1 291 28)">
		</image>
		
			<linearGradient id="SVGID_2_" gradientUnits="userSpaceOnUse" x1="289.6127" y1="110.785" x2="339.0394" y2="110.785" gradientTransform="matrix(1 0 0 -1 0 221)">
			<stop  offset="8.000000e-02" style="stop-color:#BDBDBD"/>
			<stop  offset="0.13" style="stop-color:#C2C2C2"/>
			<stop  offset="0.37" style="stop-color:#D7D7D7"/>
			<stop  offset="0.53" style="stop-color:#DFDFDF"/>
			<stop  offset="1" style="stop-color:#CDCDCD"/>
		</linearGradient>
		<path class="st198" d="M291.5,79c-0.8,9.5-2.1,54.9-1.9,55.4l43.5,7.1c0-1.9,6.5-56.2,5.8-59.3l-22.7,7.1L291.5,79z"/>
		<polygon class="st199" points="301.3,48.1 314.4,48.7 314.4,44.7 300.5,45.2 		"/>
		<polygon class="st200" points="301.7,47 314.8,47.6 314.9,43.6 301,44.1 		"/>
		<polygon class="st199" points="332.2,52.8 320.4,48.6 321.5,45.1 333.7,50.5 		"/>
		<polygon class="st200" points="331.6,51.7 319.9,47.5 320.9,44 333.1,49.4 		"/>
		<path class="st197" d="M289.6,134.4c0,0-0.1,12.2,3.5,15.7s24.6,12.5,36.7,3c2.6-2.5,3.7-8.7,3.4-12.5L289.6,134.4z"/>
		<path class="st201" d="M311.2,55c-0.2,2.1-1.3,3.7-2.5,3.5s-1.9-1.9-1.7-4s1.3-3.7,2.5-3.5S311.4,52.9,311.2,55z"/>
		<path class="st201" d="M325,56.3c-0.2,2.1-1.3,3.7-2.4,3.5s-1.8-1.9-1.6-4s1.3-3.7,2.4-3.5S325.2,54.3,325,56.3z"/>
		<path d="M310.5,54.3c-0.2,1.7-0.9,3.1-1.6,3s-1.2-1.6-1-3.3s0.9-3.1,1.6-3S310.7,52.5,310.5,54.3z"/>
		<path d="M324.5,55.7c-0.2,1.7-0.9,3.1-1.6,3s-1.2-1.6-1-3.3s0.9-3.1,1.6-3S324.7,54,324.5,55.7z"/>
		<path class="st200" d="M309.6,204l-9.3,3.2c0,0-7.3-1.3-8.9,3.3c-1,3-1.3,4.1-1.3,4.1c7.3,0,26.1-0.1,26.1-0.1
			c0.1-2.7-0.7-9.8-0.7-9.8L309.6,204z"/>
		<path class="st200" d="M333.3,204l9.3,3.2c0,0,7.3-1.3,8.9,3.3c1,3,1.3,4.1,1.3,4.1c-7.3,0-26.1-0.1-26.1-0.1
			c-0.1-2.7,0.7-9.8,0.7-9.8L333.3,204z"/>
		<polygon class="st194" points="325.6,137 328.4,145.7 330,149.1 345.9,142.7 349.6,138.8 345,129.3 345.1,129.2 345,129.2 
			344.5,128.2 342.8,128.4 334.6,125.1 334.3,130 		"/>
		<path class="st202" d="M345,129.3L345,129.3L345,129.3l-0.5-1.1l-1.8,0.3l-3.3-1.1c0.6,1.7,3.8,11.5,5.6,15.6l0.8-0.3l2-2.1
			c0.5-0.7,1-1.5,1.5-2.2L345,129.3z"/>
		
			<linearGradient id="SVGID_3_" gradientUnits="userSpaceOnUse" x1="7021.5073" y1="-498.239" x2="7048.0249" y2="-498.239" gradientTransform="matrix(-0.98 -0.17 0.17 -0.98 7364.6299 830.39)">
			<stop  offset="8.000000e-02" style="stop-color:#BDBDBD"/>
			<stop  offset="0.13" style="stop-color:#C2C2C2"/>
			<stop  offset="0.37" style="stop-color:#D7D7D7"/>
			<stop  offset="0.53" style="stop-color:#DFDFDF"/>
			<stop  offset="1" style="stop-color:#CDCDCD"/>
		</linearGradient>
		<path class="st203" d="M338.5,87.4c0,1.1-0.1,2.7-0.3,4.7c15.7,13,10.9,23.6,2.4,34.3c0,0,4.3,13,6.1,16.7
			C376.1,118.5,345.4,92.6,338.5,87.4z"/>
		<path class="st204" d="M341.3,42.8c0.1-3.6-0.2-7.2-0.8-10.7l-7.7-0.3l-1.3-0.1l-25.8-1.2l-2.5-0.1l-9.3-0.4
			c-0.5,3.2-0.9,6.5-1.1,9.7c-0.3,4.1-0.5,8.9-0.7,14.3c1.3-1.8,2-6.7,2.2-7.7c0.6-3.8,1.2-7.7,3.5-10.7c4.7-6.2,8-0.6,12.3,2.9
			c4,3.5,9.2,5.3,14.5,5.2c2.6-0.1,5.2-0.7,7.6-1.7c1.4-0.6,3.8-2.7,5.4-2.2c2.2,0.7,2.1,5.2,2.3,7.2c0.1,1.3-0.4,6.4,0.8,7.2
			c0.1,0.1,0.2,0.1,0.3,0.2C341.2,50.1,341.3,46.2,341.3,42.8z"/>
		<path class="st200" d="M345,38.5c0,2.8-0.3,5.5-1,8.2c-0.4,1.8-1.3,5.7-2.9,6.6c-0.9-1.7-0.2-4-0.3-5.9c0-2.1-0.4-4.1-1.1-6
			c-1.7-3.7-5-6.3-3.6-10.8c1-3.3,4.2-2.6,6.2-0.6S344.9,35.5,345,38.5z"/>
		<path class="st205" d="M344.2,33.4c-0.4-1.3-1.1-2.5-2-3.5c-0.5-0.5-1.1-1-1.8-1.3c-2.1,1.6-3.6,4-4.2,6.6
			c0.8,2.1,2.4,3.9,3.4,6.1c0.7,1.9,1.1,3.9,1.1,6c0.1,1.8-0.5,4.1,0.3,5.8c1.8-2.9,1.4-8.8,0.8-11.5c-0.4-1.8-1.2-3.3-0.4-5.2
			C342,35.2,343,34.1,344.2,33.4z"/>
		<path class="st200" d="M300.6,19c-1.4,2.4-1.6,5.3-0.8,8c1,2.7,3.5,3.3,5.7,4.4c2.3,1.1,4.5,2.6,6.4,4.3c2.1,1.9,4.2,4,6.9,4.8
			c4,1.2,8.3,1.3,12.4,0.3c10.2-2.3,17-19.4,10.6-29.5c0.8,5.6-2.4,6.6-5.8,9.1c3.5-4.5,0.8-13.2-4.2-15.8
			c6.3,15.6-9.9,12.6-17.7,11.4C309.7,15.5,303.4,14,300.6,19z"/>
		<path class="st200" d="M295.1,22.2c1.4-0.1,2.7,0.2,3.9,0.9c1.5,0.7,2.9,1.7,4.2,2.8c0.8,0.8,2.7,3.2,2.4,4.6
			c-0.3,1-1.1,0.5-1.9,0.5c-1.5-0.2-3.1,0.1-4.5,0.7c-4.5,2.4-5.7,9.1-6.4,14c-0.2,1.1-0.1,2.6-0.8,3.5c-1.9-1.5-1.9-6.5-2.3-9
			c-0.8-5-1-12,2.1-16.1C292.7,22.9,293.9,22.3,295.1,22.2z"/>
		<path class="st205" d="M341.9,11.4c0.1,0.6,0.1,1.3,0.1,1.9c0.6,2,0.8,4.1,0.6,6.1c-0.3,2.8-1.1,5.5-2.3,8.1
			c-1.5,3.3-3.7,6.7-6.9,8.2c-3.6,1.7-6.8,2.5-10.7,1.5c-3.7-1-6.7-3.1-10.1-4.8s-6.6-4.8-10.5-4.5c-0.5,0-1,0.2-1.5,0.3
			c1.2,1.6,3.2,2.2,5,3.1c2.3,1.2,4.5,2.6,6.4,4.3c2.1,1.9,4.2,4,6.9,4.8c4,1.2,8.3,1.3,12.4,0.3C341.5,38.7,350.2,20.3,341.9,11.4z
			"/>
		<path class="st205" d="M302.1,28c-3.6,0.5-6.7,2.8-8.4,6c-2,4.5-1.2,9.4-1.3,14.2c0.2-0.9,0.3-1.7,0.4-2.6c0.7-4.9,2-11.6,6.4-14
			c1.4-0.6,2.9-0.9,4.5-0.7c0.8,0,1.6,0.5,1.9-0.5c0.1-0.7-0.1-1.4-0.5-2C304.2,28.1,303.1,27.9,302.1,28z"/>
		<path class="st206" d="M297.2,26.4c1.9-0.1,2.6-1.9,0.7-2.8c-2.1-1-4.4,0.4-5.5,2.4s-0.7,3.5-0.9,5.5
			C291.9,28.1,294.5,26.6,297.2,26.4z"/>
		<path class="st206" d="M326.6,28.5c-4,2-6.9,0.7-10.7-1.1c-1.6-0.8-3.2-1.4-4.9-2.2c-3.2-1.6-6.3-3.3-9.8-1.5
			c0-2.1,0.9-4.2,2.6-5.6c1.3-1,2.8-1.6,4.5-1.5c2.5,0.1,5.4,2.5,7.8,1.1c-1.1,1.3-2.8,1.9-4.4,1.8c-1.4-0.1-3.6-1-4.5,0.7
			c3.1-1.8,8.3,3.2,11,4.4c4.1,1.9,8.6,3.6,12.4-0.1C329.2,26.2,328.5,27.5,326.6,28.5z"/>
		<path class="st207" d="M298.4,60.1c0,0,19.3,12.2,34.9,2.2c0.5,10.7-6.7,22.9-19.2,21.4C303.4,82.5,297.8,74.5,298.4,60.1z"/>
		<path class="st208" d="M304,79.2c2.8,2.6,6.3,4.2,10.1,4.5c3.9,0.5,7.8-0.4,10.9-2.7c-2.9-3.7-3.8-5-9.9-5.1
			C307.2,75.9,306.1,78,304,79.2z"/>
		<path class="st1" d="M298.4,60.1c0,1,0,2,0,3c3.5,2.5,18.5,12.3,34.7,3.6c0.2-1.5,0.3-2.9,0.2-4.4
			C317.7,72.3,298.4,60.1,298.4,60.1z"/>
		<path class="st209" d="M298.4,60.1c0,1,0,2,0,2.9c1.8-2.3,7.4,3,17.7,4c10,1,15.9-3.9,17-0.3c0.2-1.4,0.3-2.9,0.2-4.3
			C317.7,72.3,298.4,60.1,298.4,60.1z"/>
		<path class="st1" d="M303.7,78.9c2.8,2.8,6.5,4.5,10.4,4.8c4.5,0.6,9.1-0.9,12.4-4C317,83.7,306,78.4,303.7,78.9z"/>
		<polygon class="st202" points="313,125.3 316,130.8 324.3,120.7 320,96.4 319.5,89.8 		"/>
		<polygon class="st200" points="311,92.7 305.8,118.1 314,129.2 322.7,119.3 318.8,92.9 		"/>
		<polygon class="st200" points="310.4,87.1 310,92.8 319.6,94.1 319.9,87.3 		"/>
		<polygon class="st210" points="319.1,95.2 318.8,92.9 311,92.7 310.7,94.2 		"/>
		<polygon class="st200" points="309.6,88.1 309.3,93.3 320.5,94.7 320.8,88.5 		"/>
		<path class="st211" d="M320.8,106.6l-10.6-10.1l-1.3,6.5l13,10.8L320.8,106.6z M307.8,108.3l-0.7,3.6l11.7,11.9l3-3.3L307.8,108.3
			z"/>
		<path class="st212" d="M318.9,103.5c0,0.8-0.5,1.4-1.3,1.5l-9.3-0.6c-0.7-0.2-1.2-0.9-1.1-1.6l0,0c-0.1-0.8,0.5-1.4,1.3-1.5
			l9.3,0.6C318.5,102,319,102.8,318.9,103.5z"/>
		<path class="st1" d="M312.4,103.2c0,0.5-0.2,1-0.4,0.9l-2.9-0.2c-0.2,0-0.4-0.5-0.3-1l0,0c0-0.5,0.2-1,0.4-0.9l2.9,0.2
			C312.3,102.2,312.4,102.6,312.4,103.2z"/>
	</g>
</g>
</svg>
