<svg xmlns="http://www.w3.org/2000/svg" xmlns:xlink="http://www.w3.org/1999/xlink" viewBox="0 0 1005.09 339.91"><defs><radialGradient id="2885ad62-9124-45da-834e-2292037f98bf" cx="508.34" cy="171.07" r="350.92" gradientUnits="userSpaceOnUse"><stop offset="0" stop-color="#3db7d5"/><stop offset="0.34" stop-color="#249abd"/><stop offset="0.76" stop-color="#0a7ca3"/><stop offset="1" stop-color="#007099"/></radialGradient></defs><title>logo-mivoxpopuli</title><g id="40eea256-c401-406d-8d68-aa622f07f75f" data-name="Layer 2"><g id="22e159df-e22d-40f0-b42b-e0efb6676082" data-name="Capa 1"><path d="M983.6,271.76c-.1,21.78-18.63,39.35-41.39,39.25l-869-3.82c-22.76-.1-41.14-17.84-41-39.61l.88-197.2C33.17,48.61,51.7,31,74.47,31.13l869,3.82c22.75.1,41.13,17.84,41,39.62Z" style="fill:url(#2885ad62-9124-45da-834e-2292037f98bf)"/><path d="M993.86,213c.2,5.4-1.07,10.1-1.62,8.07,1.46,11-.25,11.23,2.66,12.67,1.4,7.06-.62,14.58-1.77,6.55l1.7,20.36.51-12.17c2.41,3.33-.81,19.44,2,23.31l-.14-22,.8,1.11c-.85-5-.44-14.77-.08-18.16.39.54,1,.2,1.1,4.08.3-26.6-4.22-7.18-4.92-29.25A38.17,38.17,0,0,1,993.86,213Z" style="fill:#03709a"/><path d="M999.89,190.46l-3-9.3.86-15.56c-1-.18-1.85-11.52-2.81-3.85a49.6,49.6,0,0,1,.35,6.87c-2.26-1.75-1-20.71-3.36-16.14.55,12.31,0,14.2,1.85,21.78-.26,11.29-.82,19.5-1.67,24.77.33,3.35,1.72,3.83,2,8.09,0-1-.05-1.81-.07-2.9l3.41-.44c-.7-3.55-.35-6.91-.4-10.84l3.9,18.23c3.22-5.86,1.43-23.77,2.79-30.92C1000.81,189.11,1002.32,173.18,999.89,190.46Z" style="fill:#03709a"/><path d="M994.09,207.12v0Z" style="fill:#03709a"/><path d="M53.68,290.94a6.29,6.29,0,0,0,2.82,1.31,3.24,3.24,0,0,0,1.38-.07l-1.74-1L54.52,290A12.54,12.54,0,0,1,53,288.73c-.48-.46-1-.84-1.48-1.34L50.12,286a5.15,5.15,0,0,1-.64-.76l-.6-.78a32.16,32.16,0,0,1-2.22-3.25c-.31-.58-.58-1.17-.88-1.75l-.44-.87-.34-.92c-.21-.61-.49-1.2-.68-1.82s-.32-1.25-.49-1.88a12,12,0,0,1-.36-1.9l-.16-1a4.42,4.42,0,0,1-.11-1l-.09-2,0-.49v-2a3.58,3.58,0,0,0-.35,1c-.12.44-.26,1.09-.33,1.47-.17.91-.42,2-.54,2.87-.17,1.72-.5,2.65-1.2-.57a9.74,9.74,0,0,0,0,3.15,12.76,12.76,0,0,0,.49,2,10.78,10.78,0,0,0,.71,2c.31.63.62,1.24.93,1.8a9.53,9.53,0,0,0,1,1.47c.68.84,1.25,1.41,1.72,1.51a10.79,10.79,0,0,1-1.19-.73l-1.16-.8a47.83,47.83,0,0,1,3.1,4.37,17.07,17.07,0,0,1,1.73,3.34c.62,1.78,0,2.69-2.4,1l.52.52a32.07,32.07,0,0,0,11.07,4.5,31.22,31.22,0,0,0,11,.25c-.91-.13-1.64-.38-2.3-.5s-1.25-.15-1.75-.24a13.37,13.37,0,0,0-2.73-.09,19.67,19.67,0,0,1-3.07-.42A16.47,16.47,0,0,1,53.68,290.94Z" style="fill:#03709a"/><path d="M941.83,304.78c-5.66.29-6.35.61-5.71,1A48.54,48.54,0,0,0,941.83,304.78Z" style="fill:#03709a"/><path d="M72.9,293.53l.37-.11.53-.12,1.09-.26,2.18-.52,4.37-1c-1.75.28-3.39.6-4.87,1-.73.17-1.43.35-2.08.54A10.73,10.73,0,0,0,72.9,293.53Z" style="fill:#03709a"/><path d="M13.91,271c-.12,0-.22-.16-.36.19.25,1,.43,1.92.76,2.86l1,2.78,0-.14c-.28-1-.54-2-.8-3S14.08,271.82,13.91,271Z" style="fill:#03709a"/><path d="M270.66,286.5l2.86-.13C272.48,286.38,271.54,286.43,270.66,286.5Z" style="fill:#03709a"/><path d="M2.22,151.61,4.17,171c-1-2.59-.71,6.77-1.81,2.68.15,1.47.5,8.41,1,6.52l0-4c2.76,10.24,3.86,4.05,5.92,21,1.7-10.52.2-15.14-1-20.72-.19-1.9-.27-3.48-.37-5.08L4,155.32Z" style="fill:#03709a"/><path d="M671.52,319.48l-.21.22C671.51,319.62,671.54,319.55,671.52,319.48Z" style="fill:#03709a"/><path d="M670.46,320.59l.85-.89C670.27,320.14,666.28,320.55,670.46,320.59Z" style="fill:#03709a"/><path d="M70.53,295.22a5.05,5.05,0,0,1,2.37-1.69l-2.31.67c-.78.2-1.57.29-2.39.45C68.86,294.76,69.7,295.06,70.53,295.22Z" style="fill:#03709a"/><path d="M57.69,297.94a35.65,35.65,0,0,1-11.52-8,19.54,19.54,0,0,1-2.24-1.57,18.23,18.23,0,0,1-2.16-1.76l.65.85.75.8,1.52,1.65,1.73,1.57.89.8,1,.73A31,31,0,0,0,57.69,297.94Z" style="fill:#03709a"/><path d="M244.87,284.74c33.84-.28-8.33,3.26,7.21,4.12,9.4-.35,12.72-1.9,18.58-2.36-26.84,1.22,3.66-5.13-23.41-4.42,3.86-2.81,19.54-3,28.72-2.19,10.38,2.77-9.1,1.95-11.46,4.61,10.86-.39,8.95-.9,13.57-2.4,17.05.71,35.3-3.19,45.47.63,12.35-.55,11.54-1.85,18.65-3.26,1.42-2.91-18.36-1.61-22.92-3.93.94.26,2.79.76,2.25,1.16L310.86,276c10.13,1.06-1.42,2.91-6.84,3.12-3.93,0-11.77.14-10.68-.67l6-.59c-7.67-1-16.95,2.05-25.05.43-.42-.66,2.65-.95,3.12-1.36-9.09,2-17.85,1.8-31.31,3.15l7.81-2.86c-10.77,3.16-35.12,2.14-52,.38,1.87.5,5.24.85,3.21,1.4-9.92.65-17.39-1.37-12.8-2.87-9.69,2.36-36.89-2.18-50.1.88L81.44,291.48a66.42,66.42,0,0,1,7.21-.76c5.51,2.56,8.48,2.27-1.2,4.62,9.5-1.3,5.88-3.36,20.14-3.4-5.6,1.25-7,4.16,6.64,4.52,34.15-2.39,56.82-9.51,88.72-13,1.17,2,26.21,1.52,38.38,2-4.65,2.08-13.69,2.64-23.06,3,5.88.16,16,.26,23.52.39Z" style="fill:#03709a"/><path d="M165.55,291a24.32,24.32,0,0,0,2.64.37A11,11,0,0,0,165.55,291Z" style="fill:#03709a"/><path d="M215.41,288.39c-.12.07-.07.13-.12.21l3-.14Z" style="fill:#03709a"/><path d="M77.48,299.81c-1,.27-1.9.44-2.78.62l-1.34.28c-.41.08-.8.17-1.25.29l4.14-.44C77.68,300.31,78.37,300.05,77.48,299.81Z" style="fill:#03709a"/><path d="M71.32,296.23l.85-.76c-.63-.13-1.08-.17-1.64-.25C70.32,295.64,70.47,296,71.32,296.23Z" style="fill:#03709a"/><path d="M374.1,303l3.25-.41A8.48,8.48,0,0,0,374.1,303Z" style="fill:#03709a"/><path d="M282.55,288.23c-11.77.14-1.42,2.91-18.07,2.85l4.88.2c-11.95,1.2-32.94.53-47.13.58,1.6-1.16-8.61-1.46-6.94-3.26-9.7.39-19.31.74-24.32,2.59-6-.64-15.14,1-22.78.15,3.22,1.11-10.9,3.65,7.71,2.4-1.51.14-.56.4-2.05.54,12,1.58,16.79-1,27.11-1,6.17,1.11-10.1,1.7-4.28,2.16,12.89-.95,40.44,1.47,39.6-2.59,9.38-.24,10.67.66,13.47,1.41,14.85-4.25,55.05,2.1,54.94-3.43-5.42.2-14.25,0-22.2,1.19Z" style="fill:#03709a"/><path d="M97.24,299.61c.73,0,1.69,0,2.29.06C98.86,299.64,98,299.62,97.24,299.61Z" style="fill:#03709a"/><path d="M56.18,206.47l3.59,4.93c.37,14,.29,23.56.13,32.65-.09,4.55-.18,9-.28,13.83,0,2.41-.06,4.93-.1,7.6,0,.67,0,1.35,0,2a.81.81,0,0,0,0,.28l0,.15,0,.3c0,.2,0,.41,0,.62a4.15,4.15,0,0,1,.14.61c-.42.61-.84-.17-1.1-.62A15.69,15.69,0,0,0,60,272.92a13,13,0,0,0,3.17,3.95,12.23,12.23,0,0,0,4.54,2.42,8.73,8.73,0,0,0,4.21.16,4.16,4.16,0,0,1,.88.08l.51.11.07,0h.17l.38,0,.75.05c2,.13,4.18.32,6,.54,3.6.44,5.83,1,3.11,1.53a54.73,54.73,0,0,1,8.78-.48c.81,1.3-6.86.34-7,1.4,2.43.1,3.37.36,3.93-.05-4.09,1.1,4.23,4.42-14.85,4.26-7.38-3.07,13.24-.3,8.89-3.66-6.33-.05-5.6,1.25-6.14,1.65-1,0-1.89,0-2.66-.07l-1.06-.06-.24,0-.12,0-.21-.05a3.15,3.15,0,0,1-1.07-.46c-.41-.33-.29-.72-.16-1.11-.38.31-.91.23-1.57.2a11.16,11.16,0,0,1-2.12-.47A9.14,9.14,0,0,1,67,282.5c-.35-.14-.74-.17-1.07-.29A3.89,3.89,0,0,0,64,282a5,5,0,0,1-2.33-1.85c-.17-.38.14-.56.5-.72s.76-.28.86-.51-.12-.52-.82-1.19a13.57,13.57,0,0,1-2,.42c-.66.08-1.42.18-2.14.2a16.5,16.5,0,0,1-2.78-6.68c-.11-.29-.25-.56-.36-.81a6.46,6.46,0,0,0-.23-.74A11.78,11.78,0,0,1,54.2,269a4.3,4.3,0,0,0-.44-.86c-.08-.11-.17-.22-.25-.31l-.13-.13c0-.09-.08-.18-.12-.25-.63-1.27-1.38-.94-2.16-.73-1.56.44-3.21.43-4.1-13.67,1.75,3.72,4.77-7.57,5.54-20.69.09,7.85,2.23,22.37,1.18,32.49.68-3.56,1-4.12,1.23-3.06a20.7,20.7,0,0,1,.2,2.62c0,.58,0,1.22.05,1.89a11.87,11.87,0,0,0,.08,1.68,7.56,7.56,0,0,0,.74,3c.46.65.9.75,1.48-.06l-.4-.39c-.09-.16-.18-.32-.28-.48s-.19-.34-.28-.52a1.41,1.41,0,0,1-.24-.58l-.16-.63-.09-.32,0-.17a.66.66,0,0,1,0-.25c-.06-1.2-.11-2.43-.13-3.67a140.18,140.18,0,0,1,.46-14.8l.3,3c.41-9.76-3.11-17.17-1.69-30.63-.08-6.7.87-5.44,1.66-4.26C56.07,211.55,55.43,206.48,56.18,206.47Zm.65,14.58-.38,9C57,227.88,57,224.54,56.83,221.05Z" style="fill:#03709a"/><path d="M998.34,61.5c.11.62.23,1.28.35,1.93s.13,1.3.17,1.87a13.52,13.52,0,0,0-.09-1.66C998.68,63,998.51,62.26,998.34,61.5Z" style="fill:#03709a"/><path d="M202.63,14.9l5.18.13C205.79,14.91,204.13,14.88,202.63,14.9Z" style="fill:#03709a"/><path d="M319.09,4.21l7.58-.76A42.59,42.59,0,0,0,319.09,4.21Z" style="fill:#03709a"/><path d="M935.56,19.19l-.25,0c-.43.05-.75.13-1.2.18Z" style="fill:#03709a"/><path d="M552.53,13.17a30.58,30.58,0,0,0,4.22.76C556.54,13.6,555,13.35,552.53,13.17Z" style="fill:#03709a"/><path d="M317.69,4.35l.46.07.94-.21Z" style="fill:#03709a"/><path d="M151.39,4.79c-1.11.09-2.12.17-3.32.32A24.92,24.92,0,0,0,151.39,4.79Z" style="fill:#03709a"/><path d="M158.66,14.43c-1.19.08-2.33.18-3.23.32Z" style="fill:#03709a"/><path d="M9.27,102.18l.46,7A47.92,47.92,0,0,0,9.27,102.18Z" style="fill:#03709a"/><path d="M140.19,12.12a10.94,10.94,0,0,0-1.08.46C140.07,12.48,140.53,12.28,140.19,12.12Z" style="fill:#03709a"/><path d="M989.7,109.54v-.42l-.4-.18Z" style="fill:#03709a"/><path d="M994.57,126.54c.08,2,.17,4.09.25,6.14A50.94,50.94,0,0,0,994.57,126.54Z" style="fill:#03709a"/><path d="M653.94,19.07c1.84.5,6.18,1.1,4.15,1.65C661.63,20,661.41,18.31,653.94,19.07Z" style="fill:#03709a"/><path d="M968.64,75.41a29.74,29.74,0,0,1,1.13,3.89C969.29,76.71,968.89,74.44,968.64,75.41Z" style="fill:#03709a"/><path d="M969.77,79.3c.24,1.28.49,2.65.75,3.79C970.31,81.76,970.06,80.48,969.77,79.3Z" style="fill:#03709a"/><path d="M606.78,47a5.82,5.82,0,0,0-2.13-.5C604.93,47,605.7,47.07,606.78,47Z" style="fill:#03709a"/><path d="M994.26,137.64c.8,1.1,2.44,27.78,3,5.35,2.51.87,1.1,14.4,1.7,20.38.61-4.34,1.6,2.17,2.51.85a68.73,68.73,0,0,1-.8-11.4c1.16-2.25,1.91,5.2,1.45,11,1.36-7.16,1.95,9.09,3-1-.79-21.66-1.64-37-5.25-52.22.55,12.35,1.24,26.16.19,36.29l-2.16-4.27c2-11.44.56-18.51.82-29.76l-1.27,25.28c-1.86,11.83-2.25,3.91-2.6-5.43C994.78,135,994.64,137.05,994.26,137.64Z" style="fill:#03709a"/><path d="M975.24,120.51l-.06.43a8.25,8.25,0,0,0,.21,1.06Z" style="fill:#03709a"/><path d="M53.31,101.09l.81,2.17C53.76,101.45,53.51,100.89,53.31,101.09Z" style="fill:#03709a"/><path d="M985.84,105.47v0C985.82,105.32,985.82,105.28,985.84,105.47Z" style="fill:#03709a"/><path d="M56.92,60.32a1.85,1.85,0,0,1,.09.23C57,60.43,56.94,60.39,56.92,60.32Z" style="fill:#03709a"/><path d="M35.65,16.59a1.56,1.56,0,0,0-.66.1C33.51,17.89,34.32,17.44,35.65,16.59Z" style="fill:#03709a"/><path d="M56.77,60.19a.36.36,0,0,1,.15.13C56.87,60.26,56.84,60.18,56.77,60.19Z" style="fill:#03709a"/><path d="M297.33,44.46a16.44,16.44,0,0,0-2.13-.75C294.69,43.91,295.2,44.15,297.33,44.46Z" style="fill:#03709a"/><path d="M245.47,41c-.33-.08-.52-.15-.94-.24Z" style="fill:#03709a"/><path d="M641.71,9.21c-2.57,0-4.49,0-6.12.09A55.45,55.45,0,0,0,641.71,9.21Z" style="fill:#03709a"/><path d="M57,60.55A5.5,5.5,0,0,1,57,62,4.33,4.33,0,0,0,57,60.55Z" style="fill:#03709a"/><path d="M376.47,33.81l-1.6.24c.32,0,.64.06.95.11Z" style="fill:#03709a"/><path d="M403.53,35.53a11.35,11.35,0,0,0-1.87.72c9.67-.86,27.41.2,29.53-2.1-3.28,0-20.28-1.4-17.37-2.74-6.74.55-16.69-1.12-20.32-.75,11.05,1.31,1.19,2-6.28,2.7-6.78-.7,1.29-1.85-4.56-2.31l-15.7.19,13.68.37-4.17,2.2,1.4-.2C401,32.67,379.82,36.88,403.53,35.53Z" style="fill:#03709a"/><path d="M401.66,36.25a30.16,30.16,0,0,0-3.71.53A9,9,0,0,0,401.66,36.25Z" style="fill:#03709a"/><path d="M496.22,40.34c1.19-.07,2.48-.17,4.1-.33C499.55,40.09,497.76,40.19,496.22,40.34Z" style="fill:#03709a"/><path d="M37.78,277a5.36,5.36,0,0,0,0-2.13c-.08-.57,0-1.26-.07-1.95s-.11-1.44-.1-2.17,0-1.46,0-2.14-.08-1.39-.12-2c-.1-1.23-.33-2-.76-2,0,1-.09,2-.13,3v2.68a18.58,18.58,0,0,0,.19,2.68,17.31,17.31,0,0,0,.39,2.68Z" style="fill:#03709a"/><path d="M753.89,31.52c-1.5-.06-3-.08-4.51-.06-.33.08-.64.18-.88.26A24.28,24.28,0,0,0,753.89,31.52Z" style="fill:#03709a"/><path d="M418,30.62a15,15,0,0,0-4.17.79A14.66,14.66,0,0,0,418,30.62Z" style="fill:#03709a"/><path d="M754.72,35.6c1.91.49,4.73,1.25,5.13,1.91,3.91,0,6.67-.86,10.65-1.16A88.73,88.73,0,0,1,754.72,35.6Z" style="fill:#03709a"/><path d="M770.83,36.32l-.33,0Z" style="fill:#03709a"/><path d="M39.8,284l.44.67.51.63,1,1.3-1.29-1.19A30.71,30.71,0,0,0,42.66,289c.41.59.8,1.19,1.21,1.77l1.38,1.65c.4.33.78.72,1.25,1.07s1,.73,1.5,1.16a2.79,2.79,0,0,0-1.22-.51l2,2c3.26,1.46,8.7,4,14.21,4.69a37.27,37.27,0,0,0,7.65.39l1.61-.14c.53-.05.93-.06,1.48-.14,1-.14,1.89-.27,2.56-.4a182.32,182.32,0,0,1,21-.95c-5-.06-11.62.27-9.63,1.25,10.13,1.07,15,4,32.55,1.58H109.9l23.09-3.7c8.08,1.61-11.52,1.85-14.73,3.21,18-1.8,32.85,3.27,41.19,0,1.16,2,3.11,5.22,14.89,5.08-8.48-2.26,7.06-1.4.11-3.81,4.07-1.1,13.13.76,13.81-.7l-1.1.8c20.09,3.18,26.69-1.63,35.3-3.19,24.08-.69,35.13.62,54.76.38.77,1.31,6.1,4.93,14,4.83,3.67-1.75,21.44-2.49,23.26-4.75-14.08-1-11.53,1.85-20,2.34-7-2.41-.63-2.35-10.2-3.82,7.73,1,34.95-1.08,43.41,1.18l-3,.31c13.52,1.41,16.08,7,38.62,3.74L374.1,303c-.52.23-.58.49-.86.69,17.6.32,12.78,2.88,32.22.93-1.5.15-.56.4-2.08.54,11.06,1.33,22.24-1.18,30.62-1.68,5.1,1.91-1.22,1.85-4.39,3.21,19.48.82,40.52-2.34,52.62-4.59l12.56,1.17c-7.46.74-16.56,2.7-14.3,3.85,6.91-.35,5.58-1.25,15.34-.84-1.67,1.2-5.77,2.31-10.37,3.81,20.19,2.11,4.53-4.27,18.65-.49,6.35,0,10-1.7,10.74-3.16l11.49,2c1.29-1.85,15.48-1.9,24.79-2.14,1.14-.79-7.48-2-11-1.31.7-1.46,10.6-2.1,17-2.05,2.32,3.91,41.67-.38,34.13,4.19,28.6-1.15,68.76-1.36,87.64-2.91,6.21,1.11,18.89,1.22,11.29,3,23,.11,34.9-3.84,57.73-2.67,1.89.49-10.32,0-9.52,1.29,14.94-1.5,27.16,1.77,50.33.83-3.9.05-5,.85-5.58,1.26-.4-.65,9.5-1.3,15.49-1.9,3.37.35-4.48.44-2.6.95,44.74,2.09,78.86-3.06,123.37-2.69-12.71-.11-17.53,2.46-17.67,3.51l12.45.1c4.81-1.26,14.16-1.22,22-2.15,1,.49,4.76,1,.87,1.62,1.54.17,3,.3,4.49.4.76.06,1.4.05,2.06.05l2,0a13.43,13.43,0,0,0,1.91-.19l1.87-.29a12.1,12.1,0,0,0,1.8-.43l1.75-.52a31,31,0,0,0,11.73-7.4,40.63,40.63,0,0,0,8-11.52,45,45,0,0,0,4-15.7,32.42,32.42,0,0,1-1.31,15.5,31.39,31.39,0,0,1-1.54,3.84,16.42,16.42,0,0,1-1,1.86l-1,1.85-1.22,1.74a15.63,15.63,0,0,1-1.3,1.73,34.41,34.41,0,0,1-2.94,3.23,34.55,34.55,0,0,0,4-2.05,17.06,17.06,0,0,0,1.9-1.22l1.89-1.32a42,42,0,0,1-11.61,11.83,21.47,21.47,0,0,0,6.39-3.49c.46-.34.9-.69,1.32-1l1.14-1.13c.72-.76,1.42-1.44,2-2.16s1.07-1.38,1.53-2l.66-.82c.2-.27.38-.52.56-.75.69-.9,1.3-1.41,1.88-1.35a18.87,18.87,0,0,1-2.5,3.79c-1,1.26-1.77,2.42-1.5,2.84,1-.8,1.77-1.59,2.5-2.29a15.06,15.06,0,0,0,1.78-2,16.91,16.91,0,0,0,2.18-3.5,80.62,80.62,0,0,0,3-7.68,34.9,34.9,0,0,1-8.27,16.09,45,45,0,0,1-18.74,12.22,49,49,0,0,1-11.5,2.27c-.95.07-2,.15-2.85.19l-2.48.07-4.84.13c-6.34.16-12.18.32-17,.54-3,.3,2.6-.95,3.13-1.35-7.84.1-12.55-1.17-22.43-.52-6.14,1.66,4.67,1.26,9.54,1.46-.68,1.46-3.13,1.36-8.55,1.56-1.17-2-29.76-.83-36.74-3.24-29,.49,4.61,5.08-23.67,4.1l-8.44-2.27c-16.42,1.66-37.66,3.1-56.24,2.54l3.91-.06c2.61-.94-1.69-1.55-3.6-2.05-14-1-26.66,1.64-35.16-.63-16,2.31-42.73,3.94-61,5.09-4.92-3,23.9-2.39,31.53-4.2L693.21,319a64.88,64.88,0,0,0,20.56-2.75c-14.6-.61-19.42,1.95-33.27,2.63,1.08-.79-.77-1.29-7.15-1.34l-1.83,1.94c-.11-.16-.82-.31-2.79-.44l-24.64,1.09c5.22.86,5.47,2.56,11.83,2.61-2.27-1.15,3.13-1.35,9.5-1.3-5.58,1.26,6.21,1.11,6.07,2.16-12.77-.1-28.46.09-36.84.59l-2.71-1.82c-12.16-.51-25,.44-33.27-.12l2.6-.94c-14.59-.62-29,.48-41.93-1.34-13,2-29.44,3.65-40.09,5.76-5.71,2.3-38.2-3.09-52.9.12-1-.26,10.09-1.71,15.11-2.56-9.77-.41-17.55,2.45-20.6,0,21.92.92-1.17-2,8.71-2.61-10.26,0-21.09.39-26.12,1.24,16.61.06-5.92,3.36,10.9,2.37A241.76,241.76,0,0,1,408,326.16c.16-1.06-1.75-1.56-7.54-2l-4.67,1.51c-7.27-.31,14.05-1.75-.57-2.36-15.06,2.55-45.31-1.68-51.92,3.13-11.46-2,21.84-1.84,4.56-4.26,10.06-1.71,23.93.36,27.25-2.05-9.86.65-3.59-2.06-9.95-2.11l-11,1.44,2.43.11c-18.46,2.2-47.68,1-71.23,1.26-20,2.35-33.72,5.81-57.65,5.44,7.07-1.4-19.87-1.46-4.79-4-11.07-1.31-22,.14-22.23,1.2,9.74.4,3.42.35,11.63.9-5.55,1.26-18.32,1.15-23.56.29,2.43.1,1.51-.15,2.05-.55-11.63-.91-5.58,1.25-14,1.75-2.66-1.8-18.56-.56-26.24-1.53l-11.14,2.51c6.13-1.65-10.67-.66-12.41-2.21-8,1.15-14.69,3.2-26.85,2.69,5-.85-11.09-1.31-11.29-3a96.13,96.13,0,0,0-14.48-.06l-.84.06-.42,0h-.59l-2.32,0a41.47,41.47,0,0,1-4.6-.06c-1.53-.1-3-.18-4.57-.34s-3-.46-4.52-.71a53.81,53.81,0,0,1-17.41-6.63,44.88,44.88,0,0,1-14.52-14.31,14.32,14.32,0,0,0,2.39,1.5c.62.15.47-.59-1.85-4-1-1.27-2.11-2.9-3.26-4.67-.53-.91-1-1.9-1.55-2.9a31.33,31.33,0,0,1-1.47-3.09,52.68,52.68,0,0,1-2.25-6.45c-.29-1.06-.56-2.09-.83-3.07s-.38-1.94-.55-2.82l.08.22-.11-.36c-.7-3.44-.9-5.63-1.33-5.69-.14-.77-.28-1.52-.42-2.24-.06-.37-.13-.73-.19-1.09s-.11-.51-.16-.76c-.21-.94-.41-1.86-.61-2.77-.41-1.83-.82-3.66-1.21-5.74a158.23,158.23,0,0,1-2.23-17.51c-2,1.2-1.26,15-.66,21L10.34,267a3.8,3.8,0,0,0-.26.49c-.07.25-.14.52-.2.79-.12.55-.21,1.12-.28,1.72a29.84,29.84,0,0,0-.14,3.84,41.54,41.54,0,0,0,.6,4.13c.13.7.28,1.4.44,2.09s.41,1.37.63,2.05c.44,1.36.91,2.68,1.38,3.95s1.08,2.42,1.57,3.53c.94,2.24,1.94,4,2.38,5.49-.63-.77-1.29-1.66-2-2.66s-1.26-2.2-1.91-3.46a30.1,30.1,0,0,1-1.82-4.16c-.54-1.51-1.12-3.11-1.57-4.81s-.8-3.52-1.15-5.4-.43-3.82-.6-5.83c0-.47-.06-.95-.1-1.43l0-.93-.09-1.88c-.06-1.27-.12-2.55-.18-3.85-.44-10.42-.71-21.73-1.73-30.21-1.38,5.17-2.2,13.37-2.65,22.73q-.17,3.53-.27,7.22c0,1.23-.06,2.46-.08,3.71l0,1.88v1.41l0,.82c.07,2.24.15,4.49.36,6.73s.65,4.48,1.05,6.7,1.12,4.36,1.75,6.5,1.53,4.17,2.35,6.19c-.38-1.23-.75-2.46-1.11-3.7a36.29,36.29,0,0,1-.93-3.73c-.25-1.26-.48-2.52-.7-3.78-.1-.63-.22-1.25-.3-1.88l-.18-1.91c.13.75.25,1.49.4,2.23l.55,2.19q.57,2.19,1.2,4.35c.51,1.42,1,2.82,1.58,4.22l.83,2.09,1,2-.7-2.06c-.2-.7-.38-1.41-.56-2.11-.36-1.41-.7-2.81-1-4.21s-.46-2.85-.66-4.27a35.93,35.93,0,0,1-.42-4.26A59.73,59.73,0,0,0,15,301.34a68.5,68.5,0,0,0,14.24,16.41c-.8-.69-1.56-1.38-2.28-2a20.69,20.69,0,0,1-2-2c-1.2-1.34-2.23-2.59-3.1-3.72a33,33,0,0,1-3.17-5.45c-.5-1.22-.46-1.79-.06-1.5a20,20,0,0,1,2.61,3.25c.63,1,1.2,1.92,1.82,2.73s1.24,1.56,1.83,2.26,1.16,1.34,1.71,1.93,1.14,1.08,1.68,1.56c1.09,1,2.11,1.76,3.07,2.46s2,1.2,2.88,1.72,1.85,1,2.78,1.45l3,1.32c1.06.45,2.15,1,3.4,1.55s2.64,1.13,4.18,1.85c-1.7-.84-3.55-1.7-5.19-2.63s-3.1-1.92-4.17-2.66a5.28,5.28,0,0,1-1.72-1.61c0-.23.55,0,2,.59,1.33,1,2.63,1.89,3.88,2.75.63.44,1.26.82,1.9,1.18l1.87,1A52.25,52.25,0,0,0,53.21,327a31.54,31.54,0,0,0,3.32,1.11c1.09.33,2.15.63,3.19.91,2.09.51,4.14.82,6.16,1.17s4,.41,6.1.59l2.46.18,2.13.17c2.92.26,6.16.65,10.09,1.29-1.94-3.26,19.64-.24,22-2.89l-7.29-.31,15.48-1.89c14.26,2.71-12.65,2.64,9.06,4.61,20.05.42,19.55-3,35.31-3.18-5.21,1.9-17.71,3.5-30.43,3.39l7.7,1c-4.08,1.1-21.67.79-30.45.63,14.52-2.14-6.78-.7-13.37-2.46-1.23,1.86,8.09,1.6-2.91,3.05,10.3,0,11.81-.14,24.91.62-14.16-.48-20.54,1.11-26.46,2.61a70.83,70.83,0,0,1-9.47,1.92c-1.83.21-3.86.36-6.2.4H73.19l-.75,0c-1.1-.05-2.24-.11-3.41-.19s-2.39-.16-3.64-.33-2.55-.42-3.89-.67c5,.6,7,.26,7.31,0s-1.27-.68-3.43-1.25-5-1.34-7.32-2.2a31.19,31.19,0,0,1-4.75-2.05c-1.1-.25-2.3-.68-3.62-1.09s-2.75-.87-4.19-1.47-2.94-1.25-4.46-1.93c-.76-.32-1.51-.71-2.25-1.11l-2.22-1.21-2.19-1.23c-.72-.43-1.4-.9-2.08-1.35-1.36-.9-2.68-1.78-3.89-2.66-2.33-1.86-4.42-3.47-5.85-4.79,1,2.31,2.25,4.5,3.52,6.79a48.84,48.84,0,0,1-6.72-6c-.95-1-1.85-2.05-2.69-3.06s-1.53-2.12-2.24-3.16-1.37-2.06-2-3.11-1.12-2.12-1.64-3.18-1.05-2.08-1.49-3.16-.84-2.17-1.26-3.27-.84-2.18-1.19-3.31l-1-3.48c-.32-1.19-.74-2.37-1-3.63s-.58-2.54-.89-3.88c-.15-.66-.31-1.34-.47-2s-.24-1.41-.37-2.13c-.25-1.44-.5-2.94-.77-4.49s-.37-3.2-.58-4.91c-.09-.86-.18-1.73-.28-2.63l0-.3,0-.19,0-.38-.12-.77c-.41-.54-.64.1-.78,1.32,0,1,0,2.48,0,4a39.83,39.83,0,0,0,.37,4.77c.76,6.54,3,12.54,2,9.94-.39-1.25-.75-2.49-1.09-3.7s-.51-2.45-.74-3.64-.41-2.38-.59-3.54-.2-2.3-.28-3.42-.12-2.23-.15-3.31l0-.81v-.54c0-.29,0-.58,0-.86,0-1.14.06-2.24.11-3.31A111.34,111.34,0,0,1,1.4,251.17c1.15-7.41,2.78-14.5,3.84-24.6-.81-1.14-2.51-.92-3.91-8,1.61,2.22,2.46-3,3.61,4.95.71-6.75-.44-14.76-1.05-20.72-1,14.06-2.29-5.76-3.25-8.35.31-7.28,1.61,2.22,2.05,6.71.46-5.85,2.88-12.78.47-16.12,1.7-.22,4.41,16.37,4.8,27.21L8.27,205c.85,5,.6,6,.3,13.23,1.35-7.09,2.8-6.38,4-4.72-.25.92-.4-.53-.65.36-.46,5.84,0,10.32.9,9,2.26,5.27,1.46-8.09,2.62-12-.14-3-.28-6-.42-8.92L7.82,171.47c-.8-13,1-18.79,2.14-28.52l-2-2.68c.26-11.28.93-21.93,3.38-14.68-.65.4-.5,1.89-.61,4.34a3.87,3.87,0,0,1,.6,1.6c.12.24.23.37.34.56-.58-12.08-1-19.63-1-20.32,2.76,20.52,3.56,1,7,4.49l-1-20.72c-1.16,12.55-1.71.22-2.16-4.24,1-.61,1-4.78.81-9.71-.12-2.46-.24-5.12-.35-7.61-.06-1.24-.1-2.45-.12-3.57,0-1.55.12-3.16.24-4.47l.35.82a38.69,38.69,0,0,1,.63-4c.29-1.41.55-2.92.93-4.47s.9-3.13,1.38-4.76,1.21-3.23,1.84-4.87A64.2,64.2,0,0,1,31.08,31.55c-.21,0,.15-.86.92-2.25a59.53,59.53,0,0,1,3.63-5.17A68.71,68.71,0,0,1,46.75,13.49c-1.29.56-2.49,1-3.5,1.54l-2.73,1.39L38.4,17.51l-1.53.88c-1.73,1-2.26,1.11-2.26.84,0-.54,2.14-2.67,1-2.64.52-.32,1.12-.73,1.78-1.12l2-1.15a15.69,15.69,0,0,0,2.46-1.62c1.34-1.06.26-.68-1.29,0s-3.53,1.59-4,1.49A72.71,72.71,0,0,0,22.47,27c-1,1.18-1.92,2.47-2.83,3.7L18.3,32.51c-.42.64-.8,1.29-1.19,1.94-.78,1.28-1.52,2.57-2.23,3.83s-1.24,2.62-1.81,3.9c-.28.64-.55,1.28-.83,1.91s-.45,1.29-.67,1.92c-.43,1.27-.82,2.52-1.18,3.73A68.43,68.43,0,0,0,9,56.69a56,56,0,0,0-.28,6,16.2,16.2,0,0,0,.17,2.48c.1.77.22,1.48.36,2.12.42-1.89.58-3.63.86-5.33s.31-3.36.51-5,.53-3.4,1-5.21a26.84,26.84,0,0,1,2.19-5.54c-.38,1.52-.77,3.08-1.18,4.7s-.66,3.32-1,5-.55,3.55-.8,5.41c-.11.93-.25,1.88-.32,2.84s-.09,2-.14,2.94-.07,2-.1,3v2c0,1.33,0,2.7,0,4.11,0,2.82-.07,5.81-.1,9L8.44,89.38l.83,12.8C8.43,96.83,6.7,100,6.43,86.62c-1.55,1.7.29,13.31-.26,21.53l2.16,4.21c-1.21-1.62-1.52,16-3.12,3.46L3.52,95.48,2,101.12,1.66,83.93,2.77,88a82.28,82.28,0,0,1,.06-13.36,15.33,15.33,0,0,1,.58-2.82c.12-.34.24-.64.36-.92L4,70.48,4,70.29c0-.06.06-.22.1-.32.27-.9.54-1.79.79-3,.13-.61.26-1.29.39-2.09s.24-1.73.46-2.8.42-2.31.67-3.74c.14-.71.24-1.49.44-2.29s.4-1.67.63-2.59.48-1.9.74-3,.66-2.1,1-3.25l1.26-3.64c.52-1.25,1.1-2.56,1.72-3.94A50.16,50.16,0,0,1,25.89,18.55c.89-.83,1.82-1.67,2.79-2.51s2-1.58,3.11-2.38S34,12,35.19,11.31,37.65,9.85,39,9.13c.65-.36,1.3-.74,2-1.07l2.11-1c1.44-.63,2.9-1.31,4.45-1.87s3.17-1.08,4.84-1.59l1.26-.38,1.29-.31,2.66-.59c-1.29.34-2.41.66-3.4,1s-1.8.66-2.52.93A27.72,27.72,0,0,0,48.7,5.59c-1.16.66-.93.86-.31.94,1.26.17,4,0,.62,2l3.58-1.07c1.14-.35,2.23-.67,3.3-.9C58,6,60,5.53,61.79,5.19l5.08-.92c1.57-.3,3-.42,4.44-.64l2.06-.29,1-.14.23,0,.15,0,.3-.06,2.31-.48c1.51-.33,3-.65,4.63-.9,3.2,1.41,5.47,2.56-5.76,2.31C74.81,6.92,91,3.56,92,6.58,129.24,6.65,121.88-3,165.37,1l-1.64,1.2c27.63-1.39,43.56.13,69.15-.71L253,4.61c-4.5.45-16.62,2.7-11,4.21C232.24,5.66,221.84,6.71,211.29,5c-1.08.81,3.21,1.41,5.08,1.92-6.36-.06-9.56-1.47-18-1,.4.65,9.58,1.46,2.66,1.81l-11.44-2c-15.32.85-7.56,4.56-25.54,3.6a47.32,47.32,0,0,1,17.16-4.52c-8.22-.41,10.95-1,3.46-2.05-11.85,2.49-17.56.46-33.31,2a23.84,23.84,0,0,1,6.22-1L134.77,2.63c5.64,1.51-18.88,1.55-16.76,3.76,24.34,1,17.19-.34,44.93,1-7.86.47-18,2.66-22.75,4.7a6.21,6.21,0,0,0-1.49-.2c-4.25,2.16.07,2.77,0,6.58,12.67-2.65,21.13-.38,36.07-1.88,2.82-2.08-8.65-2.7-16.08-2.19l13.17-1.33-2.6,1,33.4.85c-6.33.08-8.49,1.28-11.79,2.18A114.69,114.69,0,0,1,204,18.38c-.95-2-.34-3.4,3.86-3.35,21.49.57,33.43,2.41,41.35,4.72l2.5-.13C248.07,17.56,266.94,16,273.6,14c-.33,2.11,11.07,1.32,17.26,2.42,3.31-2.4-1.08-5.77-8.61-7.78-14.54,2.15-8.15,2.2-15,5.31l-23.32,2L249.12,14c-11.62-.9-22.81,1.6-22-.91,6.16-1.65,16.3-.59,22.41-2.24l-7.69-.95c13.59-2.41,7,2.41,23.39.76-6-2.17,1.49-.15,8.54-1.56-5.65-1.51-28.94.49-24-3.12,8.56-1.55,28.74,4.38,40.07.82l-.56.41c16.68.54,22.56-1.51,28.81-2.78,7.09,1.2,16.9-.41,24.6-.51L342.56,5l10.85-.39c-5.17,1.9-12.72-.11-22,.13l1.15,2c-10.74-2.38-17.93,1.13-26.27,2.78,12.14-1.64,34.26.63,37.12-3.19l7.5,2,3.6-.69c5.58,1.51-.14,3.81-11,4.21-1.89-.5-2.83-.75-2.25-1.16-5,.85-9.67,2.36-21.85,1.85l6.51-1c-15.17-.21-29,.49-34.16,2.4,21.89.91,43.42,1.18,64,1.18,6.08-4.41,13.29-6.86,16.39-11,13.8-.7,32.53-1.19,44.5.37l-1.1.81a89.77,89.77,0,0,0,15.73-.2c6.17,1.11-4.24,2.16.06,2.77l19.77-1.3c-1.23,1.86-17.86,1.8-25.75,1.89,1.49-.15,4.5-.44,3.53-.7-9.18-.81-26.3,2.3-30.3-.42-4.48.45,9.09-1.95-6.05-2.16C382.36,4.09,379,6.49,378,7.3c-.17,1.06,15.91,1.52,10.33,2.77,7.89-.1,11-1.45,21.14-.38-7.83.09-18.47,2.19-22.63.53-15.48,1.9-13.28,6.87-6,7.18-1.73-1.57,28.24-1.8,8-3.91,9.12-2,25.77-1.9,37.7-3.1l-.55.4,14.81-.44c-2.09.55-6.57,1-6.72,2.05l20.51-2.74c-11.54,1.85,7.15,1.35,12.4,2.22,2.2-1.61,10.21-2.76,2.53-3.72-8.63-1.21-5,.85-12.88.94l11.13-2.5.95.25,6.71-2c15.14.21-6.64,4.82,12.78,2.86l-2.52-2.85c22.47.52,51.32,3.84,67.2,2.6-4.38,1.6-6.33,4.19-.31,5.76-6.85-.52-20.61-.48-30.43-.26-1.88-.5,12.29-3.3,22.95-2.64C539.9,5.59,518.21,13,517,8.23c-27.17-1.76-20.29,4.46-43.35,1.59-.33,2.11-6.57,1-7.79,2.85,6.82,3.47,30.85,0,45.81,1.29-1.46.15-4.41.45-5,.85a113.6,113.6,0,0,0,22.6-.54l-.94-.25c13.07-2,8.08,1.61,15.76,2.57,3-.3,13.67.35,12-1.2l13.91,2.07-.66-2.36c7.86-.11,9.57,1.46,16.69.06l.34-2.11-19.5-.82c9.89-.64,2.76-2,13.63-2.39C568.29,12.09,589,11,590.2,13l8-1.15-2.05.55c6.27,1.12,7.47-.75,14.79-.44-8.63-1.21-14.27-2.72-25.28-1.27,8-1.15,23.9-2.39,27.8-2.44,8.41-.85,14.27.78,22.13,1.05-15.1.78,5.26,6.41-25,4.77.56-.4,3-.3,4-.05-4-2.71-18.14.09-24.7,1.09,1.68,1.56-5.18,1.91,6.45,2.82-3.81-1,9.81-3.41,20.87-2.09l-2,3.3,16.11.46-1.51.16c6,2.16,17.19-.34,28.27,1,8-1.14,38.73-.07,25.53-3.59,10,2.11,18.69-.49,29.56-.89l-13.54-1.41c16-2.31,11.4-.8,24.23-4.51,1.29.91,4.14,1.67,1.54,2.61,21.5.27,52.21,1.34,64.84-1.32,15.16.21,17.52,4.13,38.8,2.69,4.48-.45-3.48-3.11,10.6-2.1,1,.25-13.57,2.4,2.12,2.21C853,11.9,868,15.93,882.53,13.78c7.67,1,21,.67,18.2,2.67-12.15-.51-29.35-.16-32,.79,1.68-1.21-8.64-1.22.32-2.11-18.36-1.61-11.93,1.2-28.4.08-1.14.8,8.46,2.27,12,1.57.06,2.75-32.5,1.18-17.87,4.55,17.61.32,22.86-5.4,38.11-2.43-6.12,1.65-15.68.18-23.47,3L862,23.11l9.11-2-.55.41c22.14,2.62,20.5-2.75,40.33-4-11.48-2,2.67-4.76-6-6,13.26-.3,23,.11,23.06,2.87-24.8,2.14-1.42,2.91-24.35,5.56,3.76,1-5.48,4,8.18,4.38,15.4-1.9-4.59-2.32,10.76-3.16.91.24,1.85.5,1.31.9,7.06-1.4,8.23.56,16.78-1l-2,.54c1.32.22,2.49.35,3.54.42.55,0,1,.05,1.55.07l1.75.06c1.11,0,2.12,0,3.08,0s1.86,0,2.75,0,1.77,0,2.68.1a19.11,19.11,0,0,1,2.83.46,23.94,23.94,0,0,1,3.19.92,36.56,36.56,0,0,1,3.66,1.78c-.94-.89-.92-1.26-.2-1.3a7.85,7.85,0,0,1,1.55.19c.64.17,1.41.44,2.27.74s1.81.68,2.81,1.07,2,1,3,1.45c2.08.94,4,2.17,5.81,3.06l-3.52-3L971.89,25a20.06,20.06,0,0,0-1.8-1.26l-1.88-1.23c-.64-.41-1.3-.83-2-1.24L964,20.18a35.34,35.34,0,0,0-5-2.15c-.92-.33-1.88-.65-2.89-1s-2.08-.52-3.21-.78-2.3-.48-3.55-.67-2.55-.26-3.92-.36l-2.07-.12-1.52,0-3.25,0c-2.19,1.61-.87,2.52-8.32,3.27l11.78-.15c-2.54.26-4.48.67-6.81,1L924,18.27c14.36-1.09,7.78-2.85,13.89-4.51,1.64.1,3,.16,4.25.21L944,14l2.12.11,3.36.15c1,.06,1.8.18,2.58.25a38,38,0,0,1,11.24,2.57c-.24.23.13.65,1,1.24.42.3,1,.63,1.6,1l1,.59,1.14.73c1.6,1.05,3.6,2.12,5.65,3.68,1,.76,2.14,1.5,3.24,2.38l3.32,2.83a61.2,61.2,0,0,1,12,14.88l1.16,2.14.56,1.06.49,1.11c.62,1.47,1.26,2.91,1.78,4.35s.91,2.9,1.32,4.29.6,2.79.86,4.1a52.69,52.69,0,0,0-3.15-9.35c-2-3.31-2.92-4.22-3-3.84a18.29,18.29,0,0,0,1.36,4.16c.44,1,.78,2.25,1.15,3.45s.75,2.35,1,3.44a16.76,16.76,0,0,1,.56,4c.6,1.7,1,3.46,1.48,5.23s.63,3.58.92,5.41c-.25-2.08-.94-4.83-1.06-.23,0,.76.09,1.46.13,2.13s.08,1.14.13,1.66c.11,1,.23,2,.37,2.77.29,1.64.63,2.91,1,4.19A40.56,40.56,0,0,1,1000.71,95c-1.31.8-3.26-8.35-4-1.63-1.15,2.31-4.22,9.69-3.13,24.07.5,1,.76,4.75,1,9.07a14,14,0,0,0-.21-1.62l-1.47,9.54c-2.19-8.15,1.13-16.45-1.08-24.64l-2.11-.7c0-6.37-.86-15-1.94-19-.41,9.7.14,11.75.54,22.6-1.35,1.51-2.32-6.14-2.46-7.24l1.21,1.63a57.93,57.93,0,0,0-.24-16.54c-.33-2.62-.7-5.34-1-8.41-.13-1.53-.23-3.15-.28-4.9,0-.87,0-1.77-.05-2.7s-.09-2-.11-3c0-1.26,0-1.5.11-1.38s.29.64.51.91c-.13-.85-.44-1.67-.64-2.49s-.4-1.64-.64-2.44-.53-1.59-.78-2.38l-.36-1.19-.46-1.16-.91-2.31c-.31-.76-.71-1.48-1.06-2.23a36.13,36.13,0,0,0-2.41-4.3,28,28,0,0,0-14.88-12.06A34.86,34.86,0,0,1,968,41.82a40.44,40.44,0,0,0-17.3-5L948,36.77c-.93,0-1.87.11-2.81.15-1.84.09-3.92.4-5.95.62L926.68,39l-.14.82c1.87.51-4.46.45-7.86.1h0c-8.46,1-16.59,1.87-23.23,2.53a41,41,0,0,0,8,1.09c2.64-1,18.14-.09,16-2.3,7.15,1.36,18.69-.5,23.95.36-4.79-.73-3.12-1.24,0-1.72l2.23-.25a21.1,21.1,0,0,1,2.32-.19,10,10,0,0,0,3.16-.36,9.89,9.89,0,0,0,3,1.37c1.25.45,2.62,1,3.89,1.45a25.92,25.92,0,0,1,3,1.61c.64.52.85,1,.39,1.22.29.32.26.28,0,0s-.34-.31-.59-.52-.58-.41-.94-.64a13.75,13.75,0,0,0-2.57-1.37,10.59,10.59,0,0,0-2.92-.64c-2.27-.12-2.41.17-1.59.63s2.54,1.26,4.18,2c1.55,1,3.07,1.77,3.45,2.36.21.26.17.4-.21.35a7.23,7.23,0,0,1-.86-.2c-.39-.09-.89-.21-1.51-.38,6.15,2,12.32,7.11,16,13.71a32,32,0,0,1,3.79,10.6,8.06,8.06,0,0,1,.2,1.38l.16,1.38c0,.48.13.87.16,1.43s.07,1.09.1,1.64c.14,2.17.31,4.29.52,6.34l.4-4.59.2-2.29c.07-.77.15-1.55.16-2.18,0,3.62-.11,9.71-.17,15s-.21,10-.66,10.66c-.2-5.42-.15-11.75-.49-18.68-2.11-.34-.06,16.65-1.37,17.42l3.41,20.14.15-8.82c1.26,5.56-.37,24-.72,37.64-2.86-7.85,0-20.61-1.08-35-1-10.45-2.82,6.43-3.47-3.45-.68,2.56-.63,9,.09,12.19l-.55,3.89c-2.58-8.82-1.91-28.58-4.11-41.74a8.44,8.44,0,0,0,.87,2.53q.4-3.8.61-7.61l.09-1.91,0-.95c0-.31,0-.68,0-.85l-.07-2.58a19.75,19.75,0,0,0-3.48-9.43,12.75,12.75,0,0,0,.66,2.18,8.46,8.46,0,0,0,.57,1.6c.5.89.79,1.67,1.24,2.58-.14.09-.37-.2-.64-.72-.14-.26-.28-.58-.43-.93s-.41-.71-.61-1.1-.42-.8-.63-1.21l-.8-1.12c-.26-.35-.48-.7-.74-1a9.34,9.34,0,0,0-.76-.71c.16.33.29.63.41.89a4.27,4.27,0,0,1,.2.73,5.51,5.51,0,0,1,.16,1c0,.45-.11.58-.27.66-.34.15-.6,0-.26,1.68-.24-.37-.4-.74-.63-1.09s-.46-.68-.67-1c-.35-.71-.87-1.33-1.29-2l-.31-.54-.39-.5c-.26-.35-.52-.71-.77-1.09s-.61-.71-.91-1.11a10.8,10.8,0,0,0-1-1.17c-.52-1.1,0-1.07.85-.87.43.08.84.26,1.21.32s.7,0,.85-.3a16.77,16.77,0,0,1-2.42-2.29c-.33-.41-.71-.74-1.05-1.15s-.67-.83-1.07-1.21-.83-.76-1.3-1.15A8.61,8.61,0,0,0,957,51l-.88-.48a11.82,11.82,0,0,0-4.68-1.38c2.37.91,3.28,1.53,3.29,1.92s-.77.33-2,.35c-.6,0-1.24-.11-2-.07s-1.45,0-2.15,0a26.38,26.38,0,0,0-3.55.43l.75.07.73.17c-.73.21-1.44.55-2.08.7a6.47,6.47,0,0,1-.93.16l-.58,0-.75,0a12.85,12.85,0,0,1-5.34-1c1.5-.15,3-.24,4.34-.3l3-.13c1.23-.09,1.92-.37,1.44-1.15l-1.93-.05h-.5l-.75,0-1.52,0c-2,.08-4.14.2-6.38.43l4.07-1.1-19.63.23c-3.12,1.36-8.32,3.26-11.05,5.27-4.7-1.26-11.26-.26-15.74.2l2.09-.56c-8.66-1.21-27.93-.32-29.56.88-6.19-1.1,43.77-7.5,0-6.57-16.63-.07-10.38,3.81-19.87,5.1,0,0,.53-.39-.41-.64-7.27-.32-8,1.15-14,1.74,4.36.61,10.68.66,12.72.11-2.2,1.61-15.15-.21-20.74,1,7.25-2.46-14.05-1-8.43-2.26a121.55,121.55,0,0,0-37.56,2c-9.8-3.16-17.22.34-33.15-1.17,2.45.1,6.9-.35,10.32,0,9.09-1.94-16.51-1.11-2.52-2.86-3,.3-.21,1,2.85.76,5.37-.2,10.42-1,9.08-2l-13-1.81,4.54-.46L735,46.23c-.54.39,1.31.9,2.25,1.15-22.85-1.17-49,.07-69-.34-3.78,5.57-49.31,2.17-65.51,5.53,4.34-1.58,6.73-4.4,4-5.57,3.61-.22,11-2.45,19.19-1.94,1.3.9,11.41,2,4.9,3,22.62-.53-3-2.46,3.63-4.51-25.06.43-39.78,3.64-55.6,4.89l-.4-.67-12,1.2c9.76.41,9.26,3.58-3.31,2.42l1.53-.15c-7.18-1.36-22.11.13-33.32-.12l-7.61,1.8c-11.22-.26-11.69-3.67-15.33-5.73-17.6-.32-27.77,2.43-40.28,4-5.64-1.52-32-2-18-3.72-15.88,1.24-12.71,9.22-39.91,4.69l7.07-1.41c-26,.19-63.16,2.88-75.15,1.32,9.63-5.12-32.48-5.39-37.09-10.47,1.29,1.16-8.49,1.5-9.92,2.11a18.18,18.18,0,0,0-9.5-.16c10.15,1.06-7.16,5.21,12.26,3.26-9.84,3.42-22.5,6.07-44,5.81l.33-2.11,17,.71c-1.71-1.56,7.05-1.4,10.64-2.11-31.66-1.32,4.17-4.91-28.2-4.78-3.14,1.35-1.11.8-9.52,1.3,3.95-.05,4.67-1.5-1.71-1.56l-6.13,1.66c-11.28-3.57,18.72-2.21,9.09-4.72,12.51-1.6,34.16-2.39,30.14-5.1-20.41-1.07-18.39,5-39.72,3.64l-2.27-1.15c-7.51.75-8.73,2.6-12.84,3.7-.37-.66-2.28-1.15-7.1-1.36-12.69,2.65-21.1,3.15-32.8,6,31.12-2.08,26.59,2.18,58.72.34-5,.86-27.65,1.4-29.06,4.3l.31-2.11c-10.45,1.06-20.89,2.1-34,1.34l8-1.15c-17.39,1.39-28.89-3.33-42.62.12A85.72,85.72,0,0,0,154,49.49c-8.95.9-20.18.64-29.9.24L104,53.12c.18-1-12.57-1.16-6.41-2.81a65.35,65.35,0,0,0-17.14.16q-1.71.24-3.3.51l-1.58.27-.77.13-.39.06-.21.08a13.43,13.43,0,0,1-1.58.54l-.39.1-.38.15a7.49,7.49,0,0,1-.76.25c-1-.21-1.62-.22-2-.33s-.49-.23-.38-.38a2.82,2.82,0,0,1,.89-.54,13.8,13.8,0,0,1,1.79-.52,18.57,18.57,0,0,1,2.29-.45l.6-.13a2.83,2.83,0,0,1,.44-.05l.52,0c.7-.06,1.38-.13,2-.21,2.57-.32,4.58-.78,4.94-1.5-2.55-.14-5.13-.24-7.7-.32-.85,0-1.59,0-2.39,0s-1.54.2-2.31.27a21.1,21.1,0,0,0-8.18,3.19,18.46,18.46,0,0,0-5.36,5.27,13.42,13.42,0,0,0-.79,1.41c-.13.22-.25.44-.37.66s-.16.46-.25.69c-.15.44-.31.86-.45,1.26s-.15.83-.21,1.21A8,8,0,0,1,55.08,61a9,9,0,0,1,.78-.63c.44-.31.72-.38.91-.18-.18,0-.42.17-.73.51a5.36,5.36,0,0,0-1,1.4c-.16.29-.33.59-.49.9s-.24.65-.38,1-.25.62-.38.92a8.34,8.34,0,0,1-.21.86,9.85,9.85,0,0,0,1,1.71,7.54,7.54,0,0,1-.53,1c-.18.29-.25.54-.38.73-.24.39-.48.56-.7.52-.4-.07-1-1-1.12-2.75-.1.45-.17.93-.23,1.41s.09,1,.14,1.51c.18,1.78.36,3.62.54,5.45.36,4,.51,8.1-.5,11.86-.4-3.12-.6-6.46-.7-9.81,0-1.67-.07-3.35-.08-5V70.55a2.7,2.7,0,0,1,0-.36c0-.43.06-.86.08-1.28.25-3.36,1.47-6,1.88-7.81a46,46,0,0,0-2.33,8c-.05.28-.11.56-.17.83a4.4,4.4,0,0,0-.19,1q-.18,1.45-.33,2.85c-.26,1.87-.5,3.67-.76,5.53-1,7.43-2,15.73-1.21,32.27-.66.4-1.91-5.2-2,1.17.44,14.76,2.81,3.87,4.31,8.48-.8-11.36.06-16.64,1.82-23.23l1.1,3c-.58.45-.64,7.59-1.21,9.69l2.26,1.84c-2.51-.86-4.47,10.55-3.57,19.53,1.86-9.06,1.76-6.61,4.63-9.06,2.65,12.62-2.73,14.22.08,28.37-.81-1.06-1.35-13.41-2-2.74-.14,8.83,1.82,7.66,2.41,13.58-2.06-6.68-3.62-5-6.07-12.21-.19-15.69.06-6.33-.78-21.67l-1.83,13c-.28-13.29-2.35-9.67-3.15-10.77-2.22,22.69,3.1,17.12,2.49,31.72,1.41,7,.36-13.68,1.82-2.66-.37,13.66,1.35,3.13,2.18,18.46l-.94-2.57c-1.26,4.68.25,9.32.43,14.74.61,6,7.3-6.72,7.33,17.8-.58-1.2-.94-1.64-1.19-1.64l-17.45-24c-.07,24.84-.69,53.47-2,82.24-3.47,6.76-2.74-20.55-4.29-18.8l.76-13.12c1.45.74.32,27.5,2.95,15.66-.95-23.18.78-33.69-2.13-55.68-3.47,6.81.48,28.95-2.24,43.24a112.65,112.65,0,0,0-.57-16q-.76,20.15-1.64,43.07l.82,3.44c.43-10.3.75-17.42.88-18.34A103.66,103.66,0,0,0,32.21,266c.09.58.18,1.15.3,1.68s.26,1,.4,1.5a16.54,16.54,0,0,0,.87,2.39c.73,1.3,1.44,2,2.09,2.12l-.25-2.21.73,2.16.36,1.06.48,1,.43,2.11c.16.71.42,1.38.62,2.07A30.2,30.2,0,0,0,39.8,284Zm874,24a6.37,6.37,0,0,0-2,.87C912.3,308.47,911.74,308.23,913.77,308ZM61.34,28A47.3,47.3,0,0,0,36,44.56a44.5,44.5,0,0,0-7.17,13.69l-.55,1.86A12.57,12.57,0,0,0,27.86,62c-.24,1.27-.49,2.54-.69,3.81s-.19,2.56-.29,3.84c-.06.67-.06,1.19-.07,1.74l0,1.65c.16-1,.33-2,.49-3s.43-2.19.64-3.26a24.09,24.09,0,0,1,.84-3.08c.16-.49.32-1,.47-1.47a10.08,10.08,0,0,1,.53-1.42,37.78,37.78,0,0,1,2.47-5.1c.46-.77.87-1.53,1.33-2.22L35,51.56a28.17,28.17,0,0,1,2.8-3.23A19.52,19.52,0,0,1,40.36,46,12.15,12.15,0,0,1,44,43.76c.78-.25,1.07,0,.8.67A7.28,7.28,0,0,1,44,45.9c-.44.6-.88,1.46-1.53,2.42a47,47,0,0,0-4.4,8.52c-.18.48-.36,1-.54,1.49a13,13,0,0,0-.53,1.6c-.25,1.12-.64,2.28-.86,3.54-.1.63-.2,1.28-.3,1.94a13.52,13.52,0,0,0-.24,2c-.06,1.42-.2,2.83-.17,4.53l.34,3.45c.08-.86.15-1.8.22-2.81s.08-2.13.21-3.12.16-2.13.34-3.24.39-2.26.66-3.42a39.15,39.15,0,0,1,6.29-13.73,32.4,32.4,0,0,1,1.92-3.57c.44-.67.84-1.47,1.39-2.18l1.72-2.3a45.17,45.17,0,0,1,9.68-8.76L61,30.58c.93-.56,1.9-1,2.81-1.42a47,47,0,0,1,5.11-2.11A17.56,17.56,0,0,1,71,26.37l1.59-.48c.87-.27,1.35-.45,1.3-.52a12.49,12.49,0,0,0-6.69,0l-2,.42c-.69.17-1.38.4-2.1.6s-1.46.4-2.22.59-1.53.47-2.34.68C59.49,27.78,60.41,27.8,61.34,28Zm14.12,6.55c10.32.6,8-.51,9.58-1.5l-10.83.34C75.55,33.6,76.25,34,75.46,34.53Zm9-2.49a14.33,14.33,0,0,1-2.67-.22ZM32.12,197.81c0-.46,0-.62-.06-1.06-.08,2.44-.17,4.88-.26,7.43A48.49,48.49,0,0,0,32.12,197.81Zm2.52-20.94-1.8-2.45q-.12,3.41-.24,7C33.42,180.6,34.14,179.79,34.64,176.87Zm6.27-67.3c-2.16-4.25-2.19-18.47-4.71-19.35-.64-.91-.9,2.08-1.12,5.43q-.12,5.63-.26,12c.36.15.7,1,1,2.4.33-4.18,1-7,2.51-5.27-3.42,10.74,2.36,9.65,1.44,21.28C41.55,129.75,41.61,113.1,40.91,109.57Zm825.3-73.51a30.2,30.2,0,0,0,3,1.5l-8.2,1.21c-14.61-.61-26.31-4.28-39.48-1.23A39.68,39.68,0,0,1,809,33.69c3,.12,5.84.26,8.18.48C854.09,29.78,836.39,39.06,866.21,36.06ZM698.16,30.89a4.47,4.47,0,0,0,2.05-.55C667.53,34.81,640.63,36,623,35.77c3.41,1.85,19.19,3.34,26.69,4.13L643.06,42l-4.15-1.65-11.54,1.84c3.22,1.42,12.54,1.16,18.76,2.27.54-.39,20.5-2.74,26.08-4L656.28,38.9c4.3.6,25.44.21,33.83-.29.17-1-14.27-2.72-16.1-.45-1.71-1.56,15-1.51,4.42-3.22,12.49-1.59,32.34-.12,41.55.68l1.55,2.62c10.1,1.06,6.84-3.11,18.85-1.55-14.77.44,2.48,2.87-9.27,3,3.75,1,.07,2.76,11.84,2.62,9.81-3.41,12.39,2.21,21.67-.79,6.18,1.1-6.67,2,5.5,2.56,14-1.75,13.17-3.06,14-5.56-13.06-.77-14.69,3.2-25.36,2.54l21.26-4.21a40.78,40.78,0,0,0-9.24-.54,50.72,50.72,0,0,0,11-1.72c1.77-.48,3.4-.9,4.91-1.25-12-.08-22.73-.19-24.61-1.26l1.66-1.22c-4.26-1.13-11.21-.29-14.41.59-10.78.08-21.56,1.74-23.91.15l4.1-1.1C716.31,30.8,714.83,31,698.16,30.89ZM263.69,26.21c8,4.5,16.85,8.49,54.33,7.87l-2.95.3c18.87,2.88,36.84-3.55,59.8-.33-11.15,1.63-10.55,1.48-22.88,5.28l12-1.21c-3.33,2.41,8.61,1.21,17.39,1.36l-7.76,2.86c-5.27-.85-18.92-1.22-18.53-.55,3-.31-18-3.74-29.44-2.94,1.17,2,25.29,1.27,14.51,4.43,9.49-1.3,10.66.65,20.58,0-9.51,1.3-2.36,2.66-9.45,4.06l16.27-.59c.42.65-23.7,1.34-10.38,3.81,6.52-1,23.92.37,24.24-1.74l.4.65c12.19.51,5.37-3,20.34-1.7.18-1.06-2.67-1.8-8-1.61-4.54.45-5.24,1.9-14.58,2.16-4.18-1.67,11.26.25,4.79-2.57-3.21-1.4-24.65,1.09-17.81-2l12.17.5c.32-2.11,9.13-2,8.89-3.65,7.45-.75,14.46,1.66,22.07-.14,3.16-1.35-2.34-3.92,10.23-2.75,9.81,3.16,38.77,2.68,49.61,2.28l9.5-1.3c-.8-1.3-18.13.09-12-1.56l14.8-.45-1.14.81c4.9.2,9.92-.65,14.39-1.09-4.61,1.5-15.28.84-13.17,3.05,6.95.46,8,1.28,14.4.89-1.4.15-2.6.36-2.42.67,14.06,1,13.59-2.4,17.12-3.11,14.15-2.79-14.24-2.71-12.42-5l41.29-1c-3.53.7-7.08,1.4-5.76,2.31,10.12,1.06.23,1.7,14.44,1.66-1-3,17.91-1.8,28-3.49,4.68,1.25,5.65,1.5-4.61,1.5,1.16,1.95,14.94,1.26,19.84,1.46,2.84-.47,7.68-.73,10.75-1.15-4.1-1-2.35-2.21,6.55-3l.52-.4c-14.58-.6-37.23-2.83-46.38-.87l2.59-1c-16.88-1.76-36.75,3.35-44.52-.38.73-1.45-3.39-.35-3.08-2.46l-12.44,1.6,2.59-.94-21.14.38.56-.39c-10.06,1.86-17.94,3.39-24.23,4.63,0,.92.62,1.21-2.73,1.87a42.69,42.69,0,0,1-8.19.37h0c-5.19-.29-8.64-1.63-15-2.2l19.65-.14c1.61-1.55-.05-3.18-9.68-4.32,3.94,0,5.59-1.25.72-1.45-.54.4-12.89.94-8.19,2.21-18.67.49-48.89-3.75-77.25-.91,20.37-1.69-16.32-2.16,6.3-2.71-15.78-2.56-13.6,2.41-29.69,1.94-1.36-.9,8.76.16,12.47-1.6-26.75-1.11-45.16,3.85-71,3l-1.1-2Zm-51.21,2.2L197.31,29l1.49.06-15,1.51c9.19.8,15.24,3,2.37,3.91,1.08-.8-2.67-1.81,1.8-2.26-8.62-1.21-27.53-2.42-22.61.54,16.58-2.71,3.84,3.77,16.87,1.76-7,1.89-13.91,1-20.52,1.83,6.88-1.58-1.58-3.65-11.9-4.46-4.49.45-16.65-.05-24.12.69,2.66,1.81-3.85,2.82,8.31,3.32a86.15,86.15,0,0,1-19.1-.16c3.07-.29,8.43-.49,8.07-1.15-5-1.67-10.83-1.63-14.06-2.35l-7.69.26a6.52,6.52,0,0,1,1.86.62L94.56,34.7c11.39-.8,5.26.85,5.11,1.9.31-2.1-7.33-.3-11.23-.25l8.46,2.27c-4.1,1.09-14.44-1.68-12.32.54,18,1,24.87.61,41.12,0l-6.59-1.76c18.33-1.14,11.29,3,31.85,3,8.56-1.55,30.93,0,31.37-3.14-2.58.95,12.79,2.87,19.84,1.47,7.81-2.86,31.36-3.15,24.23-4.5-6.36-.06-14.93,1.49-20-.42l12.35-.55-8.1-1.61C214.8,32.29,214.4,30.74,212.48,28.41ZM11.66,145.3c0,.14,0,.31,0,.48,0-.18,0-.36,0-.53Z" style="fill:#03709a"/><path d="M989.4,116.8c.7,3.55.54,12.33,2.1,10.61C989.8,127.62,991.31,111.73,989.4,116.8Z" style="fill:#03709a"/><path d="M987.68,127.29c.4.61,1.06.19,1.1,4.13l-.38-10.85Z" style="fill:#03709a"/><path d="M976,138.24a62.94,62.94,0,0,1,1.79,17.92c-4.17,3.28-1.1-14.38-5-18.37-.46,16.08,3.15,21,3.44,34.28C978,165.52,979.14,138.73,976,138.24Z" style="fill:#03709a"/><polygon points="970.76 131.07 971.66 140.02 971.91 139.14 971.01 130.18 970.76 131.07" style="fill:#03709a"/><path d="M869.61,12c-.8-1.3-6.38-.05-9.37.25A37.38,37.38,0,0,0,869.61,12Z" style="fill:#03709a"/><path d="M712.45,334l68.27-1C761.08,333.3,742.94,333.39,712.45,334Z" style="fill:#03709a"/><path d="M643.07,19.46c18.34-1.15,26.49-3.35,45.17-3.84-24.55-2.72-32.46,4-53.06,1.18Z" style="fill:#03709a"/><path d="M649.58,9.12c3,2.46-14.15,2.81-11.5,4.61,12.36-.54,5.76-2.3,17-2Z" style="fill:#03709a"/><polygon points="732.46 49.94 726.89 51.19 731.37 50.75 732.46 49.94" style="fill:#03709a"/><polygon points="566.04 10.93 568.07 10.38 558.89 9.57 566.04 10.93" style="fill:#03709a"/><path d="M570.1,9.83l-2,.55Z" style="fill:#03709a"/><polygon points="725.29 55.16 733.55 55.72 737.64 54.62 725.29 55.16" style="fill:#03709a"/><path d="M652.45,41.71l7.39-.75C658.37,41.1,648.27,40.05,652.45,41.71Z" style="fill:#03709a"/><polygon points="509.93 9.64 500.93 10.54 501.85 10.79 510.81 9.89 509.93 9.64" style="fill:#03709a"/><path d="M594.58,48.2c5.1,1.91-14.74.45-4.25,2.16C599.68,50.11,595.89,49.11,594.58,48.2Z" style="fill:#03709a"/><path d="M486.16,35a21.3,21.3,0,0,0-3.72.26C483.91,35.15,485.14,35.06,486.16,35Z" style="fill:#03709a"/><path d="M486.16,35c3.92,0,7.83.75,10.52.22C491.8,34.32,490,34.63,486.16,35Z" style="fill:#03709a"/><path d="M441.31,35.21l3.55.15c-3.63.91-1.91.78,1.33,0,3.76,0,3.55-.64,4-1l2.32-.72c-1.16.23-2.21.47-3.09.67C443.59,34.27,440,34.34,441.31,35.21Z" style="fill:#03709a"/><path d="M274.82,2.77c13.11.76,16.5,1.11,15.78,2.57,12.44.52,10.52-2,18-2.55C294.55,3,291.67,2.32,274.82,2.77Z" style="fill:#03709a"/><path d="M308.63,2.79l4.92-.1A48.64,48.64,0,0,0,308.63,2.79Z" style="fill:#03709a"/><polygon points="493.66 51.41 485.51 53.6 488.5 53.31 493.66 51.41" style="fill:#03709a"/><path d="M255.36,2c2.44.11,6.33.06,8.24.57C264.31,1.05,252.94,1.85,255.36,2Z" style="fill:#03709a"/><path d="M305.8,30.81c1.33.9,9.72.4,13.14.76C314,31.36,310.06,28.65,305.8,30.81Z" style="fill:#03709a"/><path d="M217.72,7.81c2.44.11,6.17,1.1,4.55,2.31C225.8,9.42,230.59,6.86,217.72,7.81Z" style="fill:#03709a"/><polygon points="281.85 30.44 283.71 30.95 292.69 30.04 281.85 30.44" style="fill:#03709a"/><path d="M313.75,52.15c10.1-1.7-16-4.28,1.4-5.68-22.41-1.92,1.71,2.48-14.83,2.12C310,49.23,314.74,51.45,313.75,52.15Z" style="fill:#03709a"/><path d="M300.32,48.59c-1.41-.09-2.93-.15-4.58-.17C297.57,48.51,299,48.57,300.32,48.59Z" style="fill:#03709a"/><path d="M158.35,36.94c1.47-.18,2.47-.37,3.39-.57A32.85,32.85,0,0,0,158.35,36.94Z" style="fill:#03709a"/><path d="M247.5,49.8l15.14-2.55c-10.11,1.7-35.53,1.48-34,4.09,8.23.57,18.14-.08,22.21-1.19Z" style="fill:#03709a"/><path d="M73.78,1.82l.68-.08.46-.07.82-.12,1.63-.26,3.27-.5L76.56.62,74.47.54,71,.59C75,.82,67.92,3,73.78,1.82Z" style="fill:#03709a"/><path d="M68.31.67,71,.59A17.87,17.87,0,0,0,68.31.67Z" style="fill:#03709a"/><path d="M187,35.81a90.35,90.35,0,0,0,13.26-.3C198.37,35,186.2,34.5,187,35.81Z" style="fill:#03709a"/><path d="M13.82,43.07c.64-1.35,1.29-2.7,2-4s1.5-2.57,2.28-3.84c.39-.63.78-1.27,1.19-1.89l1.31-1.8c.89-1.19,1.77-2.39,2.72-3.53A68.82,68.82,0,0,0,12.87,44.44Z" style="fill:#03709a"/><polygon points="2.95 103.75 2.46 105.61 3.35 114.56 3.85 112.67 2.95 103.75" style="fill:#03709a"/><path d="M60.34,57.67a5.12,5.12,0,0,0,.94-.85,6.79,6.79,0,0,0,.86-.83c.47-.64.94-1.16,1.25-1.7.6-1.13.85-1.89.23-1.93A22.88,22.88,0,0,0,57.53,57,2.94,2.94,0,0,0,59,56.75a1.8,1.8,0,0,0,.79-.74c.12-.17.24-.37.39-.59a4.44,4.44,0,0,1,.61-.63c.25-.23.53-.47.87-.74a8.53,8.53,0,0,1,1.32-.66l-.8,1c-.24.37-.45.75-.67,1.1a11.43,11.43,0,0,0-.62,1.07Z" style="fill:#03709a"/><path d="M219.67,334c-3.18,1.35-18.68.49-19.49-.81,2.09-.56,10.5-1.06,5.22-1.91l-12.28,3.31c-16.31-2.17,12.42-4.37,20.49-5.52-16.63-.5-21.56,1.68-39.25,1.59a52.7,52.7,0,0,1,11.26,1.91c.59,2.37-15.88,1.25-27.66,1.38,7.49,1.07,3.15,1.91-2.32,2.82a7.91,7.91,0,0,0-2.1.36l-1.86.32h1.42c-.11.26.21.59,1.22,1,9.89-.65,17.44,1.36,23.8,1.42-6.27-3.87,21.68-.79,29.68-1.94l9.24-.34h3.46c.69.42-.29.95-5.57,1.68,4.4-.73,19.07-.4,17.72-1.64l33.47.09a16.11,16.11,0,0,1,2.85.64c1.16-.24,1.36-.44,1.21-.63l145.82.39c-7.19-.33-13.41-1.24-20.83-1.69,11.15-2.51-12.16-.52-8.88-2.92a64.15,64.15,0,0,1,16.69.06c1.63-1.21-4.58-2.32-3.86-3.77-18.38-1.61-21.22,4.21-39.2,3.24.72-1.46,6.28-2.71-5.49-2.57l3-.3c-18.86,1.56-14.67-3.36-26.55.59l.32-2.11c-8.56,1.55-25.19,1.49-34.56,1.74l.56-.4c-26.31,2.3-14.76.45-44.29,1.33l13.6-2.4c-10.18-1.06-12.49,1.6-19.8,1.29.52-.4-1.17-2,5.74-2.31l-35.84,3.6C208.06,333.07,218.34,333.07,219.67,334Z" style="fill:#03709a"/><path d="M174.36,330.64c-1.89-.12-4.05-.17-6.59-.1C170.22,330.61,172.34,330.63,174.36,330.64Z" style="fill:#03709a"/><path d="M426.24,338.17l-10.24,0C419.17,338.29,422.48,338.34,426.24,338.17Z" style="fill:#03709a"/><path d="M123,335c6.21,1.12-4.66,1.51-5.74,2.31l22.25.06c-.1-.81,2.11-1.71,1.66-2.46Z" style="fill:#03709a"/><path d="M145.93,339c.75-.56,3.11-1.05,5.75-1.52l-12.18,0C139.57,338,140.93,338.56,145.93,339Z" style="fill:#03709a"/><polygon points="143.76 295.58 147.71 295.52 153.66 294.92 143.76 295.58" style="fill:#03709a"/><path d="M205.35,299.42c-4.7-1.25-13.63-.35-16.62-.05C199,299.37,194.56,299.82,205.35,299.42Z" style="fill:#03709a"/><polygon points="192.7 286.17 202.61 285.51 201.69 285.27 192.7 286.17" style="fill:#03709a"/><path d="M502,330.2l4.84-.12C504.62,330.07,503.17,330.12,502,330.2Z" style="fill:#03709a"/><path d="M416.92,331.84c23.63,2.47-15.51,1.9-8.09,5l12.87-.95-1.1.81,15.7-.19c-3.21-1.41-5.63-1.51-4.93-3,20.95.67,6.6,1.77,22,3.68l23.42-.17-1.9.43a10.76,10.76,0,0,0,3.52-.43l78.93-.57c14.36-1.09-7.93-2.66,2.67-4.76-16.64-.07-41.37-1.74-42.79,1.17.56-.4,1.66-1.2-1.71-1.55l-9.64,2.35,9.18.81c-9.69,2.34-40.94,1.68-46.59.17,17.78-.74,8.87-3.66,33.63-2-1.11-.74-5.64-2.06-.06-2.44C473,330.92,447,329.48,416.92,331.84Z" style="fill:#03709a"/><path d="M708,331.71l-.23.26C708.24,331.84,708.41,331.73,708,331.71Z" style="fill:#03709a"/><path d="M698.21,331.31l-14.15,2.79,22.05-.13,1.61-2c-2,.51-9.69,1.49-12.68.69Z" style="fill:#03709a"/><path d="M667.63,335.76c11.39-.8,10.78-3.16,4.58-4.27,10.46-1,5.5,2.56,12.71.1-.22-1.7-13.12-.76-16.08-.46Z" style="fill:#03709a"/><polygon points="583.63 334.15 586.83 333.18 578.94 332.89 583.63 334.15" style="fill:#03709a"/><path d="M586.83,333.18l7.83.3a4.85,4.85,0,0,0-2.35-1.94Z" style="fill:#03709a"/><path d="M615.2,334.25c3.32.19,7,.34,11.45.42Z" style="fill:#03709a"/><path d="M606.25,333.61l.27.31,8.68.33C612,334.05,609.13,333.84,606.25,333.61Z" style="fill:#03709a"/><path d="M594.66,333.48c1.27,1.66,2.75,3.4,14.07,3l-2.21-2.55Z" style="fill:#03709a"/><polygon points="264.79 288.97 273.75 288.08 272.81 287.82 263.85 288.72 264.79 288.97" style="fill:#03709a"/><path d="M316.45,290.71c2.22-.28,3.9-.58,5.42-.88A21.93,21.93,0,0,0,316.45,290.71Z" style="fill:#03709a"/><path d="M354.91,279.59c10.53,1.71-14.54,2.13,5,3,1.71,1.55-7.45,3.51-16.62,2.7.73-1.46,8.95-.9,3.31-2.41-6.11,1.66-8.42.5-6.31,2.71-10.27,1.32-11.42,2.88-18.39,4.28,12.41-.91,38.45,1.45,54.2-1.3,8.69-2.6,3.45-6.22,3.5-10C378.27,277.59,355.77,277.07,354.91,279.59Z" style="fill:#03709a"/><path d="M338.36,275.71A51.27,51.27,0,0,0,329,276C329.8,277.26,334.42,275.75,338.36,275.71Z" style="fill:#03709a"/><path d="M450.25,304.91c.94-.54,9.76-1.17,7.87-2.12l-13.38.63A9.75,9.75,0,0,1,450.25,304.91Z" style="fill:#03709a"/><path d="M438.88,303.68l5.86-.26A43.23,43.23,0,0,0,438.88,303.68Z" style="fill:#03709a"/><path d="M450.89,305.25c-.21-.11-.4-.23-.64-.34C450.06,305,450.1,305.14,450.89,305.25Z" style="fill:#03709a"/><path d="M647.65,335.35c-.2,1,5.76.44,8.76.14A61.27,61.27,0,0,0,647.65,335.35Z" style="fill:#03709a"/><path d="M872,332.21l5.26.86A18.94,18.94,0,0,0,872,332.21Z" style="fill:#03709a"/><path d="M951.3,302.79a1.68,1.68,0,0,1,.72-.72A1.42,1.42,0,0,0,951.3,302.79Z" style="fill:#03709a"/><path d="M952,302.07a16.19,16.19,0,0,1,2.9-1.3c.62-.19,1.23-.55,1.91-.81a18.54,18.54,0,0,0,2-.94l2-1.09a18.2,18.2,0,0,0,1.72-1.26,7.33,7.33,0,0,0,2.21-2.48l0,.56,1-1.11.88-1.2.87-1.19c.28-.4.5-.84.75-1.26l-.65.87a10.88,10.88,0,0,1-.81.89l-.89.95-.46.5-.53.47-1.09.95a9.41,9.41,0,0,1-1.14.95c-.82.57-1.59,1.24-2.43,1.76s-1.66,1.08-2.48,1.55-1.61.86-2.32,1.28-1.42.68-2,1S952.38,301.85,952,302.07Z" style="fill:#03709a"/><text transform="translate(45.59 222.63) rotate(0.25)" style="font-size:190.61712646484375px;fill:#fff;font-family:Calibri-Bold, Calibri;font-weight:700;letter-spacing:-0.03399986743817224em">Mi<tspan x="200.46" y="0" style="fill:#de2c5b;letter-spacing:-0.08038498004047939em">V</tspan><tspan x="297.85" y="0" style="fill:#de2c5b;letter-spacing:-0.05401862461660334em">o</tspan><tspan x="390.03" y="0" style="fill:#de2c5b;letter-spacing:-0.034002429019385084em">x</tspan><tspan x="471.13" y="0" style="fill:#acd5e1;font-size:180px;letter-spacing:-0.05011121961805556em">P</tspan><tspan x="557.91" y="0" style="fill:#acd5e1;font-size:180px;letter-spacing:-0.034003363715277776em">ópuli</tspan></text></g></g></svg>