<svg xmlns="http://www.w3.org/2000/svg" xmlns:xlink="http://www.w3.org/1999/xlink" viewBox="0 0 371.24 391.22"><defs><style>.cls-1{fill:none;}.cls-2{fill:#c4d8bf;}.cls-3{fill:#66bfd0;opacity:0.7;}.cls-4{fill:#7c0909;}.cls-5{fill:#5b0505;}.cls-6{opacity:0.2;}.cls-7{fill:#045a63;}.cls-8{fill:#7c3d21;}.cls-9{fill:#ffcebb;}.cls-10{fill:#eaa27d;}.cls-11{fill:#932525;}.cls-12{opacity:0.5;}.cls-13{fill:#ffa49f;}.cls-14{fill:#1a5f72;}.cls-15{fill:#014860;}.cls-16{fill:#a9d8d5;}.cls-17{fill:#470202;}.cls-18{fill:#a00505;}.cls-19{fill:#272525;}.cls-20{clip-path:url(#clip-path);}.cls-21{fill:#f97d7d;}.cls-22{fill:#fff;}.cls-23{clip-path:url(#clip-path-2);}.cls-24{clip-path:url(#clip-path-3);}.cls-25{fill:#d89a00;}.cls-26{fill:#4b1e02;}.cls-27{fill:#ff9393;}.cls-28{fill:#6b3c22;}.cls-29{fill:#d8a188;}.cls-30{fill:#b77b63;}.cls-31{fill:#ffbab8;}.cls-32{fill:#465f60;}.cls-33{fill:#023f49;}.cls-34{fill:#ffcd00;}.cls-35{clip-path:url(#clip-path-4);}.cls-36{clip-path:url(#clip-path-5);}</style><clipPath id="clip-path"><path class="cls-1" d="M112.2,150.12c2.84,7.21,8.64,13.29,16.6,13.76,11.36.66,19.44-7.86,18.56-17.69C132.94,154.49,112.2,150.12,112.2,150.12Z"/></clipPath><clipPath id="clip-path-2"><path class="cls-1" d="M17.2,228.73a54.74,54.74,0,0,1,7.7-4.28c1.31-.61,2.63-1.19,4-1.75l2-.85a4.84,4.84,0,0,1,1.1-.43c1.31-.19,1,2.46,1,3.23a17,17,0,0,1-.85,5.88c-.27.77.44,2.61-.07,2.56a9.4,9.4,0,0,0-7.06,2,10,10,0,0,0,0-2.18c-3.06,1.09-6.11,2.84-9.39,3.71a15.43,15.43,0,0,1-4.7.67c-.55,0-1.52,0-1.89-.55-.93-1.29,2.22-4,3.06-4.63C13.74,230.81,15.52,229.88,17.2,228.73Z"/></clipPath><clipPath id="clip-path-3"><path class="cls-1" d="M78.78,329.85c.44,3.28,3.43,6.17,6.27,7.48-2.18,1.53-2.25,1.87-2.69,4.49-.44,2-.09,4.19-.09,6.37,0,2.62.66,13.32-3.71,9-3.71-3.49-4.37-17.91-4.59-22.71A54.38,54.38,0,0,1,78.78,329.85Z"/></clipPath><clipPath id="clip-path-4"><path class="cls-1" d="M245.69,171.36c11,2.31,27.29-5.38,35.56-11.58-.83,8.27-5.59,13-14.89,17.53-6,3-16.54,2.74-20.68-5.95"/></clipPath><clipPath id="clip-path-5"><path class="cls-1" d="M244.86,289.21s12.61,7,13.23,7.65-8.06,15.71-5.79,16.33,12.82-16.33,12.82-16.33l-7.57-5c-3.8-2.49-8.37-4.68-11.83-7.6-1.94-1.64-3.81-3-5.82-4.39s-.89-2.32,1.16-3.65c1.35-.88,2.67-1.82,4-2.73l10.36-7.07,14.24-9.71,22.74,6.82c-2.43,5.85-4.7,11.77-6.87,17.73-3.1,8.49-7.23,18-8,27.1-.47,5.73,1.37,12.11,2.72,17.75,1.58,6.62,3.62,13.14,4.47,19.91.21,1.65-2.27,18.82-1,21.09s3.31-3.1,5-6.62a68.25,68.25,0,0,0,3.11-8.76s-1.25-5.1-1.87-7.78c-1.13-4.88-2.37-9.78-3.3-14.7-.65-3.47-1.44-6.92-1.82-10.46-.29-2.69-1.69-8.2-.88-10.61,0,0,12.2-36.39,14.47-42.18s2.27-18.19,2.27-18.19L295.93,202s40.94,17.37,42,14.68-4.55-43.21-4.55-43.21a13.66,13.66,0,0,1,3.4-1.47,31.2,31.2,0,0,0,4.75-2,12.85,12.85,0,0,0,3.2-2.35c1.26-1.42,1.35-3.86,1.62-5.64a7,7,0,0,0,0-3.46,3.81,3.81,0,0,0-.67-1.41,20.45,20.45,0,0,0-2.19-1.65c-3.33-3-6.42-7.12-10.54-2.81s-.21,6.32-.21,6.32a10.57,10.57,0,0,0-2.23-.21c-3.72.41-4.59,6.2-4.38,8.43s2.27,5.42,2.48,6.88,1.24,34.1,1.24,34.1-26.46-16.75-33.08-18.82-13.23,3.72-13.23,3.72l-3.1,1.24c-1.45-2.07-3.52-5.38-3.72-7.65a68.82,68.82,0,0,1,7-3.72,56.34,56.34,0,0,0,10.59-6.3,35.06,35.06,0,0,0,6.25-6c1.55-2,2.2-4.52,3.85-6.43,1.31-1.51,2.93-1.9,4.72-2.75,3.84-1.81,7.76-4.66,7.76-9.34,0-7.18-10.49-1-10.14.45,0,0-2.69-11.16-3.31-16.13-.1-.77-4-3.2-4.56-3.77-2.09-2-4.83-3.61-6.54-5.89-3.34-4.48-4.65-11.12-3.79-16.59,0,0-8.89,4.55-23.16,5-11.9.35-24.46,3.75-30.91,13.1a24.44,24.44,0,0,0-3.9,9.74,28.47,28.47,0,0,0,.49,11.49c.83,3.51,2.48,8.27,2.07,11.79-.83,5.79-4.13,9.92-1,16.13,3.31,6.62,14.68,9.1,21.3,9.92,3.93.41,8.06,0,12,.21,5.38.21,4.76,2.48,7.24,6.62a19.61,19.61,0,0,1-4.34.41c-.62,0-1.24.21-1.65.21h-5c-4.34,0-10.54-.41-14.06-1.45a124.12,124.12,0,0,1-12.2-4.75,115.34,115.34,0,0,1-14.27-7.24c-5-3.1-7-7.24-9.92-12.61-2.6-5.07-5.27-10.11-7.65-15.29-1.18-2.56-2.47-5.2-3.41-7.86-.78-2.22,0-2.48,1.09-4.6,2.93-5.52,4.23-9.73,2.64-19.85-.32-2-1.32-2-1.75-2.29s-1.1-5.46-1.25-7,.06-3.56-.42-5-2.39-3-3.09-.65a3,3,0,0,0-2.94.73c-.73.63-.66,1.55-1.2,2.25s-1,.45-1.6.88a4.65,4.65,0,0,0-1.5,3.39,14.12,14.12,0,0,1-.29,2.64A12.45,12.45,0,0,0,189,120c.08,2.31.19,4.7.46,7a20.85,20.85,0,0,0,.39,2.34,11.37,11.37,0,0,1,.62,2v2.07c.83,11.58,5.17,12.51,5.17,12.51s2.48,27.19,18,40.63,48.17,17.78,48.17,17.78l7.3,33.22s-.27,11.23-3.58,14.53c-4.86,4.86-11.12,8.71-16.62,12.79q-5.52,4.11-11.05,8.21c-3,2.24-9.16,5-4.64,8.84C236.64,284.72,241.06,286.86,244.86,289.21Z"/></clipPath></defs><title>participa</title><g id="Capa_2" data-name="Capa 2"><g id="Capa_1-2" data-name="Capa 1"><polygon class="cls-2" points="193.93 8 203.25 97.63 231 11.9 221.48 101.5 266.44 23.41 238.5 109.08 298.72 42.05 253.58 120.04 326.42 66.99 266.05 133.89 348.33 97.14 275.37 150.03 363.49 131.19 281.13 167.75 371.24 167.65 283.07 186.28 371.24 204.92 281.13 204.82 363.49 241.38 275.37 222.54 348.33 275.43 266.05 238.68 326.42 305.58 253.58 252.53 298.72 330.52 238.5 263.49 266.44 349.15 221.48 271.06 231 360.67 203.25 274.94 193.93 364.57 184.61 274.94 156.86 360.67 166.38 271.06 121.42 349.15 149.36 263.48 89.14 330.52 134.28 252.53 61.44 305.58 121.81 238.68 39.53 275.43 112.5 222.54 24.37 241.38 106.74 204.82 16.62 204.92 104.79 186.28 16.62 167.65 106.74 167.75 24.37 131.19 112.5 150.03 39.53 97.14 121.81 133.89 61.44 66.99 134.28 120.04 89.14 42.05 149.36 109.08 121.42 23.41 166.38 101.5 156.86 11.9 184.61 97.63 193.93 8"/><polygon class="cls-3" points="191.93 0 201.25 89.63 229 3.9 219.48 93.5 264.44 15.41 236.5 101.08 296.72 34.05 251.58 112.04 324.42 58.99 264.05 125.89 346.33 89.14 273.37 142.03 361.49 123.19 279.13 159.75 369.24 159.65 281.07 178.28 369.24 196.92 279.13 196.82 361.49 233.38 273.37 214.54 346.33 267.43 264.05 230.68 324.42 297.58 251.58 244.53 296.72 322.52 236.5 255.49 264.44 341.15 219.48 263.06 229 352.67 201.25 266.94 191.93 356.57 182.61 266.94 154.86 352.67 164.38 263.06 119.42 341.15 147.36 255.48 87.14 322.52 132.28 244.53 59.44 297.58 119.81 230.68 37.53 267.43 110.5 214.54 22.37 233.38 104.74 196.82 14.62 196.92 102.79 178.28 14.62 159.65 104.74 159.75 22.37 123.19 110.5 142.03 37.53 89.14 119.81 125.89 59.44 58.99 132.28 112.04 87.14 34.05 147.36 101.08 119.42 15.41 164.38 93.5 154.86 3.9 182.61 89.63 191.93 0"/><path class="cls-4" d="M25.85,234.07c-.34.2-1,.66-.78,1,.54.84,3.49,0,4.13-.21s3.56-1,3.12-2.07c-.64-1.72-3.66-.34-4.74.15a12.41,12.41,0,0,0-1.77,1"/><path class="cls-4" d="M84.46,337.49c2.84-.22-.66-5.46-3.06-7C78.46,329,76.7,329.85,77,336c.19,3.41,4.8,2.62,7.43,1.53"/><path class="cls-5" d="M133.38,189c2.62.87,2,10.7.66,12.67-2.62,4.15-4.59-.22-4.59-3.28s.44-7.64,3.28-9.17"/><g class="cls-6"><path class="cls-7" d="M56.68,389.12c.56.84,5.61,1.17,7.1,1.34a138.31,138.31,0,0,0,15.7.75c4.13-.12,8.35-.17,12.37-.67,1.53-.19,4.12-.5,4.72-1.27,2.09-2.7-20.72-2.43-23.95-2.44C70.13,386.83,54.71,386.58,56.68,389.12Z"/></g><path class="cls-8" d="M94.07,172c-10.7-.11-20.53-6.12-27.08-11.14-10.7-8.08-14.19-21.4-14-34.72.22-17.47,9.39-37.78,28.39-40-.44-5.68,10-10.92,14.19-12.45,8.52-3.06,17.69-2.84,26.64-1.75a80.27,80.27,0,0,0,12.45,1.31c3.71,0,7-.66,10.48.87,7.21,3.06,11.14,10.92,12,18.34,1.31,12.45,1.53,27.52-6.77,37.78-4.8,6.33-14.41,10-21.18,13.32-8.74,4.15-19.22,8.74-26.21,15.51-2.62,2.18-4.59,4.8-2.84,8.3.87,2.18,3.06,2.84,2.84,5.24,0,1.31-1.53,3.28-2.4,4.15a8.09,8.09,0,0,1-.87-3.28,24,24,0,0,1-3.06,2c-.22-1.31-.44-2,0-3.06-.87,2.62-5.46,2.62-2.62-.44"/><path class="cls-9" d="M89.32,191.55,77,181.13s-25.11-9.83-58.09,7.42c0,0,.87,6.12-3.06,8.3s-5.46-.87-5.46-.87S3.66,199.52,3,197.64s-.87-2.1,0-3.41c0,0-2.18-2-2-4.15s-2.43-4.63,0-6,0-5,9.62-4.68c5.9.22,7.64,4.68,7.64,4.68S40.45,167.4,70,174.79c26,6.49,24.79,9.26,24.79,9.26L98,187c1.75-2.84,6.12-12.45,3.93-14.85-1.31-1.31-5.46-2.18-7.42-3.06-2.4-1.31-4.8-2.4-7.21-3.71-5-2.62-7.64-7.86-12.67-8.52-3.06-.44-6.11-.65-8.08-3.49-1.09-2-2.84-7.21-1.31-9.17,3.71-5.24,10.92.44,13.54,3.49,3.06-3.93,5.9-11.14,4.59-16.16,0,0,21.84-10.46,25.77-39.41-.25,1.83.6,4.28.6,6.18a32.14,32.14,0,0,1-.66,6.69c-.39,1.85-2,4.37-1.61,6.18a1.81,1.81,0,0,0,1.9-1c-1.09,2.65,2.6-.54,3-1.86a5,5,0,0,0-.19,1.53c0,.69,3.41-1.88,3.62-2.09,3.61-3.62,6.5-11.39,6.83-16.44,0,0,2.18,11.36,0,20.09,0,0,.22,3.49,2.18-.66,0,0-1.53,4.15,1.53,2.84s10.92-11.36,9.83-24c0,0,15.08,7.43,18.79,32.54,0,0,.49,12.23,2.86,20.74,1.85,6.63,3.58,13.38-.7,19.52-7.64,11-23.92,14-36.21,13.1-1.78-.13-5.73-1.23-7.14,0-.71.65-1.31,3.7-1.62,4.6l-1.75,5.15s-.44,7,16.38,6.74,46.73-5.9,49.79-48.48c0,0-3.93-1.3-4.15-10s-.44-12.45,0-13.11-2-10.93-1.09-11.91,2.62,1.64,2.62,1.64-1.31-5.46,1.09-3.71a7,7,0,0,1,2.84,3.71s2.18-3.88,4.37,5.59c0,0,3.28,2,2.84,14.47,0,0,2,14.13-4.37,15.38,0,0-2.4,45.36-51.1,51.26l-17.71-1-1.73,2.33c-3.06,10.95-10.48,49.7-10.48,49.7,6.33,40.56-4.37,68.85-4.37,68.85a64.77,64.77,0,0,1-7.9,13c-1.85,2.24-4.11,4.11-5.92,6.4-2,2.55-1,6.69-1,9.83,0,2.18.66,8.08-1.31,9.42-2.17-2.78-2.49-8.5-2.84-12a55.86,55.86,0,0,1-.77-6.72c.06-2.77.78-3.28,2.65-4.87,3.83-3.25,6.91-8,9.42-12.32a75,75,0,0,0,9-26.84,107.54,107.54,0,0,0,.09-29.12c-.15-1.16-1-11.94-2.31-12.34-2.18-.66-7.86-.87-11.57-.87-6.33.22-7,3.93-10.48,8.52-6.11,8.52-16.82,13.76-27.52,15.29-15.43,1.9-16.78-14.67-17.86-26-.57-5.94-.81-12,.39-17.91,0,0-16.53,7.61-15.51,5,1.13-2.87,6.75-5.2,9.2-6.64,2.92-1.72,5.93-3.31,8.86-5,.23.66.54.31,1.13.49.29.08-.78,4.9-.62,5.64-.44,6.33-.87,13.32,0,19.87.61,4.59.85,9.24,2.47,13.63,1.39,3.77,4.7,7.8,9.13,7.24,4.94-.63,10.23-1.59,14.76-3.86,4.11-2.07,8.6-5.67,10.77-10a105.32,105.32,0,0,0,6.33-17c2.18-7.21,5-14.41,7.21-21.62,2.62-8.74,6.33-17.91,8.08-26.42"/><path class="cls-10" d="M133.38,128.71c0,1.06-.16,2.12-.19,3.18,0,.53,0,1.05,0,1.57,0,.26,0,.52.07.77s.1.5.15.75l-.25-.19a44.7,44.7,0,0,1,5,0,18.52,18.52,0,0,1,2.52.32c.21.05.42.09.63.16a4.64,4.64,0,0,1,.63.22,2.87,2.87,0,0,1,.61.34,2.18,2.18,0,0,1,.54.54v0h0a4.46,4.46,0,0,1,.29.89,3.11,3.11,0,0,1,0,1,2.92,2.92,0,0,1-.29.91,3.35,3.35,0,0,1-.52.77,7.28,7.28,0,0,1-3,1.87,16.11,16.11,0,0,1-3.32.85,10.72,10.72,0,0,1-3.4,0,8.56,8.56,0,0,0,1.68-.07,15.85,15.85,0,0,0,1.65-.3,17.43,17.43,0,0,0,3.17-1,10,10,0,0,0,1.44-.78,5.25,5.25,0,0,0,1.21-1,2.68,2.68,0,0,0,.41-.63,2.25,2.25,0,0,0,.21-.7,2.4,2.4,0,0,0,0-.73,3.75,3.75,0,0,0-.25-.71l0,0a1.5,1.5,0,0,0-.35-.32,2.19,2.19,0,0,0-.48-.26,5,5,0,0,0-.54-.2c-.18-.07-.38-.1-.57-.15a17.92,17.92,0,0,0-2.41-.35c-1.64-.13-3.28-.14-4.95-.18h0a.23.23,0,0,1-.22-.19c0-.27-.09-.55-.12-.82s0-.55,0-.81a14.07,14.07,0,0,1,.11-1.61C133,130.81,133.19,129.76,133.38,128.71Z"/><path class="cls-8" d="M106.74,118c.87-3.06,3.71-2.84,6.11-2.18h0c-2,.44-5.24,1.09-6.11,2"/><path class="cls-8" d="M141.68,112.12a6.09,6.09,0,0,1,5.46,2.62c0-3.06-3.71-3.49-5.9-2.84"/><path class="cls-11" d="M112.2,150.12c2.84,7.21,8.64,13.29,16.6,13.76,11.36.66,19.44-7.86,18.56-17.69C132.94,154.49,112.2,150.12,112.2,150.12Z"/><path class="cls-10" d="M172.25,121.07l.44.12.43.2a4.14,4.14,0,0,1,.74.57,5.76,5.76,0,0,1,.6.73,8.35,8.35,0,0,1,.46.82,16.93,16.93,0,0,1,1.14,3.52q.44,1.77.79,3.57c.12.6.27,1.17.4,1.76.06.29.18.56.26.85l.28.84v0l1.54,2.83c.26.47.48,1,.71,1.46a5.44,5.44,0,0,1,.29.76l.24.77-.36-.72a5.43,5.43,0,0,0-.37-.71l-.86-1.36c-.59-.9-1.18-1.8-1.75-2.73v0l-.33-.88a8.64,8.64,0,0,1-.31-.88c-.14-.6-.31-1.2-.43-1.8-.23-1.19-.49-2.38-.73-3.57a21.67,21.67,0,0,0-.88-3.49,6.48,6.48,0,0,0-.84-1.55,3.88,3.88,0,0,0-.63-.63l-.37-.25Z"/><path class="cls-10" d="M172.91,109.5l.57.64a14.34,14.34,0,0,1,1.29,1.86,21.68,21.68,0,0,1,1.39,2.88,35.88,35.88,0,0,1,1.13,3.48c.31,1.2.6,2.41.82,3.55s.4,2.21.58,3.11l.55,3a30.62,30.62,0,0,1-1-2.95c-.24-.9-.53-1.94-.81-3.06s-.58-2.32-.9-3.5-.67-2.36-1-3.45c-.2-.54-.37-1.07-.56-1.55s-.38-1-.58-1.36a17.44,17.44,0,0,0-1-2Z"/><path class="cls-10" d="M177.27,109.5l.34.75.38.86a7.39,7.39,0,0,1,.43,1.14l.44,1.39c.17.49.28,1,.41,1.57s.27,1.11.37,1.69l.32,1.75.52,3.46c.15,1.1.3,2.13.44,3s.28,1.61.37,2.12l.13.81-.28-.77c-.15-.5-.45-1.2-.64-2.07s-.49-1.89-.68-3-.41-2.27-.61-3.45-.38-2.34-.59-3.43c-.11-.54-.17-1.08-.29-1.57l-.31-1.39c-.17-.87-.42-1.58-.54-2.09Z"/><path class="cls-10" d="M181.64,114.74s.1.21.26.57a11.51,11.51,0,0,1,.6,1.55,16.14,16.14,0,0,1,.58,2.3,12.42,12.42,0,0,1,.21,1.32l.15,1.37a26.36,26.36,0,0,1,0,2.71c0,.43,0,.85-.07,1.25l-.16,1.11a11.42,11.42,0,0,1-.36,1.63c-.11.39-.18.61-.18.61l0-.63.05-.72c0-.27,0-.59,0-.93l0-1.1,0-1.22c0-.42,0-.86-.05-1.3s-.05-.89-.08-1.35c-.09-.9-.14-1.8-.27-2.64l-.15-1.21L182.1,117c-.09-.67-.24-1.23-.33-1.62S181.64,114.74,181.64,114.74Z"/><path class="cls-10" d="M177.27,127.62a10.71,10.71,0,0,1,1.18.14,13,13,0,0,1,2.5.71,10.68,10.68,0,0,1,1.25.63,6.23,6.23,0,0,1,1,.71,4.67,4.67,0,0,1,.62.62c.14.16.21.25.21.25l-.3-.14c-.19-.09-.44-.24-.76-.37s-.67-.32-1.07-.48-.82-.34-1.24-.52c-.85-.34-1.71-.7-2.35-1S177.27,127.62,177.27,127.62Z"/><path class="cls-10" d="M10,196a4.55,4.55,0,0,1,.54-.44,6.67,6.67,0,0,1,2.71-1.05,4.34,4.34,0,0,1,.68,0,4.74,4.74,0,0,1-.54.44,6.62,6.62,0,0,1-2.7,1A4.51,4.51,0,0,1,10,196Z"/><path class="cls-10" d="M67.86,147.5c1.53-1.75,9,2.62,9.17,5.46.22,4.37-9.17-1.75-9.39-5.24"/><g class="cls-12"><path class="cls-13" d="M101.28,141.6c-5.68-2.18-12,2.84-4.37,6.11,5.9,2.84,11.57-2.4,4.37-6.11"/></g><g class="cls-12"><path class="cls-13" d="M153.69,138.76c-3.93,1.09-6.55,6.33-.66,6.77,5,.22,6.77-7.64.66-6.77"/></g><path class="cls-14" d="M22.22,238.78a10.68,10.68,0,0,1,9.61-2.34s.35,28.54,6.55,31.16S58.91,263,63.93,256.47c0,0,3.06-4.59,3.71-7.21s1.53-8.52,3.06-10.48,29.94,4.5,29.94,4.5,4.35,22.58,3,38.74-4.59,42.58-16.6,52.19c0,0-7-1.75-6.33-7.86,0,0,10.7-11.58,12.88-28.39s2.74-38-.92-42.15l-14.37-.66S59.78,279,36.2,277.43c0,0-7.21,1.31-10.26-12.45A179.36,179.36,0,0,1,22.22,238.78Z"/><path class="cls-15" d="M72.45,239c-.39,1-.83,2-1.24,3s-.7,2-1,3-.55,2.08-.86,3.1c-.13.52-.22,1-.33,1.57l-.32,1.57-.49-.39.89-.41.86-.47a13.78,13.78,0,0,0,1.61-1.12,16,16,0,0,0,2.7-2.88,24,24,0,0,0,2.13-3.38c.64-1.18,1.21-2.4,1.77-3.63q-.3,1-.65,1.92c-.24.63-.48,1.27-.76,1.88a24.43,24.43,0,0,1-2,3.57A16.12,16.12,0,0,1,72,249.43a14.61,14.61,0,0,1-1.68,1.22,13.56,13.56,0,0,1-1.86.92h0a.35.35,0,0,1-.48-.4l.35-1.6c.12-.53.23-1.07.37-1.59.31-1,.64-2.08,1-3.11s.82-2,1.25-3S71.92,239.94,72.45,239Z"/><path class="cls-15" d="M86.86,240.53s0,.93-.19,2.32-.4,3.23-.71,5.06-.74,3.64-1.09,5-.64,2.25-.64,2.25.05-.93.21-2.32.44-3.22.77-5.05.7-3.65,1-5S86.86,240.53,86.86,240.53Z"/><path class="cls-15" d="M91.45,241.62s0,.22,0,.6a10.58,10.58,0,0,1-.09,1.57A18.84,18.84,0,0,1,91,246c-.18.8-.42,1.63-.65,2.46s-.5,1.65-.7,2.43l-.3,1.12-.2,1a6.26,6.26,0,0,0-.15.86l-.06.67-.06.6s0-.21-.08-.59l-.08-.69a4.05,4.05,0,0,1,0-.9c0-.33,0-.69.08-1.07l.21-1.17c.14-.81.4-1.64.62-2.48l.74-2.43c.11-.39.25-.76.34-1.11l.28-1c.2-.61.27-1.16.37-1.53S91.45,241.62,91.45,241.62Z"/><path class="cls-16" d="M173.78,153.39c.46-2.4,5,2.18,7.64,2.84,2,.49-7.31,16.75-8.09,18.19-4.56,8.5-11.38,14.39-19.71,18.73a46.53,46.53,0,0,1-9.76,3.91,91.2,91.2,0,0,1-17.25,2.4,40.3,40.3,0,0,1-13.32-1.09c-.44,1.75-1.09,3.28-1.53,5-3.06,10.26-5.68,20.75-8.52,31-.65,2.4-2.17,4.58-1.75,7,.74,4.15,2.62,5.61-.22,6.49-4.15,1.09-13.1-1.47-17.25-2.12-2.84-.44-14-2.62-14.85-5.46-.44-1.31,1.75-5.68,2.18-7.21a35.23,35.23,0,0,1,2-6.33c3.71-10.92,9.83-20.31,11.36-31.88C86,184.62,67,181.56,59.35,181.56c-8.08,0-22.71.44-29.26,5.68-1.75-3.06-3.28-6.77-2.4-10.26,0,0,24.24-13.76,57.44.87l12,6.2s4.81,9.3,15.07,5.59l1.77.22S164.61,200.78,173.78,153.39Z"/><path class="cls-4" d="M76.16,172.17c-4.86-.69-6.33,11.88-5.68,15.5,3.49,1.31,9.17,3.93,11.36,6.77-.66.44-1.09,6.55-1.53,8.52l-2.62,7.21c-1.31,3.49-2.4,7-3.71,10.26-1.09,2.4-4.37,4.59-2.84,6.55-3.06,2.4-3.53,5.84-5.06,9.12a50.39,50.39,0,0,0,12.7,6.38c5.46,1.53,11.36,1.75,17,1.75,1.53,0,5.68.44,7.21-.66,1.53-1.53.66-4.15,1.09-6.33.87-6.11,3.49-12.45,5.24-18.34,1.53-5.46,3.37-9.51,5.12-14.75,0,0,13.22.56,18.47-1.41,0,0-.87-8.08,0-14l-18.78-1.09S105.94,193,99,183.56C99,183.56,86.86,173.7,76.16,172.17Z"/><path class="cls-17" d="M77,225.46l1.09.28c.7.17,1.68.51,2.88.74l1.93.39c.68.17,1.42.18,2.17.29a16.06,16.06,0,0,0,2.33.19c.8,0,1.61,0,2.41,0l2.4-.21.59-.05.58-.12,1.13-.24a16.94,16.94,0,0,0,2.13-.51l1.88-.59a14.53,14.53,0,0,0,1.56-.59l1.19-.49,1.05-.42-1,.55-1.14.62a9.7,9.7,0,0,1-1.52.73l-1.87.72a12,12,0,0,1-2.15.62l-1.15.27-.59.14-.61.07-2.47.27c-.83,0-1.66,0-2.48-.06a16.38,16.38,0,0,1-2.38-.25,14.65,14.65,0,0,1-2.2-.4l-1.94-.52a10.64,10.64,0,0,1-1.59-.54l-1.21-.47Z"/><path class="cls-17" d="M99.09,234.63l-.8.4a7.05,7.05,0,0,1-1,.28,8.57,8.57,0,0,1-1.35.13c-.49,0-1,0-1.59-.14a13.18,13.18,0,0,1-1.74-.36A28.06,28.06,0,0,1,89,233.7c-1.2-.51-2.38-1.06-3.46-1.6s-2.08-1.08-3-1.51-1.58-.81-2.1-1l-.81-.37a20.79,20.79,0,0,1,3.08,1c.9.37,1.95.8,3.06,1.3s2.28,1,3.47,1.51c.59.25,1.19.49,1.78.71s1.17.44,1.75.6,1.13.33,1.66.46,1,.18,1.51.25.91.06,1.29,0a6.82,6.82,0,0,0,1-.14Z"/><path class="cls-18" d="M9.56,235.07c.66-2.18,5.46-5,7.64-6.33a54.74,54.74,0,0,1,7.7-4.28c1.31-.61,2.63-1.19,4-1.75l2-.85a4.84,4.84,0,0,1,1.1-.43c1.31-.19,1,2.46,1,3.23a17,17,0,0,1-.85,5.88c-.27.77.44,2.61-.07,2.56a9.4,9.4,0,0,0-7.06,2,10,10,0,0,0,0-2.18c-3.06,1.09-6.11,2.84-9.39,3.71-1.53.66-9.61,1.75-5.68-2"/><path class="cls-18" d="M78.78,329.85c.44,3.28,3.43,6.17,6.27,7.48-2.18,1.53-2.25,1.87-2.69,4.49-.44,2-.09,4.19-.09,6.37,0,2.62.66,13.32-3.71,9-3.71-3.49-4.37-17.91-4.59-22.71A54.38,54.38,0,0,1,78.78,329.85Z"/><circle class="cls-19" cx="111.43" cy="135.39" r="2.73"/><circle class="cls-19" cx="147.14" cy="132.66" r="2.73"/><g class="cls-20"><path class="cls-21" d="M121.59,150.12c6.33-.44,13.54,0,18.34,5,6.11,5.9-2.18,10.7-8.3,11.79-7.21,1.31-14.63-3.49-18.56-9.39-1.09-1.53-3.93-6.55-2.4-8.74s5.9-1.09,7.86-.66a19.2,19.2,0,0,1,5,1.53"/><path class="cls-22" d="M112.85,152.52c.22-.22,3.71,1.09,4.8,1.53a52.81,52.81,0,0,0,10,1.31c7.21.44,17-1.09,18.56-9.61-11.57,2-22.93,2.62-34.94,3.06a7.18,7.18,0,0,0,.87,3.71"/></g><g class="cls-23"><path class="cls-22" d="M14.8,230.92c.87,2.84,2,6.77.22,9.39-2.18,0-5-.87-6.11-2.84-2.4-4.15,2.4-6.77,5.46-8.74,3.28-1.75,6.55-3.06,9.83-4.59,2.84-1.31,6.11-3.71,9.39-4.15a19.39,19.39,0,0,1,.44,3.28c-5.9.66-14.77,4.85-19.14,7.9"/></g><g class="cls-24"><path class="cls-22" d="M74.85,331.81c2,6.55.44,14.85,3.06,21.4,3.28-1.53,7.21,1.09,5,4.8-3.71,6.55-7.64-1.31-8.74-4.8-1.09-4.15-4.59-19.66.66-21.62"/></g><path class="cls-22" d="M19.64,235.56a.38.38,0,0,1-.37-.37,13.74,13.74,0,0,0-.64-3.54.38.38,0,0,1,.72-.21,14.41,14.41,0,0,1,.66,3.75A.38.38,0,0,1,19.64,235.56Z"/><path class="cls-22" d="M22,234.7a.38.38,0,0,1-.37-.37,13.89,13.89,0,0,0-.58-3.64.38.38,0,0,1,.7-.26,14.34,14.34,0,0,1,.63,3.9A.38.38,0,0,1,22,234.7Z"/><path class="cls-22" d="M24.14,233.81a.37.37,0,0,1-.37-.34l0-.28a10.1,10.1,0,0,0-.63-3.22.37.37,0,1,1,.68-.32,10.62,10.62,0,0,1,.7,3.47l0,.28a.37.37,0,0,1-.34.41Z"/><path class="cls-22" d="M82.17,342.76a.37.37,0,0,1-.27-.12c-.63-.67-2.17-.89-3.83-.53a.37.37,0,1,1-.16-.73c1.94-.42,3.72-.12,4.53.75a.37.37,0,0,1-.27.63Z"/><path class="cls-22" d="M82,345.87a.37.37,0,0,1-.27-.12c-.63-.67-2.17-.89-3.83-.53a.37.37,0,1,1-.16-.73c1.94-.42,3.72-.12,4.53.75a.37.37,0,0,1-.27.63Z"/><path class="cls-22" d="M82.28,349.06a.37.37,0,0,1-.27-.12c-.63-.67-2.17-.89-3.83-.53a.37.37,0,1,1-.16-.73c1.94-.42,3.72-.12,4.53.75a.37.37,0,0,1-.27.63Z"/><g class="cls-6"><path class="cls-7" d="M304.59,389.12c-.56.84-5.61,1.17-7.1,1.34a138.31,138.31,0,0,1-15.7.75c-4.13-.12-8.35-.17-12.37-.67-1.53-.19-4.12-.5-4.72-1.27-2.09-2.7,20.72-2.43,23.95-2.44C291.15,386.83,306.56,386.58,304.59,389.12Z"/></g><path class="cls-25" d="M295.83,203.05c2.17,6.33,7.83-6.5,8.5-9,1.17-3.83,1.5-7.17-3.67-5.83-4.5,1.33-6.67,4.5-6.67,9.17,0,2.33.33,5.67,2.83,6.83"/><path class="cls-26" d="M318.88,173c-8.48-8.06-3.94-24.16-3.94-24.16,8.67-43.18-20.25-46.35-20.25-46.35S287.45,93,271.12,92.17s-31.63,17.57-42.38,28.74-.62,24.81,4.24,30.39,10.23,25.64,10.23,32.75-5.17,11.7-19.85,21.63-7.86,24.81-7.86,24.81c2.07,4.09,1.66,6.2,0,8.48-2.07,2.48-11.37,4.13-9.3,9.3.83-1.65,2.69-2.48,4.55-2.89a5.29,5.29,0,0,0-3.1,3.51c.83-.41,2.07-.62,2.89-1l-1.45,1.45c5,3.1,11.79,3.51,14.89-2.27,2.89-5.38-.62-11.58-2.07-16.54,0,0-4.55-14.89,8.68-23.16s21.3-16.82,20.67-26L303.79,159s2.48,19,19.64,26c6,2.45,12.75,3.92,18.39,7.13,5,2.85,7.06,7.94,8.08,13.34.38,2,0,2.82-1,4.54-1.73,3-4.5,4.91-3.95,8.61a5.6,5.6,0,0,1,3.71-3.41,48.36,48.36,0,0,0-3.63,6.14c1.76-.33,3.87-.55,5.6-1-.92,1-2.18,1.11-3.13,2,.47-.46,3.87.67,4.68.58a5.69,5.69,0,0,0,4-2.59c2-2.76,2.26-6.31,2.4-9.61.24-5.66-2.36-9.9-4.79-14.77-2.25-4.52-5-8.82-9.83-10.93-5.11-2.26-10.52-3.73-15.61-6.06A34,34,0,0,1,318.88,173Z"/><path class="cls-27" d="M213,229.87a2,2,0,0,0,1,2.48c-.83,1.65-.21.83.21,1.86-2.89,2.48,5,2.69,6.62,2.48,2.27-.41,6.82-4.13,2.69-5.17,2.27-5.17-7.86-2.07-10.13-1.65"/><path class="cls-27" d="M349.2,202.5c2.08.83,7.59-1.22,5.59-4.41,1.51.21,3.07.76,2.7,2.42,1.32.62,1.89,3.51,1.51,5-.57,2.07-1.7,2.69-3.78,3.31-1.51.41-9.07.62-6.61-2.89-2.08-.41-1.63-4.27.25-4.48"/><path class="cls-28" d="M306.16,166.72l.38.42a3.3,3.3,0,0,0,.45.46,6.09,6.09,0,0,0,.63.52,8,8,0,0,0,.8.54c.28.19.62.34.94.52a18.69,18.69,0,0,0,2.18.87c1.53.5,3.12.88,4.31,1.21s2,.62,2,.62-.83-.07-2.05-.2a23.76,23.76,0,0,1-4.46-.92c-.39-.15-.79-.28-1.17-.45a11.1,11.1,0,0,1-1.09-.55,8.56,8.56,0,0,1-.95-.64,5.62,5.62,0,0,1-.76-.68,4,4,0,0,1-.56-.66,3.42,3.42,0,0,1-.36-.55C306.25,166.91,306.16,166.72,306.16,166.72Z"/><path class="cls-28" d="M311.52,175.89s.08-.16.23-.44a7.6,7.6,0,0,0,.59-1.15c.1-.24.2-.5.32-.77s.17-.59.28-.89c.22-.61.33-1.31.49-2s.25-1.38.33-2l.26-1.8.21-1.28c.05-.31.1-.49.1-.49s.09.72.12,1.79a17.69,17.69,0,0,1,0,1.84,20,20,0,0,1-.25,2.11l-.26,1.06a6.42,6.42,0,0,1-.34,1,6.86,6.86,0,0,1-.4.91c-.16.28-.32.54-.46.77a2.34,2.34,0,0,1-.45.59l-.39.41Z"/><path class="cls-28" d="M312.83,177.56l.4-.11c.25-.05.61-.16,1.05-.22.88-.15,2.05-.26,3.21-.37.57-.08,1.15-.12,1.67-.22.26-.06.53-.07.76-.14l.67-.17a7.8,7.8,0,0,0,1-.31l.39-.12-.32.25a5.11,5.11,0,0,1-.92.59,6.69,6.69,0,0,1-1.45.55,11.31,11.31,0,0,1-1.74.33,23.86,23.86,0,0,1-3.25.05l-1.07-.06Z"/><path class="cls-28" d="M318.83,173.56s.11.58.18,1.44.07,2,0,3.17c0,.57,0,1.14,0,1.67,0,.27,0,.52,0,.77s0,.47,0,.68c0,.43,0,.78.07,1s0,.4,0,.4-.07-.13-.17-.37a5.93,5.93,0,0,1-.35-1,8.22,8.22,0,0,1-.26-1.48,15.14,15.14,0,0,1-.07-1.71,26.83,26.83,0,0,1,.27-3.16l.17-1C318.79,173.7,318.83,173.56,318.83,173.56Z"/><path class="cls-28" d="M325,185.56l.22-.25a4.4,4.4,0,0,0,.57-.66c.1-.14.21-.29.33-.44s.2-.35.32-.53a12.41,12.41,0,0,0,.63-1.19l.26-.63a3.89,3.89,0,0,0,.22-.62l.19-.6c0-.19.07-.38.11-.55a2.69,2.69,0,0,0,.08-.47l0-.37c0-.21,0-.34,0-.34s0,.11.11.32a2.93,2.93,0,0,1,.18.89c0,.19,0,.39,0,.61s-.06.44-.1.67a2.92,2.92,0,0,1-.18.7c-.08.23-.16.47-.26.71l-.36.66a3.41,3.41,0,0,1-.42.6,4.39,4.39,0,0,1-.91.92,3.06,3.06,0,0,1-.76.45Z"/><path class="cls-28" d="M338.16,189.72l.67-.76c.39-.45.9-1,1.36-1.66a7.79,7.79,0,0,0,1.06-1.79,3.13,3.13,0,0,0,.2-.67c0-.17,0-.28,0-.28s0,.09.1.27a2.28,2.28,0,0,1,.07.77,4.21,4.21,0,0,1-.87,2.15,6.25,6.25,0,0,1-1.68,1.54A4.08,4.08,0,0,1,338.16,189.72Z"/><path class="cls-28" d="M345.44,194.89l.3-.12a5.87,5.87,0,0,0,.78-.29l.47-.22c.17-.07.32-.2.5-.29a2.52,2.52,0,0,0,.5-.35,4.52,4.52,0,0,0,.48-.41l.43-.46c.13-.16.24-.34.36-.5a2.38,2.38,0,0,0,.3-.5c.08-.17.17-.32.25-.47a4,4,0,0,0,.18-.42l.13-.34c.08-.19.13-.3.13-.3s0,.12,0,.32,0,.23,0,.37a2,2,0,0,1,0,.49c0,.17-.09.36-.15.56a2,2,0,0,1-.24.61,4.62,4.62,0,0,1-.35.61l-.48.56a5.47,5.47,0,0,1-.58.46,2.32,2.32,0,0,1-.61.35,3.35,3.35,0,0,1-.61.24l-.58.12a3.53,3.53,0,0,1-.84,0Z"/><path class="cls-28" d="M347.75,216.47s.05-.15.16-.39a6.4,6.4,0,0,1,.5-1c.14-.19.28-.4.45-.62a4.75,4.75,0,0,1,.57-.63,7.86,7.86,0,0,1,.66-.62l.71-.58,1.42-1.06c.22-.17.46-.32.65-.49l.57-.45c.36-.28.61-.55.82-.73l.32-.28s-.07.14-.21.37a7.09,7.09,0,0,1-.62.94,9.42,9.42,0,0,1-1.1,1.15c-.43.4-.91.76-1.39,1.14s-1,.73-1.38,1.09a7.74,7.74,0,0,0-.6.52l-.51.49c-.33.31-.55.63-.73.83S347.75,216.47,347.75,216.47Z"/><path class="cls-28" d="M349.33,220.56l.41-.21a3,3,0,0,0,.46-.25c.17-.11.36-.21.56-.36a8.11,8.11,0,0,0,1.25-1.06,9.78,9.78,0,0,0,1.13-1.48,16.74,16.74,0,0,0,1.48-3.23c.16-.47.31-.86.39-1.14s.15-.44.15-.44a9.73,9.73,0,0,1-.12,1.68,9.62,9.62,0,0,1-1.27,3.53,8.66,8.66,0,0,1-.61.84,6.48,6.48,0,0,1-.7.73,5.74,5.74,0,0,1-1.5,1,3.64,3.64,0,0,1-.67.24,3.17,3.17,0,0,1-.52.13Z"/><path class="cls-28" d="M210,245.56l.48-.29c.32-.17.75-.45,1.3-.72s1.21-.58,1.9-.89c.35-.15.71-.31,1.06-.49s.72-.33,1.07-.53l1-.6c.32-.22.61-.46.91-.69a5.1,5.1,0,0,0,.79-.71l.69-.68.92-1.14c.23-.28.37-.43.37-.43s-.08.19-.24.51-.38.79-.71,1.32l-.62.8a4.38,4.38,0,0,1-.77.83c-.3.25-.59.55-.93.79l-1.07.66c-.37.2-.75.35-1.12.53s-.75.3-1.11.43c-.73.27-1.39.49-2,.67l-1.41.46Z"/><path class="cls-28" d="M217.33,247.89l.52-.28a3.24,3.24,0,0,0,.56-.36,5.53,5.53,0,0,0,.65-.54,8.69,8.69,0,0,0,.69-.71c.22-.27.45-.57.67-.89a10.55,10.55,0,0,0,.6-1,10.94,10.94,0,0,0,.91-2.27,9.84,9.84,0,0,0,.27-1.15c.07-.38.09-.75.13-1.1a8.92,8.92,0,0,0,0-1,5.51,5.51,0,0,0-.11-.84,3.32,3.32,0,0,0-.17-.64c-.13-.34-.2-.55-.2-.55s.12.17.33.49a3.39,3.39,0,0,1,.3.62,3.78,3.78,0,0,1,.27.86,6.19,6.19,0,0,1,.15,1.06,8.07,8.07,0,0,1,0,1.19,7.59,7.59,0,0,1-.22,1.25,11.51,11.51,0,0,1-.4,1.25,11.86,11.86,0,0,1-.58,1.18,8.28,8.28,0,0,1-.7,1.06,8.48,8.48,0,0,1-.79.88,6.06,6.06,0,0,1-.83.67,3.8,3.8,0,0,1-.78.45,3.43,3.43,0,0,1-.64.25Z"/><path class="cls-28" d="M214.5,219.06s.42.34,1,.9c.29.28.61.62,1,1s.71.73,1.08,1.1.75.73,1.09,1.09c.18.17.32.37.49.51s.32.3.46.45c.56.57.91,1,.91,1s-.48-.23-1.18-.66a7.29,7.29,0,0,1-1.12-.8c-.39-.32-.78-.69-1.18-1.06a16,16,0,0,1-1.84-2.31C214.74,219.54,214.5,219.06,214.5,219.06Z"/><path class="cls-28" d="M214.26,223.3l.36-.19a7,7,0,0,0,.92-.52c.37-.21.78-.49,1.24-.78s.92-.62,1.41-.94,1-.64,1.39-1l1.22-.85c.36-.25.66-.45.86-.61l.34-.23s-.08.13-.23.33a7.29,7.29,0,0,1-.68.83,10.62,10.62,0,0,1-1.1,1c-.41.38-.9.7-1.38,1.06a16.68,16.68,0,0,1-1.5.88,8.91,8.91,0,0,1-1.41.61,4.77,4.77,0,0,1-1,.26Z"/><path class="cls-28" d="M216.66,213.39s.41.21,1,.54,1.3.8,2,1.23c.37.21.74.41,1.09.57a6,6,0,0,0,1,.37,3.12,3.12,0,0,0,.76.12h.31l-.28.14a1.87,1.87,0,0,1-.35.11,1.83,1.83,0,0,1-.48.06,4.82,4.82,0,0,1-2.42-.72,8.77,8.77,0,0,1-1.93-1.55A7.92,7.92,0,0,1,216.66,213.39Z"/><path class="cls-28" d="M222.83,206.22s0,.1.07.29a7.11,7.11,0,0,0,.16.74c0,.15.08.3.12.47s.11.34.16.52c.09.36.24.73.37,1.11.06.19.15.36.23.54a3.91,3.91,0,0,0,.24.52c.09.16.17.32.24.47l.26.39a2.35,2.35,0,0,0,.24.34l.22.23.2.22-.27-.1-.32-.14a1.3,1.3,0,0,1-.37-.25,4.08,4.08,0,0,1-.4-.36c-.12-.15-.24-.3-.36-.47a2.68,2.68,0,0,1-.32-.54c-.09-.19-.2-.38-.27-.59l-.19-.62a3.7,3.7,0,0,1-.12-.61,4.65,4.65,0,0,1-.06-1.11,3.51,3.51,0,0,1,.12-.76C222.8,206.33,222.83,206.22,222.83,206.22Z"/><path class="cls-28" d="M227.5,202.89a2.2,2.2,0,0,1,0,.23,3.13,3.13,0,0,0,.07.59c0,.11.05.23.07.35s.09.25.11.38a7.38,7.38,0,0,0,.3.81c.14.26.25.54.41.78s.13.25.21.36.14.21.2.32.24.37.32.49.12.2.12.2l-.21-.09a2.75,2.75,0,0,1-.54-.3,3.07,3.07,0,0,1-.64-.6,2.22,2.22,0,0,1-.3-.4l-.25-.45-.17-.49a1.89,1.89,0,0,1-.09-.5,2.5,2.5,0,0,1,0-.91,1.93,1.93,0,0,1,.22-.57C227.45,203,227.5,202.89,227.5,202.89Z"/><path class="cls-29" d="M244.86,289.21s12.61,7,13.23,7.65-8.06,15.71-5.79,16.33,12.82-16.33,12.82-16.33l-7.57-5c-3.8-2.49-8.37-4.68-11.83-7.6-1.94-1.64-3.81-3-5.82-4.39s-.89-2.32,1.16-3.65c1.35-.88,2.67-1.82,4-2.73l10.36-7.07,14.24-9.71,22.74,6.82c-2.43,5.85-4.7,11.77-6.87,17.73-3.1,8.49-7.23,18-8,27.1-.47,5.73,1.37,12.11,2.72,17.75,1.58,6.62,3.62,13.14,4.47,19.91.21,1.65-2.27,18.82-1,21.09s3.31-3.1,5-6.62,2.76-10.18,2.76-10.18-.9-3.67-1.52-6.36c-1.13-4.88-2.37-9.78-3.3-14.7-.65-3.47-1.44-6.92-1.82-10.46-.29-2.69-1.69-8.2-.88-10.61,0,0,12.2-36.39,14.47-42.18s2.27-18.19,2.27-18.19L295.93,202s40.94,17.37,42,14.68-4.55-43.21-4.55-43.21a13.66,13.66,0,0,1,3.4-1.47,31.2,31.2,0,0,0,4.75-2,12.85,12.85,0,0,0,3.2-2.35c1.26-1.42,1.35-3.86,1.62-5.64a7,7,0,0,0,0-3.46,3.81,3.81,0,0,0-.67-1.41,20.45,20.45,0,0,0-2.19-1.65c-3.33-3-6.42-7.12-10.54-2.81s-.21,6.32-.21,6.32a10.57,10.57,0,0,0-2.23-.21c-3.72.41-4.59,6.2-4.38,8.43s2.27,5.42,2.48,6.88,1.24,34.1,1.24,34.1-26.46-16.75-33.08-18.82-13.23,3.72-13.23,3.72l-3.1,1.24c-1.45-2.07-3.52-5.38-3.72-7.65a68.82,68.82,0,0,1,7-3.72,56.34,56.34,0,0,0,10.59-6.3,35.06,35.06,0,0,0,6.25-6c1.55-2,2.2-4.52,3.85-6.43,1.31-1.51,2.93-1.9,4.72-2.75,3.84-1.81,7.76-4.66,7.76-9.34,0-7.18-10.49-1-10.14.45,0,0-2.69-11.16-3.31-16.13-.1-.77-4-3.2-4.56-3.77-2.09-2-4.83-3.61-6.54-5.89-3.34-4.48-4.65-11.12-3.79-16.59,0,0-8.89,4.55-23.16,5-11.9.35-24.46,3.75-30.91,13.1a24.44,24.44,0,0,0-3.9,9.74,28.47,28.47,0,0,0,.49,11.49c.83,3.51,2.48,8.27,2.07,11.79-.83,5.79-4.13,9.92-1,16.13,3.31,6.62,14.68,9.1,21.3,9.92,3.93.41,8.06,0,12,.21,5.38.21,4.76,2.48,7.24,6.62a19.61,19.61,0,0,1-4.34.41c-.62,0-1.24.21-1.65.21h-5c-4.34,0-10.54-.41-14.06-1.45a124.12,124.12,0,0,1-12.2-4.75,115.34,115.34,0,0,1-14.27-7.24c-5-3.1-7-7.24-9.92-12.61-2.6-5.07-5.27-10.11-7.65-15.29-1.18-2.56-2.47-5.2-3.41-7.86-.78-2.22,0-2.48,1.09-4.6,2.93-5.52,4.23-9.73,2.64-19.85-.32-2-1.32-2-1.75-2.29s-1.1-5.46-1.25-7,.06-3.56-.42-5-2.39-3-3.09-.65a3,3,0,0,0-2.94.73c-.73.63-.66,1.55-1.2,2.25s-1,.45-1.6.88a4.65,4.65,0,0,0-1.5,3.39,14.12,14.12,0,0,1-.29,2.64A12.45,12.45,0,0,0,189,120c.08,2.31.19,4.7.46,7a20.85,20.85,0,0,0,.39,2.34,11.37,11.37,0,0,1,.62,2v2.07c.83,11.58,5.17,12.51,5.17,12.51s2.48,27.19,18,40.63,48.17,17.78,48.17,17.78l7.3,33.22s-.27,11.23-3.58,14.53c-4.86,4.86-11.12,8.71-16.62,12.79q-5.52,4.11-11.05,8.21c-3,2.24-9.16,5-4.64,8.84C236.64,284.72,241.06,286.86,244.86,289.21Z"/><path class="cls-30" d="M257.75,155.64l.08.16a1.42,1.42,0,0,1,.18.47,1.44,1.44,0,0,1,0,.83,2,2,0,0,1-.65.88,9.71,9.71,0,0,1-2.24,1.21,8.34,8.34,0,0,0-1.16.59,1.64,1.64,0,0,0-.44.37,3,3,0,0,0-.41.53,3.45,3.45,0,0,0-.51,1.13,4,4,0,0,0-.11,1.22,4.24,4.24,0,0,0,.26,1.14,4.09,4.09,0,0,0,.51.95,4.4,4.4,0,0,0,.62.7,4.14,4.14,0,0,0,.58.46l.57.34-.17,0a3.39,3.39,0,0,1-.49-.13,4.48,4.48,0,0,1-.71-.33,3.44,3.44,0,0,1-.83-.63,3.79,3.79,0,0,1-.75-1,4.11,4.11,0,0,1-.46-1.35,4.25,4.25,0,0,1,0-1.55,4.37,4.37,0,0,1,.63-1.49,4,4,0,0,1,.49-.6,2.62,2.62,0,0,1,.66-.54,7.07,7.07,0,0,1,1.35-.59,14.9,14.9,0,0,0,2.23-.86,1.93,1.93,0,0,0,.64-.58,1.16,1.16,0,0,0,.19-.64,1.85,1.85,0,0,0,0-.48Z"/><path class="cls-26" d="M268.57,152.75a6.75,6.75,0,0,1,1.13-2.35,13,13,0,0,1,2.61-2.76,8.19,8.19,0,0,1,7-1.84,6.78,6.78,0,0,1,.9.3s-7.11.67-11.06,6.62l-.72,1c.1-.15,0-.36.05-.52S268.54,152.89,268.57,152.75Z"/><path class="cls-26" d="M266.57,129.8c2.07-.83,5-.41,7,.21-1.65-2.89-5.38-2.48-7.24-.21Z"/><path class="cls-26" d="M237.62,141c-.83-3.31,2.89-5.17,5.58-3.93a10.23,10.23,0,0,0-5.17,3.31Z"/><g class="cls-12"><path class="cls-31" d="M283.52,154.61c-1-2.89,5.58-7,8.27-5.38,6,3.31-7.86,10.54-8.06,5.38"/></g><g class="cls-12"><path class="cls-31" d="M233.49,166.4c.62-1.65,5.58-2.89,6.82-.62,2.07,3.51-8.48,6.41-7.24,1.24"/></g><path class="cls-11" d="M245.69,171.36c11,2.31,27.29-5.38,35.56-11.58-.83,8.27-5.59,13-14.89,17.53-6,3-16.54,2.74-20.68-5.95"/><path class="cls-30" d="M199.37,131.25l-.49.13-.25.07-.25.14-.26.15-.24.24a.73.73,0,0,0-.22.29c-.06.12-.14.21-.19.34a4.54,4.54,0,0,0-.23.84,6.94,6.94,0,0,0-.1,1c0,.33,0,.67,0,1a19.59,19.59,0,0,0,.21,2c.1.65.21,1.25.31,1.78s.21,1,.29,1.26l.14.48s-.12-.14-.32-.39a8,8,0,0,1-.66-1.16,10.86,10.86,0,0,1-.63-1.78,11.07,11.07,0,0,1-.35-2.16,6.7,6.7,0,0,1,.23-2.23,3.79,3.79,0,0,1,.43-1,3.57,3.57,0,0,1,.32-.4,1.12,1.12,0,0,1,.37-.31l.37-.23c.13,0,.27-.07.39-.1l.33-.07.26,0Z"/><path class="cls-30" d="M200,133.53a2.9,2.9,0,0,1-.31-.67,10.47,10.47,0,0,1-.43-1.89,23.81,23.81,0,0,1,0-5.85,19.64,19.64,0,0,1,.61-3.09,7,7,0,0,1,1.22-2.54,1.57,1.57,0,0,1,1-.63,1.23,1.23,0,0,1,.87.27,2.83,2.83,0,0,1,.51.54,3.64,3.64,0,0,0-.61-.37,1,1,0,0,0-.7-.07,1.29,1.29,0,0,0-.65.61,8.35,8.35,0,0,0-.83,2.41c-.2.94-.36,2-.47,3s-.22,2.06-.29,3-.11,1.88-.12,2.66a15.1,15.1,0,0,0,0,1.88A4.72,4.72,0,0,0,200,133.53Z"/><path class="cls-30" d="M197.93,105.2s-.13.32-.37.86a5.52,5.52,0,0,0-.34,1,9.33,9.33,0,0,0-.29,1.31c-.12.48-.1,1-.18,1.58s0,1.16,0,1.78l0,.94.1,1c.06.65.16,1.31.26,2,.2,1.32.45,2.64.68,3.88s.44,2.41.59,3.41a28.18,28.18,0,0,1,.33,3.38s-.1-.33-.24-.9-.38-1.38-.65-2.36-.59-2.11-.89-3.35-.58-2.57-.81-3.91c-.09-.68-.19-1.36-.23-2a17.33,17.33,0,0,1-.06-2,16.1,16.1,0,0,1,.13-1.86,11.33,11.33,0,0,1,.36-1.64,6.75,6.75,0,0,1,.5-1.33,5.87,5.87,0,0,1,.51-1C197.72,105.47,197.93,105.2,197.93,105.2Z"/><path class="cls-30" d="M192.92,109.7s.05.29.12.81.17,1.25.25,2.14l.13,1.43c0,.51.13,1,.19,1.58.15,1.09.27,2.25.4,3.42s.41,2.31.56,3.4c.1.54.12,1.08.26,1.57l.3,1.39c.19.86.3,1.6.4,2.11s.13.81.13.81-.12-.27-.31-.75-.47-1.17-.77-2l-.48-1.37a12,12,0,0,1-.39-1.56c-.24-1.09-.47-2.27-.69-3.44s-.22-2.39-.28-3.5a14.46,14.46,0,0,1-.06-1.61c0-.51,0-1,0-1.44,0-.89.1-1.63.13-2.15S192.92,109.7,192.92,109.7Z"/><path class="cls-30" d="M190,114.74s.06.25.13.68l.13.78c0,.3.14.63.21,1l.23,1.16c.1.41.2.85.29,1.3.18.9.43,1.86.63,2.83l1.22,5.3c.16.73.29,1.34.39,1.76s.14.68.14.68-.12-.22-.32-.61-.49-1-.76-1.65-.59-1.52-.87-2.41-.52-1.87-.78-2.83-.42-2-.53-2.9a20.39,20.39,0,0,1-.23-2.57,8.11,8.11,0,0,1,0-1c0-.3,0-.57,0-.79C190,115,190,114.74,190,114.74Z"/><path class="cls-30" d="M191.93,131.66a8.79,8.79,0,0,1,.85-1.13,11,11,0,0,1,1-1c.2-.17.39-.37.61-.53l.67-.51c.23-.17.49-.3.72-.45a4.86,4.86,0,0,1,.74-.38c.25-.11.49-.2.72-.29a6.64,6.64,0,0,1,.69-.17,2.34,2.34,0,0,1,.58-.09H199l.39,0-.36.17-.4.17a4.11,4.11,0,0,0-.49.26l-.57.31c-.19.13-.39.26-.61.39s-.42.28-.64.43-.45.28-.66.45c-.89.61-1.78,1.24-2.49,1.69A12.45,12.45,0,0,1,191.93,131.66Z"/><path class="cls-30" d="M214.26,183.56a2,2,0,0,1,.19-.55,3.06,3.06,0,0,1,.69-.89,2.67,2.67,0,0,1,.84-.64,2.37,2.37,0,0,1,.55-.19,1.75,1.75,0,0,1-.11.57,3.26,3.26,0,0,1-.62,1,3,3,0,0,1-1,.57A2,2,0,0,1,214.26,183.56Z"/><path class="cls-30" d="M328.8,165.37c.5-.43,1-.82,1.54-1.23l0,0h.1a6.25,6.25,0,0,1,1.89.53c.58.24,1.15.48,1.71.65a2.44,2.44,0,0,0,1.53.07,1.18,1.18,0,0,0,.3-.16l0,0h0l.09-.08.17-.16a1.82,1.82,0,0,0,.17-.15l.07-.13a.63.63,0,0,0,.14-.27.75.75,0,0,0,.07-.33,1,1,0,0,0,0-.36,2.8,2.8,0,0,0-.23-.76,7.47,7.47,0,0,0-1-1.46,17.28,17.28,0,0,0-1.27-1.33,14,14,0,0,0-1.43-1.2,8.54,8.54,0,0,1,1.7.85A10.1,10.1,0,0,1,336,161a8.29,8.29,0,0,1,.68.71,5.64,5.64,0,0,1,.58.83,3.56,3.56,0,0,1,.38,1,1.89,1.89,0,0,1,0,.57,1.58,1.58,0,0,1-.11.58,1.52,1.52,0,0,1-.28.56l-.19.26a2.19,2.19,0,0,1-.17.17l-.18.15-.09.08-.08.07-.06,0a2.16,2.16,0,0,1-.53.27,2.58,2.58,0,0,1-1.13.12,4.48,4.48,0,0,1-1-.26,12.54,12.54,0,0,1-1.73-.84,7.89,7.89,0,0,0-1.63-.74l.14,0C330,164.81,329.41,165.11,328.8,165.37Z"/><path class="cls-30" d="M338.73,154l-.37.09a2.2,2.2,0,0,0-.41.11,4.25,4.25,0,0,0-.49.18,5.4,5.4,0,0,0-2.11,1.65,4.83,4.83,0,0,0-.42.59,6.64,6.64,0,0,0-.34.63c-.11.21-.17.42-.26.62s-.14.4-.16.59a5,5,0,0,0-.12.94c0,.24,0,.38,0,.38s-.07-.12-.19-.34a2.87,2.87,0,0,1-.25-1,3.7,3.7,0,0,1,0-.71,4.7,4.7,0,0,1,.49-1.56,5.52,5.52,0,0,1,.48-.74,5,5,0,0,1,.61-.64,4.26,4.26,0,0,1,.7-.49,3.66,3.66,0,0,1,1.43-.46,2.51,2.51,0,0,1,.6,0,1.53,1.53,0,0,1,.44.07Z"/><path class="cls-30" d="M336.87,162.88s-.09-.12-.23-.33a3,3,0,0,1-.4-1,3.45,3.45,0,0,1-.09-.74,4.14,4.14,0,0,1,.07-.84,4.1,4.1,0,0,1,.24-.87,5.8,5.8,0,0,1,.41-.83,5.31,5.31,0,0,1,.56-.74,4.61,4.61,0,0,1,.66-.6,4.28,4.28,0,0,1,1.41-.71,2.79,2.79,0,0,1,.61-.13,1.88,1.88,0,0,1,.47,0l.41,0-.37.17a3,3,0,0,0-.4.2,5.07,5.07,0,0,0-.49.29,6.49,6.49,0,0,0-2,2.05,4.8,4.8,0,0,0-.37.68,5.86,5.86,0,0,0-.55,2,4.78,4.78,0,0,0,0,1C336.85,162.74,336.87,162.88,336.87,162.88Z"/><path class="cls-30" d="M337.07,164.74a1.64,1.64,0,0,1,.5.1c.14,0,.25,0,.35.07s.09,0,.12,0,0,0,0,0,0,0,.06,0,.08,0,.12-.06.2-.15.32-.2a2.2,2.2,0,0,1,.43-.25,1.33,1.33,0,0,1,.08.52,1.13,1.13,0,0,1-.16.51c-.07.09-.1.2-.23.27a1.1,1.1,0,0,1-.39.2,1.07,1.07,0,0,1-.45,0,1.52,1.52,0,0,1-.34-.16,1.24,1.24,0,0,1-.34-.44A1.68,1.68,0,0,1,337.07,164.74Z"/><path class="cls-30" d="M344.16,161.06l-.47.64a1.56,1.56,0,0,0-.18.34l-.16.34a2.52,2.52,0,0,0-.12.36l-.11.37-.19.76c-.13.5-.21,1-.38,1.54a5.19,5.19,0,0,1-.31.79,2.34,2.34,0,0,1-.58.76l0,0,0,0a3.89,3.89,0,0,1-.86.32,1.46,1.46,0,0,1-.5.06,1.41,1.41,0,0,1-.54-.08,1.66,1.66,0,0,1-.5-.27,2.44,2.44,0,0,1-.35-.41,2.83,2.83,0,0,1-.37-.89,4.59,4.59,0,0,1-.13-.87,5.82,5.82,0,0,1,0-.86c0-.28,0-.56.09-.84s0-.28.08-.42l.05-.24.06-.19a8.07,8.07,0,0,1,.26-.77c.13-.27.24-.54.38-.79s.3-.49.46-.72.36-.44.56-.64a8.29,8.29,0,0,1,1.29-1.05,12.32,12.32,0,0,1,1.43-.79l-.07.27-.25-.41-.33-.39a10.13,10.13,0,0,1-.7-.78l.84.62.41.34.37.42.11.13-.19.14c-.43.31-.86.62-1.25,1a9.9,9.9,0,0,0-1.09,1.08,7.53,7.53,0,0,0-.81,1.25c-.1.22-.18.45-.28.67s-.14.51-.22.76l-.05.19,0,.16c0,.12,0,.24-.06.37a7.4,7.4,0,0,0-.07.75,5.82,5.82,0,0,0,.1,1.45,1.91,1.91,0,0,0,.22.59.73.73,0,0,0,.36.32.53.53,0,0,0,.24,0,.7.7,0,0,0,.29,0,3,3,0,0,0,.65-.21l-.07,0a1.82,1.82,0,0,0,.4-.46,4.43,4.43,0,0,0,.32-.65l.54-1.47c.1-.25.19-.49.3-.73l.18-.36a2.75,2.75,0,0,1,.19-.36l.24-.34a1.75,1.75,0,0,1,.25-.31Z"/><path class="cls-30" d="M342.65,163.3a1.44,1.44,0,0,1,.3-.32,1.37,1.37,0,0,1,.7-.29,1.36,1.36,0,0,1,.73.15,1.14,1.14,0,0,1,.33.26,1.58,1.58,0,0,1-.32.31,1.33,1.33,0,0,1-1.41.14A1.24,1.24,0,0,1,342.65,163.3Z"/><path class="cls-26" d="M235.16,156.42s5.35-4.68,11.75.55c-.38-.31-1.61-.32-2.08-.41-1.19-.23-2.38-.39-3.57-.53C239.36,155.81,236.81,155,235.16,156.42Z"/><path class="cls-30" d="M307.67,156.5c-1.45,3.71,2.38,2,4.34.61,1.62-1.18,5-6.07,1-6C310.87,151.09,308.33,154.8,307.67,156.5Z"/><path class="cls-32" d="M264.71,249.48a9.36,9.36,0,0,1-2.23,2.52,85.43,85.43,0,0,1-7.07,5,134.64,134.64,0,0,1-12.9,7.69,33.92,33.92,0,0,0-10.44,8.41c-1.54,1.9-5.18,6.65-2.41,9,4,3.33,15.5,9.83,15.5,9.83s4.33-1,5.5-6.67l-9.67-6.5s27-18.83,29.5-19.33,19,5.17,19.67,5.33-12.33,27.17-13.33,38.67,2.5,25.67,2.5,25.67,6.86,2.42,9.19-2.58a102,102,0,0,1-1.94-17.38,32.7,32.7,0,0,1,1.94-9.31c2.94-7.63,5.54-13.16,8.09-20.93,2.78-8.49,6.55-18.25,6.55-27.31v-3.65l-37.22-1A20.22,20.22,0,0,1,264.71,249.48Z"/><path class="cls-33" d="M235.66,278.89l.25,0,.66,0c.54,0,1.24,0,1.94,0,.34,0,.69,0,1,0s.63,0,.89,0,.49,0,.65,0h.26l-.21.15a3.19,3.19,0,0,1-.6.32,4,4,0,0,1-.92.27,6.34,6.34,0,0,1-1.09.1,7.59,7.59,0,0,1-1.08-.1,6,6,0,0,1-.92-.22A5.82,5.82,0,0,1,235.66,278.89Z"/><path class="cls-33" d="M277.16,260.7l-.06-.66a11.58,11.58,0,0,1-.06-1.75l.05-1.19c0-.42.09-.85.16-1.31a11.7,11.7,0,0,1,.25-1.39l.33-1.42.45-1.39a10.27,10.27,0,0,1,.51-1.32c.18-.42.36-.83.54-1.2l.59-1a5,5,0,0,1,.54-.84l.48-.6.42-.51-.3.6-.36.67a9.71,9.71,0,0,0-.41.89l-.46,1.06-.43,1.21c-.33.83-.55,1.76-.85,2.66s-.5,1.84-.65,2.72l-.27,1.26-.17,1.14c-.13.7-.17,1.31-.22,1.73Z"/><path class="cls-33" d="M280.86,261.64l-.07-.65a13.51,13.51,0,0,1-.09-1.72l0-1.16a11.28,11.28,0,0,1,.13-1.29,12.3,12.3,0,0,1,.22-1.37l.32-1.4.43-1.36a11.73,11.73,0,0,1,.49-1.29,19.45,19.45,0,0,1,1.08-2.2,14.23,14.23,0,0,1,.92-1.46c.24-.34.38-.53.38-.53l-.25.61c-.16.38-.42.91-.67,1.57l-.42,1.05c-.15.37-.26.79-.42,1.2-.31.82-.55,1.72-.82,2.62s-.47,1.81-.61,2.67c-.07.43-.19.84-.24,1.24l-.16,1.12c-.11.69-.14,1.3-.19,1.71Z"/><path class="cls-33" d="M262.16,252.89h.56c.36,0,.86,0,1.46,0a18.68,18.68,0,0,0,2-.15,10.77,10.77,0,0,0,1.09-.23,6.66,6.66,0,0,0,2.05-.92,6.47,6.47,0,0,0,.84-.7,8.76,8.76,0,0,0,1.23-1.56l.4-.71c.13-.21.2-.41.28-.57.15-.32.25-.5.25-.5s0,.2-.11.55a9,9,0,0,1-.44,1.42,9.75,9.75,0,0,1-.46.9,5.75,5.75,0,0,1-.67.92,5.57,5.57,0,0,1-.9.84,6.5,6.5,0,0,1-1.1.64,6.71,6.71,0,0,1-1.2.39,8.06,8.06,0,0,1-1.2.18,10.69,10.69,0,0,1-2.11-.08,13.68,13.68,0,0,1-1.45-.27Z"/><path class="cls-33" d="M294.28,247.34l.16.61c.09.39.26.93.44,1.59a38.2,38.2,0,0,0,1.58,4.68,11.2,11.2,0,0,0,1.24,2.25,3.54,3.54,0,0,0,1.67,1.32,2.53,2.53,0,0,0,.85.11,2.93,2.93,0,0,0,.68-.12c.37-.11.59-.2.59-.2l-.14.09a2.65,2.65,0,0,1-.4.25,3.12,3.12,0,0,1-.7.26,2.37,2.37,0,0,1-1,0,3.66,3.66,0,0,1-2.08-1.32,9.62,9.62,0,0,1-1.42-2.37,19.71,19.71,0,0,1-1.32-4.89A17.22,17.22,0,0,1,294.28,247.34Z"/><path class="cls-33" d="M301.5,247.39l0,1,.07,2.73c0,1.13.06,2.45,0,3.86s-.06,2.93-.12,4.44l-.2,2.25a21.54,21.54,0,0,1-.3,2.17c-.12.7-.21,1.38-.38,2l-.48,1.78-.21.79-.28.69-.45,1.11-.4,1,.27-1,.32-1.14.2-.7.15-.79.35-1.78c.13-.63.16-1.31.27-2s.19-1.41.23-2.15l.18-2.23c.14-3,.29-6,.4-8.27,0-1.13.16-2.07.21-2.73Z"/><path class="cls-34" d="M256.33,192.05a14,14,0,0,0-2.17,8.83,10.46,10.46,0,0,0,2,5.33c1.5,1.83,4.33,3,5.5,4.83,1.67,2.67,1.83,8.33,2.5,11.5.33,1.67.67,3.33.83,5v2.67c0,1.67-.33,1.83-.67,3.33-.5,2.67,1.5,3.83,1.33,6.33s-1.83,2.67,0,5.17c-1.33.83-2.83,2.17-2.67,3.17a82.81,82.81,0,0,0,15.74,4,70.92,70.92,0,0,0,14.7.93c2.82-.14,13.11-.49,13.25-3.92a3.39,3.39,0,0,0-.19-1.3c-.4-1-1.37-.93-1.8-1.67-.91-1.55,1.13-3.33-.51-5,.87-1.71.24-2.54-.62-4.08a23.7,23.7,0,0,1-2.24-7.39l-3.58-24.58s-1.58-10.78,2.42-14.35,4.83-1.9,4.83-1.9,2.33-1.67-3.67-2.67-8.7-2.18-13.67,2.5l-4.92,3s-3.27,16.17-5.59,15.67-7.82-14.67-7.82-14.67Z"/><path class="cls-25" d="M265.66,244.89l0,0s0,0,0,0l.07,0,.15.07a.73.73,0,0,0,.3.05h0c.91.1,1.82.18,2.72.3l2.73.16,5.47.16,2.75.12c.92.07,1.83.14,2.75.23l2.73.41c.9.23,1.79.43,2.67.68-.92-.09-1.82-.22-2.72-.33l-2.73-.2c-.91,0-1.82-.06-2.73-.1l-2.74-.07-2.75-.1-2.75-.2-2.74-.36c-.9-.18-1.8-.4-2.69-.6h0a.82.82,0,0,1-.33-.11l-.14-.09-.07,0S265.65,244.88,265.66,244.89Z"/><path class="cls-25" d="M276.83,244.55l1.18-.16c.75-.08,1.82-.25,3.11-.37s2.8-.29,4.41-.41,3.33-.28,5-.43c.86-.06,1.71-.16,2.56-.23s1.67-.16,2.47-.27,1.57-.2,2.31-.28l2.05-.34c.63-.12,1.23-.18,1.73-.31l1.33-.3,1.16-.25-1.12.39-1.3.43a14.09,14.09,0,0,1-1.71.46l-2,.47c-.73.13-1.51.27-2.31.38s-1.64.23-2.48.33-1.71.21-2.57.28c-1.73.12-3.45.25-5.07.33s-3.13.13-4.42.18l-3.13.09Z"/><g class="cls-35"><path class="cls-21" d="M264.92,169.91c3.41-1.6,14-6.09,16.13-.67,1.92,5-6.66,9.45-10.09,11s-9,3.52-12.7,2.85C251.16,181.78,262.16,171.21,264.92,169.91Z"/><path class="cls-22" d="M251.27,170.53A12.68,12.68,0,0,1,255.2,174c9.3,0,21.5-4.55,26.26-13.23l.76-2.31Z"/></g><g class="cls-36"><path class="cls-26" d="M282,359.22c1.5-1.17,3.17-.67,4.83.17a50.86,50.86,0,0,0,4.68-11.83c.74-3.25-.35,11.83-1,14-.83,2.17-4.17,10.5-6.83,8.67-1.83-1.33-2-9.33-2.17-11.5v-.17"/><path class="cls-26" d="M252.83,304.22c1.33-.67,3.33-.5,4.17.67,1.33-2.5,3.67-7.5,6-9.33,5-3.67,1.33,8.5.33,10.33-1.33,2.33-10.67,14.67-12.67,8.67-1-3.17,1.17-8,2.67-10.67"/></g><path class="cls-30" d="M238.5,145.64s0-.09.09-.24a2.74,2.74,0,0,1,.3-.57,3.44,3.44,0,0,1,.63-.7,3.11,3.11,0,0,1,.42-.32l.47-.27c.17-.08.34-.13.51-.19a2.17,2.17,0,0,1,.51-.13,3.12,3.12,0,0,1,.93,0,2.45,2.45,0,0,1,.65.13l.24.09-.23.11c-.14.07-.35.13-.58.24l-.77.32c-.14,0-.28.12-.42.18s-.29.12-.42.19-.56.27-.82.41-.5.28-.73.38-.42.24-.56.31Z"/><path class="cls-30" d="M268,135.64l.17-.22a2.8,2.8,0,0,1,.5-.5,3.5,3.5,0,0,1,.91-.51,2.71,2.71,0,0,1,.56-.18l.59-.11h.6a3,3,0,0,1,.57.06,4.12,4.12,0,0,1,1,.26,3.57,3.57,0,0,1,.64.32l.23.15a8.28,8.28,0,0,1-1,.1c-.28,0-.6,0-.93.05s-.68,0-1,.07-.69.07-1,.14c-.16,0-.33,0-.46.08l-.42.09c-.27,0-.51.15-.67.17Z"/></g></g></svg>